{
.appVersion = "1141";
DisplayStrings = (
"Roboto Slab Black\012ABCDEFGHIJKLMNOPQRSTUVWXYZ\012abcdefghijklmnopqrstuvwxyz\012\012\012"
);
classes = (
{
code = "numero thetaSymbol zeroWidthNoBreakSpace estimated emspace enspace titlocomb-cy thousand-cy dasiapneumatacomb-cy palatalizationcomb-cy fourperemspace psilipneumatacomb-cy millionssigncomb-cy hundredthousandssigncomb-cy thinspace punctuationspace objectReplacementCharacter replacementCharacter emquad zerowidthspace hairspace enquad figurespace sixperemspace threeperemspace literSign nmod dasiaoxia";
disabled = 1;
name = GDEF_Base;
}
);
copyright = "Copyright 2013 Google Inc. All Rights Reserved.";
customParameters = (
{
name = glyphOrder;
value = (
.notdef,
uni0009,
CR,
space,
quotedbl,
numbersign,
dollar,
percent,
ampersand,
quotesingle,
parenleft,
parenright,
asterisk,
plus,
comma,
hyphen,
period,
slash,
zero,
one,
two,
three,
four,
five,
six,
seven,
eight,
nine,
colon,
semicolon,
less,
equal,
greater,
question,
at,
A,
B,
C,
D,
E,
F,
G,
H,
I,
J,
K,
L,
M,
N,
O,
P,
Q,
R,
S,
T,
U,
V,
W,
X,
Y,
Z,
bracketleft,
backslash,
bracketright,
asciicircum,
underscore,
grave,
a,
b,
c,
d,
e,
f,
g,
h,
i,
j,
k,
l,
m,
n,
o,
p,
q,
r,
s,
t,
u,
v,
w,
x,
y,
z,
braceleft,
bar,
braceright,
asciitilde,
exclamdown,
cent,
sterling,
currency,
yen,
brokenbar,
section,
dieresis,
copyright,
ordfeminine,
guillemetleft,
logicalnot,
registered,
firsttonechinese,
degree,
plusminus,
twosuperior,
threesuperior,
acute,
micro,
paragraph,
periodcentered,
cedilla,
onesuperior,
ordmasculine,
guillemetright,
onequarter,
onehalf,
threequarters,
questiondown,
AE,
multiply,
Oslash,
Thorn,
germandbls,
ae,
eth,
divide,
oslash,
thorn,
Hbar,
idotless,
kgreenlandic,
Lslash,
lslash,
Eng,
eng,
OE,
oe,
longs,
florin,
Ohorn,
ohorn,
Uhorn,
uhorn,
jdotless,
schwa,
circumflex,
caron,
breve,
dotaccent,
ring,
ogonek,
tilde,
hungarumlaut,
lowringmod,
gravecomb,
acutecomb,
tildecomb,
hookabovecomb,
dblgravecomb,
dotbelowcomb,
tonos,
dieresistonos,
anoteleia,
Gamma,

glyphs = (
{
glyphname = quotedbl;
lastChange = "2018-07-15 19:02:34 +0000";
layers = (
{
layerId = "0331963E-C1C8-4E93-A463-84B984C1D75E";
paths = (
{
closed = 1;
nodes = (
"216 1122 LINE",
"166 1122 LINE",
"171 1390 LINE",
"171 1560 LINE",
"226 1560 LINE",
"226 1393 LINE"
);
},
{
closed = 1;
nodes = (
"397 1122 LINE",
"347 1122 LINE",
"353 1390 LINE",
"353 1560 LINE",
"407 1560 LINE",
"407 1393 LINE"
);
}
);
width = 665;
},
{
layerId = "ED9AC664-5073-455E-9B15-F6014C59BAEB";
paths = (
{
closed = 1;
nodes = (
"269 1039 LINE",
"140 1039 LINE",
"140 1340 LINE",
"140 1560 LINE",
"346 1560 LINE",
"346 1288 LINE"
);
},
{
closed = 1;
nodes = (
"595 1039 LINE",
"467 1039 LINE",
"467 1371 LINE",
"467 1560 LINE",
"672 1560 LINE",
"672 1288 LINE"
);
}
);
width = 782;
},
{
layerId = "B06AEEA2-953E-4FA5-BFB1-0445B6E4B274";
paths = (
{
closed = 1;
nodes = (
"263 1040 LINE",
"166 1040 LINE",
"166 1352 LINE",
"166 1560 LINE",
"324 1560 LINE",
"324 1290 LINE"
);
},
{
closed = 1;
nodes = (
"571 1040 LINE",
"474 1040 LINE",
"474 1356 LINE",
"474 1560 LINE",
"632 1560 LINE",
"632 1290 LINE"
);
}
);
width = 765;
},
{
layerId = "55372407-EEEC-4390-8B77-FB5958F23D2B";
paths = (
{
closed = 1;
nodes = (
"273 1038 LINE",
"124 1038 LINE",
"124 1333 LINE",
"124 1560 LINE",
"360 1560 LINE",
"360 1287 LINE"
);
},
{
closed = 1;
nodes = (
"610 1038 LINE",
"463 1038 LINE",
"463 1380 LINE",
"463 1560 LINE",
"697 1560 LINE",
"697 1287 LINE"
);
}
);
width = 793;
}
);
leftKerningGroup = minute;
rightKerningGroup = minute;
unicode = 0022;
},
{
glyphname = numbersign;
lastChange = "2018-07-15 19:02:34 +0000";
layers = (
{
layerId = "0331963E-C1C8-4E93-A463-84B984C1D75E";
paths = (
{
closed = 1;
nodes = (
"390 410 LINE",
"316 0 LINE",
"260 0 LINE",
"334 410 LINE",
"63 410 LINE",
"63 462 LINE",
"344 462 LINE",
"439 986 LINE",
"139 986 LINE",
"139 1040 LINE",
"449 1040 LINE",
"524 1456 LINE",
"580 1456 LINE",
"504 1040 LINE",
"869 1040 LINE",
"945 1456 LINE",
"1001 1456 LINE",
"925 1040 LINE",
"1179 1040 LINE",
"1179 986 LINE",
"915 986 LINE",
"819 462 LINE",
"1104 462 LINE",
"1104 410 LINE",
"810 410 LINE",
"735 0 LINE",
"679 0 LINE",
"754 410 LINE"
);
},
{
closed = 1;
nodes = (
"763 462 LINE",
"859 986 LINE",
"494 986 LINE",
"400 462 LINE"
);
}
);
width = 1246;
},
{
layerId = "ED9AC664-5073-455E-9B15-F6014C59BAEB";
paths = (
{
closed = 1;
nodes = (
"450 410 LINE",
"378 0 LINE",
"194 0 LINE",
"266 410 LINE",
"39 410 LINE",
"39 579 LINE",
"295 579 LINE",
"346 869 LINE",
"115 869 LINE",
"115 1040 LINE",
"376 1040 LINE",
"450 1456 LINE",
"633 1456 LINE",
"560 1040 LINE",
"752 1040 LINE",
"825 1456 LINE",
"1009 1456 LINE",
"935 1040 LINE",
"1155 1040 LINE",
"1155 869 LINE",
"905 869 LINE",
"854 579 LINE",
"1080 579 LINE",
"1080 410 LINE",
"825 410 LINE",
"753 0 LINE",
"570 0 LINE",
"642 410 LINE"
);
},
{
closed = 1;
nodes = (
"671 579 LINE",
"722 869 LINE",
"530 869 LINE",
"479 579 LINE"
);
}
);
width = 1198;
},
{
layerId = "B06AEEA2-953E-4FA5-BFB1-0445B6E4B274";
paths = (
{
closed = 1;
nodes = (
"449 410 LINE",
"369 0 LINE",
"218 0 LINE",
"298 410 LINE",
"63 410 LINE",
"63 550 LINE",
"326 550 LINE",
"394 898 LINE",
"139 898 LINE",
"139 1040 LINE",
"422 1040 LINE",
"504 1456 LINE",
"655 1456 LINE",
"573 1040 LINE",
"828 1040 LINE",
"910 1456 LINE",
"1061 1456 LINE",
"979 1040 LINE",
"1179 1040 LINE",
"1179 898 LINE",
"952 898 LINE",
"884 550 LINE",
"1104 550 LINE",
"1104 410 LINE",
"856 410 LINE",
"776 0 LINE",
"625 0 LINE",
"705 410 LINE"
);
},
{
closed = 1;
nodes = (
"733 550 LINE",
"801 898 LINE",
"545 898 LINE",
"477 550 LINE"
);
}
);
width = 1246;
},
{
layerId = "55372407-EEEC-4390-8B77-FB5958F23D2B";
paths = (
{
closed = 1;
nodes = (
"451 410 LINE",
"384 0 LINE",
"179 0 LINE",
"246 410 LINE",
"24 410 LINE",
"24 597 LINE",
"276 597 LINE",
"316 851 LINE",
"100 851 LINE",
"100 1040 LINE",
"347 1040 LINE",
"416 1456 LINE",
"619 1456 LINE",
"552 1040 LINE",
"705 1040 LINE",
"772 1456 LINE",
"977 1456 LINE",
"908 1040 LINE",
"1140 1040 LINE",
"1140 851 LINE",
"876 851 LINE",
"835 597 LINE",
"1065 597 LINE",
"1065 410 LINE",
"806 410 LINE",
"739 0 LINE",
"536 0 LINE",
"603 410 LINE"
);
},
{
closed = 1;
nodes = (
"632 597 LINE",
"673 851 LINE",
"521 851 LINE",
"480 597 LINE"
);
}
);
width = 1168;
}
);
unicode = 0023;
},
{
glyphname = dollar;
lastChange = "2018-07-15 19:02:34 +0000";
layers = (
{
layerId = "0331963E-C1C8-4E93-A463-84B984C1D75E";
paths = (
{
closed = 1;
nodes = (
"245.333 796.667 OFFCURVE",
"124 887.333 OFFCURVE",
"124 1110 CURVE SMOOTH",
"124 1323.333 OFFCURVE",
"274 1466.667 OFFCURVE",
"510 1476 CURVE",
"510 1663 LINE",
"565 1663 LINE",
"565 1476 LINE",
"806.333 1462.667 OFFCURVE",
"948 1309.333 OFFCURVE",
"944 1052 CURVE",
"942 1047 LINE",
"895 1047 LINE",
"895 1268.333 OFFCURVE",
"761.667 1424 OFFCURVE",
"535 1424 CURVE SMOOTH",
"303 1424 OFFCURVE",
"178 1284 OFFCURVE",
"178 1112 CURVE SMOOTH",
"178 937.333 OFFCURVE",
"250.333 851.333 OFFCURVE",
"549 754 CURVE SMOOTH",
"829 656.667 OFFCURVE",
"957 566 OFFCURVE",
"957 346 CURVE SMOOTH",
"957 131.333 OFFCURVE",
"806.667 -6.667 OFFCURVE",
"576 -20 CURVE",
"576 -208 LINE",
"521 -208 LINE",
"521 -21 LINE",
"269 -13 OFFCURVE",
"76.333 117.667 OFFCURVE",
"83 403 CURVE",
"85 409 LINE",
"131 409 LINE",
"131 143.667 OFFCURVE",
"318 32 OFFCURVE",
"542 32 CURVE SMOOTH",
"759.333 32 OFFCURVE",
"903 173.333 OFFCURVE",
"903 344 CURVE SMOOTH",
"903 517.333 OFFCURVE",
"816 599.333 OFFCURVE",
"532 702 CURVE SMOOTH"
);
}
);
width = 1086;
},
{
layerId = "ED9AC664-5073-455E-9B15-F6014C59BAEB";
paths = (
{
closed = 1;
nodes = (
"247 718 OFFCURVE",
"107 829.667 OFFCURVE",
"107 1071 CURVE SMOOTH",
"107 1295 OFFCURVE",
"261.333 1447.667 OFFCURVE",
"504 1473 CURVE",
"504 1688 LINE",
"663 1688 LINE",
"663 1470 LINE",
"896.333 1435.333 OFFCURVE",
"1039.667 1267.333 OFFCURVE",
"1037 1010 CURVE",
"1034 1005 LINE",
"750 1005 LINE",
"750 1162.333 OFFCURVE",
"679.667 1251 OFFCURVE",
"569 1251 CURVE SMOOTH",
"454.333 1251 OFFCURVE",
"398 1179.333 OFFCURVE",
"398 1070 CURVE SMOOTH",
"398 966 OFFCURVE",
"447.333 910.667 OFFCURVE",
"606 848 CURVE SMOOTH",
"900.667 732 OFFCURVE",
"1041 622.333 OFFCURVE",
"1041 385 CURVE SMOOTH",
"1041 154.333 OFFCURVE",
"887 9.333 OFFCURVE",
"643 -16 CURVE",
"643 -214 LINE",
"484 -214 LINE",
"484 -17 LINE",
"234.667 8.333 OFFCURVE",
"51.667 155.667 OFFCURVE",
"57 449 CURVE",
"59 454 LINE",
"343 454 LINE",
"343 275.333 OFFCURVE",
"435.667 204 OFFCURVE",
"561 204 CURVE SMOOTH",
"682.333 204 OFFCURVE",
"749 273.667 OFFCURVE",
"749 383 CURVE SMOOTH",
"749 491 OFFCURVE",
"693.667 551.333 OFFCURVE",
"543 610 CURVE SMOOTH"
);
}
);
width = 1107;
},
{
layerId = "B06AEEA2-953E-4FA5-BFB1-0445B6E4B274";
paths = (
{
closed = 1;
nodes = (
"272 724 OFFCURVE",
"133 851 OFFCURVE",
"133 1078 CURVE SMOOTH",
"133 1298 OFFCURVE",
"268 1444 OFFCURVE",
"489 1472 CURVE",
"489 1693 LINE",
"647 1693 LINE",
"647 1471 LINE",
"870 1439 OFFCURVE",
"999 1275 OFFCURVE",
"999 1007 CURVE",
"985 1007 LINE",
"803 1007 LINE",
"803 1188 OFFCURVE",
"715 1311 OFFCURVE",
"566 1311 CURVE SMOOTH",
"409 1311 OFFCURVE",
"330 1224 OFFCURVE",
"330 1081 CURVE SMOOTH",
"330 952 OFFCURVE",
"399 882 OFFCURVE",
"610 810 CURVE SMOOTH",
"882 722 OFFCURVE",
"1012 603 OFFCURVE",
"1012 378 CURVE SMOOTH",
"1012 149 OFFCURVE",
"866 8 OFFCURVE",
"626 -17 CURVE",
"626 -208 LINE",
"470 -208 LINE",
"470 -17 LINE",
"241 7 OFFCURVE",
"77 147 OFFCURVE",
"82 424 CURVE",
"84 429 LINE",
"274 429 LINE",
"274 224 OFFCURVE",
"391 144 OFFCURVE",
"542 144 CURVE SMOOTH",
"714 144 OFFCURVE",
"815 231 OFFCURVE",
"815 376 CURVE SMOOTH",
"815 496 OFFCURVE",
"737 576 OFFCURVE",
"541 643 CURVE SMOOTH"
);
}
);
width = 1110;
},
{
layerId = "55372407-EEEC-4390-8B77-FB5958F23D2B";
paths = (
{
closed = 1;
nodes = (
"231 714 OFFCURVE",
"91 816 OFFCURVE",
"91 1067 CURVE SMOOTH",
"91 1293 OFFCURVE",
"257 1450 OFFCURVE",
"513 1474 CURVE",
"513 1685 LINE",
"673 1685 LINE",
"673 1469 LINE",
"913 1433 OFFCURVE",
"1065 1263 OFFCURVE",
"1061 1012 CURVE",
"1064 1004 LINE",
"717 1004 LINE",
"717 1146 OFFCURVE",
"658 1214 OFFCURVE",
"571 1214 CURVE SMOOTH",
"482 1214 OFFCURVE",
"440 1152 OFFCURVE",
"440 1063 CURVE SMOOTH",
"440 975 OFFCURVE",
"477 928 OFFCURVE",
"604 872 CURVE SMOOTH",
"912 738 OFFCURVE",
"1059 634 OFFCURVE",
"1059 389 CURVE SMOOTH",
"1059 158 OFFCURVE",
"900 10 OFFCURVE",
"654 -15 CURVE",
"654 -218 LINE",
"493 -218 LINE",
"493 -17 LINE",
"231 9 OFFCURVE",
"36 161 OFFCURVE",
"41 465 CURVE",
"43 470 LINE",
"386 470 LINE",
"386 307 OFFCURVE",
"463 241 OFFCURVE",
"573 241 CURVE SMOOTH",
"663 241 OFFCURVE",
"708 300 OFFCURVE",
"708 387 CURVE SMOOTH",
"708 488 OFFCURVE",
"667 536 OFFCURVE",
"544 590 CURVE SMOOTH"
);
}
);
width = 1105;
}
);
unicode = 0024;
},
{
glyphname = percent;
lastChange = "2018-07-15 19:02:34 +0000";
layers = (
{
layerId = "0331963E-C1C8-4E93-A463-84B984C1D75E";
paths = (
{
closed = 1;
nodes = (
"77 1344 OFFCURVE",
"189 1477 OFFCURVE",
"349 1477 CURVE SMOOTH",
"507.667 1477 OFFCURVE",
"620 1344 OFFCURVE",
"620 1176 CURVE SMOOTH",
"620 1099 LINE SMOOTH",
"620 931 OFFCURVE",
"508.333 800 OFFCURVE",
"351 800 CURVE SMOOTH",
"188.333 800 OFFCURVE",
"77 931 OFFCURVE",
"77 1099 CURVE SMOOTH",
"77 1176 LINE SMOOTH"
);
},
{
closed = 1;
nodes = (
"132 965.667 OFFCURVE",
"209.667 855 OFFCURVE",
"351 855 CURVE SMOOTH",
"487 855 OFFCURVE",
"565 965.667 OFFCURVE",
"565 1099 CURVE SMOOTH",
"565 1176 LINE SMOOTH",
"565 1309.333 OFFCURVE",
"486.333 1422 OFFCURVE",
"349 1422 CURVE SMOOTH",
"211.667 1422 OFFCURVE",
"132 1308 OFFCURVE",
"132 1176 CURVE SMOOTH",
"132 1099 LINE SMOOTH"
);
},
{
closed = 1;
nodes = (
"833 523.667 OFFCURVE",
"944 657 OFFCURVE",
"1104 657 CURVE SMOOTH",
"1264 657 OFFCURVE",
"1376 525 OFFCURVE",
"1376 357 CURVE SMOOTH",
"1376 279 LINE SMOOTH",
"1376 111 OFFCURVE",
"1264.667 -21 OFFCURVE",
"1106 -21 CURVE SMOOTH",
"944.667 -21 OFFCURVE",
"833 111 OFFCURVE",
"833 279 CURVE SMOOTH",
"833 357 LINE SMOOTH"
);
},
{
closed = 1;
nodes = (
"888 144.333 OFFCURVE",
"964.667 34 OFFCURVE",
"1106 34 CURVE SMOOTH",
"1243.333 34 OFFCURVE",
"1321 144.333 OFFCURVE",
"1321 279 CURVE SMOOTH",
"1321 357 LINE SMOOTH",
"1321 498.333 OFFCURVE",
"1244 602 OFFCURVE",
"1104 602 CURVE SMOOTH",
"966.667 602 OFFCURVE",
"888 497 OFFCURVE",
"888 357 CURVE SMOOTH",
"888 279 LINE SMOOTH"
);
},
{
closed = 1;
nodes = (
"343 162 LINE",
"1054 1300 LINE",
"1099 1269 LINE",
"388 131 LINE"
);
}
);
width = 1457;
},
{
layerId = "ED9AC664-5073-455E-9B15-F6014C59BAEB";
paths = (
{
closed = 1;
nodes = (
"49 1348 OFFCURVE",
"166.333 1477 OFFCURVE",
"365 1477 CURVE SMOOTH",
"566.333 1477 OFFCURVE",
"682 1349.333 OFFCURVE",
"682 1176 CURVE SMOOTH",
"682 1099 LINE SMOOTH",
"682 927 OFFCURVE",
"565.667 800 OFFCURVE",
"367 800 CURVE SMOOTH",
"167 800 OFFCURVE",
"49 927 OFFCURVE",
"49 1099 CURVE SMOOTH",
"49 1176 LINE SMOOTH"
);
},
{
closed = 1;
nodes = (
"243 1021.667 OFFCURVE",
"287 962 OFFCURVE",
"367 962 CURVE SMOOTH",
"444.333 962 OFFCURVE",
"489 1021.667 OFFCURVE",
"489 1099 CURVE SMOOTH",
"489 1176 LINE SMOOTH",
"489 1253.333 OFFCURVE",
"443.667 1315 OFFCURVE",
"365 1315 CURVE SMOOTH",
"286.333 1315 OFFCURVE",
"243 1253.333 OFFCURVE",
"243 1176 CURVE SMOOTH",
"243 1099 LINE SMOOTH"
);
},
{
closed = 1;
nodes = (
"745 527.667 OFFCURVE",
"863.333 657 OFFCURVE",
"1062 657 CURVE SMOOTH",
"1262 657 OFFCURVE",
"1379 529 OFFCURVE",
"1379 357 CURVE SMOOTH",
"1379 280 LINE SMOOTH",
"1379 106.667 OFFCURVE",
"1262.667 -20 OFFCURVE",
"1064 -20 CURVE SMOOTH",
"864 -20 OFFCURVE",
"745 108 OFFCURVE",
"745 280 CURVE SMOOTH",
"745 357 LINE SMOOTH"
);
},
{
closed = 1;
nodes = (
"939 204 OFFCURVE",
"989.333 142 OFFCURVE",
"1064 142 CURVE SMOOTH",
"1150.667 142 OFFCURVE",
"1185 196 OFFCURVE",
"1185 280 CURVE SMOOTH",
"1185 357 LINE SMOOTH",
"1185 433 OFFCURVE",
"1140.667 495 OFFCURVE",
"1062 495 CURVE SMOOTH",
"982 495 OFFCURVE",
"939 433 OFFCURVE",
"939 357 CURVE SMOOTH",
"939 280 LINE SMOOTH"
);
},
{
closed = 1;
nodes = (
"285 184 LINE",
"996 1322 LINE",
"1138 1247 LINE",
"427 109 LINE"
);
}
);
width = 1429;
},
{
layerId = "B06AEEA2-953E-4FA5-BFB1-0445B6E4B274";
paths = (
{
closed = 1;
nodes = (
"77 1345.333 OFFCURVE",
"195.667 1477 OFFCURVE",
"377 1477 CURVE SMOOTH",
"561 1477 OFFCURVE",
"679 1346.667 OFFCURVE",
"679 1176 CURVE SMOOTH",
"679 1099 LINE SMOOTH",
"679 929.667 OFFCURVE",
"560.333 800 OFFCURVE",
"379 800 CURVE SMOOTH",
"196.333 800 OFFCURVE",
"77 929.667 OFFCURVE",
"77 1099 CURVE SMOOTH",
"77 1176 LINE SMOOTH"
);
},
{
closed = 1;
nodes = (
"223 1000.333 OFFCURVE",
"279 922 OFFCURVE",
"379 922 CURVE SMOOTH",
"476.333 922 OFFCURVE",
"533 999 OFFCURVE",
"533 1099 CURVE SMOOTH",
"533 1176 LINE SMOOTH",
"533 1274.667 OFFCURVE",
"475.667 1355 OFFCURVE",
"377 1355 CURVE SMOOTH",
"278.333 1355 OFFCURVE",
"223 1274.667 OFFCURVE",
"223 1176 CURVE SMOOTH",
"223 1099 LINE SMOOTH"
);
},
{
closed = 1;
nodes = (
"782 525 OFFCURVE",
"900.667 657 OFFCURVE",
"1082 657 CURVE SMOOTH",
"1264.667 657 OFFCURVE",
"1384 526.333 OFFCURVE",
"1384 357 CURVE SMOOTH",
"1384 279 LINE SMOOTH",
"1384 108.333 OFFCURVE",
"1265.333 -21 OFFCURVE",
"1084 -21 CURVE SMOOTH",
"900 -21 OFFCURVE",
"782 108.333 OFFCURVE",
"782 279 CURVE SMOOTH",
"782 357 LINE SMOOTH"
);
},
{
closed = 1;
nodes = (
"928 179 OFFCURVE",
"984 101 OFFCURVE",
"1084 101 CURVE SMOOTH",
"1182.667 101 OFFCURVE",
"1238 179 OFFCURVE",
"1238 279 CURVE SMOOTH",
"1238 357 LINE SMOOTH",
"1238 455.667 OFFCURVE",
"1180.667 535 OFFCURVE",
"1082 535 CURVE SMOOTH",
"983.333 535 OFFCURVE",
"928 455.667 OFFCURVE",
"928 357 CURVE SMOOTH",
"928 279 LINE SMOOTH"
);
},
{
closed = 1;
nodes = (
"313 177 LINE",
"1024 1315 LINE",
"1133 1248 LINE",
"422 110 LINE"
);
}
);
width = 1460;
},
{
layerId = "55372407-EEEC-4390-8B77-FB5958F23D2B";
paths = (
{
closed = 1;
nodes = (
"32 1350 OFFCURVE",
"148 1477 OFFCURVE",
"358 1477 CURVE SMOOTH",
"570 1477 OFFCURVE",
"684 1351 OFFCURVE",
"684 1176 CURVE SMOOTH",
"684 1099 LINE SMOOTH",
"684 925 OFFCURVE",
"569 800 OFFCURVE",
"360 800 CURVE SMOOTH",
"149 800 OFFCURVE",
"32 925 OFFCURVE",
"32 1099 CURVE SMOOTH",
"32 1176 LINE SMOOTH"
);
},
{
closed = 1;
nodes = (
"255 1035 OFFCURVE",
"292 987 OFFCURVE",
"360 987 CURVE SMOOTH",
"424 987 OFFCURVE",
"462 1036 OFFCURVE",
"462 1099 CURVE SMOOTH",
"462 1176 LINE SMOOTH",
"462 1240 OFFCURVE",
"424 1290 OFFCURVE",
"358 1290 CURVE SMOOTH",
"291 1290 OFFCURVE",
"255 1240 OFFCURVE",
"255 1176 CURVE SMOOTH",
"255 1099 LINE SMOOTH"
);
},
{
closed = 1;
nodes = (
"722 529 OFFCURVE",
"840 657 OFFCURVE",
"1050 657 CURVE SMOOTH",
"1260 657 OFFCURVE",
"1376 531 OFFCURVE",
"1376 357 CURVE SMOOTH",
"1376 281 LINE SMOOTH",
"1376 106 OFFCURVE",
"1261 -19 OFFCURVE",
"1052 -19 CURVE SMOOTH",
"842 -19 OFFCURVE",
"722 108 OFFCURVE",
"722 281 CURVE SMOOTH",
"722 357 LINE SMOOTH"
);
},
{
closed = 1;
nodes = (
"946 220 OFFCURVE",
"993 167 OFFCURVE",
"1052 167 CURVE SMOOTH",
"1131 167 OFFCURVE",
"1152 207 OFFCURVE",
"1152 281 CURVE SMOOTH",
"1152 357 LINE SMOOTH",
"1152 419 OFFCURVE",
"1116 470 OFFCURVE",
"1050 470 CURVE SMOOTH",
"981 470 OFFCURVE",
"946 419 OFFCURVE",
"946 357 CURVE SMOOTH",
"946 281 LINE SMOOTH"
);
},
{
closed = 1;
nodes = (
"268 188 LINE",
"979 1326 LINE",
"1141 1246 LINE",
"430 108 LINE"
);
}
);
width = 1410;
}
);
unicode = 0025;
userData = {
com.typemytype.robofont.layerData = {
mask = {
anchors = (
);
components = (
);
contours = (
{
points = (
{
segmentType = line;
smooth = 1;
x = 77;
y = 1176;
},
{
smooth = 0;
x = 77;
y = 1344;
},
{
smooth = 0;
x = 189;
y = 1477;
},
{
segmentType = curve;
smooth = 1;
x = 349;
y = 1477;
},
{
smooth = 0;
x = 507.66667;
y = 1477;
},
{
smooth = 0;
x = 620;
y = 1344;
},
{
segmentType = curve;
smooth = 1;
x = 620;
y = 1176;
},
{
segmentType = line;
smooth = 1;
x = 620;
y = 1099;
},
{
smooth = 0;
x = 620;
y = 931;
},
{
smooth = 0;
x = 508.33333;
y = 800;
},
{
segmentType = curve;
smooth = 1;
x = 351;
y = 800;
},
{
smooth = 0;
x = 188.33333;
y = 800;
},
{
smooth = 0;
x = 77;
y = 931;
},
{
segmentType = curve;
smooth = 1;
x = 77;
y = 1099;
}
);
},
{
points = (
{
segmentType = line;
smooth = 1;
x = 132;
y = 1099;
},
{
smooth = 0;
x = 132;
y = 965.66667;
},
{
smooth = 0;
x = 209.66667;
y = 855;
},
{
segmentType = curve;
smooth = 1;
x = 351;
y = 855;
},
{
smooth = 0;
x = 487;
y = 855;
},
{
smooth = 0;
x = 565;
y = 965.66667;
},
{
segmentType = curve;
smooth = 1;
x = 565;
y = 1099;
},
{
segmentType = line;
smooth = 1;
x = 565;
y = 1176;
},
{
smooth = 0;
x = 565;
y = 1309.33333;
},
{
smooth = 0;
x = 486.33333;
y = 1422;
},
{
segmentType = curve;
smooth = 1;
x = 349;
y = 1422;
},
{
smooth = 0;
x = 211.66667;
y = 1422;
},
{
smooth = 0;
x = 132;
y = 1308;
},
{
segmentType = curve;
smooth = 1;
x = 132;
y = 1176;
}
);
},
{
points = (
{
segmentType = line;
smooth = 1;
x = 833;
y = 357;
},
{
smooth = 0;
x = 833;
y = 523.66667;
},
{
smooth = 0;
x = 944;
y = 657;
},
{
segmentType = curve;
smooth = 1;
x = 1104;
y = 657;
},
{
smooth = 0;
x = 1264;
y = 657;
},
{
smooth = 0;
x = 1376;
y = 525;
},
{
segmentType = curve;
smooth = 1;
x = 1376;
y = 357;
},
{
segmentType = line;
smooth = 1;
x = 1376;
y = 279;
},
{
smooth = 0;
x = 1376;
y = 111;
},
{
smooth = 0;
x = 1264.66667;
y = -21;
},
{
segmentType = curve;
smooth = 1;
x = 1106;
y = -21;
},
{
smooth = 0;
x = 944.66667;
y = -21;
},
{
smooth = 0;
x = 833;
y = 111;
},
{
segmentType = curve;
smooth = 1;
x = 833;
y = 279;
}
);
},
{
points = (
{
segmentType = line;
smooth = 1;
x = 888;
y = 279;
},
{
smooth = 0;
x = 888;
y = 144.33333;
},
{
smooth = 0;
x = 964.66667;
y = 34;
},
{
segmentType = curve;
smooth = 1;
x = 1106;
y = 34;
},
{
smooth = 0;
x = 1243.33333;
y = 34;
},
{
smooth = 0;
x = 1321;
y = 144.33333;
},
{
segmentType = curve;
smooth = 1;
x = 1321;
y = 279;
},
{
segmentType = line;
smooth = 1;
x = 1321;
y = 357;
},
{
smooth = 0;
x = 1321;
y = 498.33333;
},
{
smooth = 0;
x = 1244;
y = 602;
},
{
segmentType = curve;
smooth = 1;
x = 1104;
y = 602;
},
{
smooth = 0;
x = 966.66667;
y = 602;
},
{
smooth = 0;
x = 888;
y = 497;
},
{
segmentType = curve;
smooth = 1;
x = 888;
y = 357;
}
);
},
{
points = (
{
segmentType = line;
smooth = 0;
x = 439;
y = 131;
},
{
segmentType = line;
smooth = 0;
x = 394;
y = 162;
},
{
segmentType = line;
smooth = 0;
x = 1105;
y = 1300;
},
{
segmentType = line;
smooth = 0;
x = 1150;
y = 1269;
}
);
}
);
lib = {
};
name = percent;
unicodes = (
);
width = 1457;
};
};
com.typemytype.robofont.mark = (
1,
0.1703,
0.1669,
0.8287
);
};
},
{
color = 0;
glyphname = ampersand;
lastChange = "2018-07-15 19:02:34 +0000";
layers = (
{
layerId = "0331963E-C1C8-4E93-A463-84B984C1D75E";
paths = (
{
closed = 1;
nodes = (
"74 504 OFFCURVE",
"168.667 626 OFFCURVE",
"330 762 CURVE SMOOTH",
"347 776 OFFCURVE",
"364 789 OFFCURVE",
"381 803 CURVE",
"271.667 940.333 OFFCURVE",
"221 1045.667 OFFCURVE",
"221 1167 CURVE SMOOTH",
"221 1365.667 OFFCURVE",
"336.667 1477 OFFCURVE",
"526 1477 CURVE SMOOTH",
"702 1477 OFFCURVE",
"802 1372.333 OFFCURVE",
"802 1215 CURVE SMOOTH",
"802 1103 OFFCURVE",
"748.333 1032.667 OFFCURVE",
"655 958 CURVE SMOOTH",
"453 797 LINE",
"928 257 LINE",
"1000 358.333 OFFCURVE",
"1043 486.667 OFFCURVE",
"1043 632 CURVE",
"1098 632 LINE",
"1098 465.333 OFFCURVE",
"1049 330.667 OFFCURVE",
"965 216 CURVE",
"1150 5 LINE",
"1148 0 LINE",
"1088 0 LINE",
"931 177 LINE",
"829 71 OFFCURVE",
"702.51 -21 OFFCURVE",
"508 -21 CURVE SMOOTH",
"238.667 -21 OFFCURVE",
"74 122.667 OFFCURVE",
"74 352 CURVE SMOOTH"
);
},
{
closed = 1;
nodes = (
"654.667 33 OFFCURVE",
"794.667 98.667 OFFCURVE",
"896 216 CURVE",
"413 764 LINE",
"361 723 LINE SMOOTH",
"178.333 565.667 OFFCURVE",
"128 456 OFFCURVE",
"128 352 CURVE SMOOTH",
"128 173.333 OFFCURVE",
"262.667 33 OFFCURVE",
"508 33 CURVE SMOOTH"
);
},
{
closed = 1;
nodes = (
"276 1063.667 OFFCURVE",
"321 951.333 OFFCURVE",
"421 834 CURVE",
"630 1000 LINE SMOOTH",
"710 1066.667 OFFCURVE",
"746 1137.667 OFFCURVE",
"746 1215 CURVE SMOOTH",
"746 1340.333 OFFCURVE",
"668.667 1423 OFFCURVE",
"526 1423 CURVE SMOOTH",
"366 1423 OFFCURVE",
"276 1314.333 OFFCURVE",
"276 1169 CURVE SMOOTH"
);
}
);
width = 1253;
},
{
layerId = "ED9AC664-5073-455E-9B15-F6014C59BAEB";
paths = (
{
closed = 1;
nodes = (
"45 543 OFFCURVE",
"124 642 OFFCURVE",
"287 759 CURVE SMOOTH",
"294 764 OFFCURVE",
"301 769 OFFCURVE",
"308 774 CURVE",
"217 897 OFFCURVE",
"173 992 OFFCURVE",
"173 1097 CURVE SMOOTH",
"173 1328 OFFCURVE",
"329 1477 OFFCURVE",
"570 1477 CURVE SMOOTH",
"782 1477 OFFCURVE",
"928 1327 OFFCURVE",
"928 1140 CURVE SMOOTH",
"928 1009 OFFCURVE",
"858 900 OFFCURVE",
"745 819 CURVE SMOOTH",
"652 753 LINE",
"928 431 LINE",
"976 511 OFFCURVE",
"1004 605 OFFCURVE",
"1004 709 CURVE",
"1222 709 LINE",
"1222 525 OFFCURVE",
"1177 369 OFFCURVE",
"1084 249 CURVE",
"1292 5 LINE",
"1290 0 LINE",
"966 0 LINE",
"889 89 LINE",
"776 16 OFFCURVE",
"658 -21 OFFCURVE",
"521 -21 CURVE SMOOTH",
"230 -21 OFFCURVE",
"45 147 OFFCURVE",
"45 392 CURVE SMOOTH"
);
},
{
closed = 1;
nodes = (
"606.667 203 OFFCURVE",
"678.667 221 OFFCURVE",
"744 257 CURVE",
"444 605 LINE",
"425 592 LINE",
"357 528 OFFCURVE",
"337 468.333 OFFCURVE",
"337 407 CURVE SMOOTH",
"337 288.333 OFFCURVE",
"417.333 203 OFFCURVE",
"536 203 CURVE SMOOTH"
);
},
{
closed = 1;
nodes = (
"434 1042.667 OFFCURVE",
"462.667 984.333 OFFCURVE",
"520 911 CURVE",
"606 967 LINE SMOOTH",
"680.667 1015 OFFCURVE",
"701 1064 OFFCURVE",
"701 1124 CURVE SMOOTH",
"701 1190.667 OFFCURVE",
"647.667 1252 OFFCURVE",
"569 1252 CURVE SMOOTH",
"482.333 1252 OFFCURVE",
"434 1186.667 OFFCURVE",
"434 1100 CURVE SMOOTH"
);
}
);
width = 1278;
},
{
layerId = "B06AEEA2-953E-4FA5-BFB1-0445B6E4B274";
paths = (
{
closed = 1;
nodes = (
"74 552 OFFCURVE",
"165 662 OFFCURVE",
"345 783 CURVE SMOOTH",
"349 785 OFFCURVE",
"352 787 OFFCURVE",
"355 789 CURVE",
"251 921 OFFCURVE",
"201 1016 OFFCURVE",
"201 1125 CURVE SMOOTH",
"201 1350 OFFCURVE",
"339 1477 OFFCURVE",
"567 1477 CURVE SMOOTH",
"778 1477 OFFCURVE",
"923 1338 OFFCURVE",
"923 1167 CURVE SMOOTH",
"923 1036 OFFCURVE",
"852 951 OFFCURVE",
"715 851 CURVE SMOOTH",
"606 771 LINE",
"946 362 LINE",
"1001 449 OFFCURVE",
"1033 556 OFFCURVE",
"1033 673 CURVE",
"1209 673 LINE",
"1209 498 OFFCURVE",
"1156 348 OFFCURVE",
"1057 229 CURVE",
"1242 5 LINE",
"1240 0 LINE",
"1011 0 LINE",
"926 102 LINE",
"819 22 OFFCURVE",
"687 -21 OFFCURVE",
"548 -21 CURVE SMOOTH",
"259 -21 OFFCURVE",
"74 148 OFFCURVE",
"74 392 CURVE SMOOTH"
);
},
{
closed = 1;
nodes = (
"644 133 OFFCURVE",
"739.333 166.667 OFFCURVE",
"822 228 CURVE",
"461 663 LINE",
"421 634 LINE SMOOTH",
"299.667 543.333 OFFCURVE",
"271 458.667 OFFCURVE",
"271 392 CURVE SMOOTH",
"271 241.333 OFFCURVE",
"368 133 OFFCURVE",
"548 133 CURVE SMOOTH"
);
},
{
closed = 1;
nodes = (
"398 1056.333 OFFCURVE",
"434 981.667 OFFCURVE",
"506 891 CURVE",
"644 986 LINE SMOOTH",
"720 1036.667 OFFCURVE",
"742 1095 OFFCURVE",
"742 1167 CURVE SMOOTH",
"742 1248.333 OFFCURVE",
"671 1322 OFFCURVE",
"567 1322 CURVE SMOOTH",
"459 1322 OFFCURVE",
"398 1236.333 OFFCURVE",
"398 1127 CURVE SMOOTH"
);
}
);
width = 1289;
},
{
layerId = "55372407-EEEC-4390-8B77-FB5958F23D2B";
paths = (
{
closed = 1;
nodes = (
"27 537 OFFCURVE",
"99 630 OFFCURVE",
"251 744 CURVE SMOOTH",
"260 751 OFFCURVE",
"269 758 OFFCURVE",
"279 765 CURVE",
"196 882 OFFCURVE",
"156 977 OFFCURVE",
"156 1080 CURVE SMOOTH",
"156 1314 OFFCURVE",
"323 1477 OFFCURVE",
"572 1477 CURVE SMOOTH",
"784 1477 OFFCURVE",
"931 1320 OFFCURVE",
"931 1123 CURVE SMOOTH",
"931 992 OFFCURVE",
"862 868 OFFCURVE",
"764 799 CURVE SMOOTH",
"681 742 LINE",
"917 474 LINE",
"960 550 OFFCURVE",
"986 635 OFFCURVE",
"986 731 CURVE",
"1230 731 LINE",
"1230 542 OFFCURVE",
"1190 382 OFFCURVE",
"1101 261 CURVE",
"1323 5 LINE",
"1321 0 LINE",
"938 0 LINE",
"866 81 LINE",
"749 12 OFFCURVE",
"640 -21 OFFCURVE",
"504 -21 CURVE SMOOTH",
"212 -21 OFFCURVE",
"27 146 OFFCURVE",
"27 392 CURVE SMOOTH"
);
},
{
closed = 1;
nodes = (
"583 246 OFFCURVE",
"641 255 OFFCURVE",
"696 275 CURVE",
"433 569 LINE",
"427 566 LINE",
"393 518 OFFCURVE",
"378 474 OFFCURVE",
"378 416 CURVE SMOOTH",
"378 318 OFFCURVE",
"448 246 OFFCURVE",
"529 246 CURVE SMOOTH"
);
},
{
closed = 1;
nodes = (
"456 1034 OFFCURVE",
"480 986 OFFCURVE",
"529 923 CURVE",
"582 955 LINE SMOOTH",
"656 1002 OFFCURVE",
"676 1045 OFFCURVE",
"676 1097 CURVE SMOOTH",
"676 1155 OFFCURVE",
"633 1209 OFFCURVE",
"570 1209 CURVE SMOOTH",
"497 1209 OFFCURVE",
"456 1156 OFFCURVE",
"456 1083 CURVE SMOOTH"
);
}
);
width = 1271;
}
);
unicode = 0026;
userData = {
com.typemytype.robofont.layerData = {
mask = {
anchors = (
);
components = (
);
contours = (
{
points = (
{
segmentType = line;
smooth = 0;
x = 381;
y = 803;
},
{
smooth = 0;
x = 271.66667;
y = 940.33333;
},
{
smooth = 0;
x = 221;
y = 1045.66667;
},
{
segmentType = curve;
smooth = 1;
x = 221;
y = 1167;
},
{
smooth = 0;
x = 221;
y = 1365.66667;
},
{
smooth = 0;
x = 336.66667;
y = 1477;
},
{
segmentType = curve;
smooth = 1;
x = 526;
y = 1477;
},
{
smooth = 0;
x = 702;
y = 1477;
},
{
smooth = 0;
x = 802;
y = 1372.33333;
},
{
segmentType = curve;
smooth = 1;
x = 802;
y = 1215;
},
{
smooth = 0;
x = 802;
y = 1103;
},
{
smooth = 0;
x = 748.33333;
y = 1032.66667;
},
{
segmentType = curve;
smooth = 1;
x = 655;
y = 958;
},
{
segmentType = line;
smooth = 0;
x = 453;
y = 797;
},
{
segmentType = line;
smooth = 0;
x = 928;
y = 257;
},
{
smooth = 0;
x = 1000;
y = 358.33333;
},
{
smooth = 0;
x = 1043;
y = 486.66667;
},
{
segmentType = curve;
smooth = 0;
x = 1043;
y = 632;
},
{
segmentType = line;
smooth = 0;
x = 1098;
y = 632;
},
{
smooth = 0;
x = 1098;
y = 465.33333;
},
{
smooth = 0;
x = 1049;
y = 330.66667;
},
{
segmentType = curve;
smooth = 0;
x = 965;
y = 216;
},
{
segmentType = line;
smooth = 0;
x = 1150;
y = 5;
},
{
segmentType = line;
smooth = 0;
x = 1148;
y = 0;
},
{
segmentType = line;
smooth = 0;
x = 1088;
y = 0;
},
{
segmentType = line;
smooth = 0;
x = 931;
y = 177;
},
{
smooth = 0;
x = 924.33333;
y = 170.33333;
},
{
smooth = 0;
x = 920.33333;
y = 166.66667;
},
{
segmentType = curve;
smooth = 0;
x = 919;
y = 164;
},
{
smooth = 0;
x = 799;
y = 45.33333;
},
{
smooth = 0;
x = 673.33333;
y = -21;
},
{
segmentType = curve;
smooth = 1;
x = 508;
y = -21;
},
{
smooth = 0;
x = 238.66667;
y = -21;
},
{
smooth = 0;
x = 74;
y = 122.66667;
},
{
segmentType = curve;
smooth = 1;
x = 74;
y = 352;
},
{
smooth = 0;
x = 74;
y = 504;
},
{
smooth = 0;
x = 168.66667;
y = 626;
},
{
segmentType = curve;
smooth = 1;
x = 330;
y = 762;
}
);
},
{
points = (
{
segmentType = curve;
smooth = 1;
x = 508;
y = 33;
},
{
smooth = 0;
x = 654.66667;
y = 33;
},
{
smooth = 0;
x = 794.66667;
y = 98.66667;
},
{
segmentType = curve;
smooth = 0;
x = 896;
y = 216;
},
{
segmentType = line;
smooth = 0;
x = 447;
y = 725;
},
{
smooth = 0;
x = 436.33333;
y = 735.66667;
},
{
smooth = 0;
x = 427.66667;
y = 746.66667;
},
{
segmentType = curve;
smooth = 0;
x = 413;
y = 764;
},
{
segmentType = line;
smooth = 1;
x = 361;
y = 723;
},
{
smooth = 0;
x = 178.33333;
y = 565.66667;
},
{
smooth = 0;
x = 128;
y = 456;
},
{
segmentType = curve;
smooth = 1;
x = 128;
y = 352;
},
{
smooth = 0;
x = 128;
y = 173.33333;
},
{
smooth = 0;
x = 262.66667;
y = 33;
}
);
},
{
points = (
{
segmentType = curve;
smooth = 1;
x = 276;
y = 1169;
},
{
smooth = 0;
x = 276;
y = 1063.66667;
},
{
smooth = 0;
x = 321;
y = 951.33333;
},
{
segmentType = curve;
smooth = 0;
x = 421;
y = 834;
},
{
segmentType = line;
smooth = 1;
x = 630;
y = 1000;
},
{
smooth = 0;
x = 710;
y = 1066.66667;
},
{
smooth = 0;
x = 746;
y = 1137.66667;
},
{
segmentType = curve;
smooth = 1;
x = 746;
y = 1215;
},
{
smooth = 0;
x = 746;
y = 1340.33333;
},
{
smooth = 0;
x = 668.66667;
y = 1423;
},
{
segmentType = curve;
smooth = 1;
x = 526;
y = 1423;
},
{
smooth = 0;
x = 366;
y = 1423;
},
{
smooth = 0;
x = 276;
y = 1314.33333;
}
);
}
);
lib = {
};
name = ampersand;
unicodes = (
);
width = 1253;
};
};
};
},
{
glyphname = quotesingle;
lastChange = "2018-07-15 19:02:34 +0000";
layers = (
{
layerId = "0331963E-C1C8-4E93-A463-84B984C1D75E";
paths = (
{
closed = 1;
nodes = (
"216 1122 LINE",
"166 1122 LINE",
"181 1389 LINE",
"181 1560 LINE",
"236 1560 LINE",
"236 1391 LINE"
);
}
);
width = 421;
},
{
layerId = "ED9AC664-5073-455E-9B15-F6014C59BAEB";
paths = (
{
closed = 1;
nodes = (
"268 1008 LINE",
"139 1008 LINE",
"139 1323 LINE",
"139 1560 LINE",
"338 1560 LINE",
"338 1291 LINE"
);
}
);
width = 449;
},
{
layerId = "B06AEEA2-953E-4FA5-BFB1-0445B6E4B274";
paths = (
{
closed = 1;
nodes = (
"263 1055 LINE",
"166 1055 LINE",
"166 1356 LINE",
"166 1560 LINE",
"324 1560 LINE",
"324 1337 LINE"
);
}
);
width = 460;
},
{
layerId = "55372407-EEEC-4390-8B77-FB5958F23D2B";
paths = (
{
closed = 1;
nodes = (
"271 979 LINE",
"122 979 LINE",
"122 1303 LINE",
"122 1560 LINE",
"347 1560 LINE",
"347 1262 LINE"
);
}
);
width = 442;
}
);
leftKerningGroup = minute;
rightKerningGroup = minute;
unicode = 0027;
},
{
glyphname = parenleft;
lastChange = "2018-07-15 19:02:34 +0000";
layers = (
{
layerId = "0331963E-C1C8-4E93-A463-84B984C1D75E";
paths = (
{
closed = 1;
nodes = (
"114 1036.667 OFFCURVE",
"298.333 1478.667 OFFCURVE",
"525 1616 CURVE",
"531 1616 LINE",
"547 1580 LINE",
"343 1445.333 OFFCURVE",
"168 1011.333 OFFCURVE",
"168 590 CURVE SMOOTH",
"168 564 LINE SMOOTH",
"168 141.333 OFFCURVE",
"343 -292.333 OFFCURVE",
"547 -427 CURVE",
"531 -463 LINE",
"525 -463 LINE",
"295.667 -323 OFFCURVE",
"114 95.333 OFFCURVE",
"114 566 CURVE SMOOTH",
"114 586 LINE SMOOTH"
);
}
);
width = 615;
},
{
layerId = "ED9AC664-5073-455E-9B15-F6014C59BAEB";
paths = (
{
closed = 1;
nodes = (
"89 1114.667 OFFCURVE",
"329 1504 OFFCURVE",
"585 1612 CURVE",
"591 1612 LINE",
"644 1466 LINE",
"469.333 1335.333 OFFCURVE",
"335 1044.667 OFFCURVE",
"335 594 CURVE SMOOTH",
"335 568 LINE SMOOTH",
"335 116 OFFCURVE",
"469.333 -172.333 OFFCURVE",
"644 -307 CURVE",
"591 -450 LINE",
"585 -450 LINE",
"329 -342 OFFCURVE",
"89 46 OFFCURVE",
"89 570 CURVE SMOOTH",
"89 592 LINE SMOOTH"
);
}
);
width = 685;
},
{
layerId = "B06AEEA2-953E-4FA5-BFB1-0445B6E4B274";
paths = (
{
closed = 1;
nodes = (
"114 1116.333 OFFCURVE",
"373.667 1512 OFFCURVE",
"607 1636 CURVE",
"613 1635 LINE",
"650 1519 LINE",
"467.333 1376.333 OFFCURVE",
"311 1055.667 OFFCURVE",
"311 593 CURVE SMOOTH",
"311 580 LINE SMOOTH",
"311 116 OFFCURVE",
"466 -200.333 OFFCURVE",
"650 -355 CURVE",
"613 -463 LINE",
"607 -463 LINE",
"373.667 -339 OFFCURVE",
"114 55.333 OFFCURVE",
"114 582 CURVE SMOOTH",
"114 591 LINE SMOOTH"
);
}
);
width = 662;
},
{
layerId = "55372407-EEEC-4390-8B77-FB5958F23D2B";
paths = (
{
closed = 1;
nodes = (
"73 1114 OFFCURVE",
"301 1499 OFFCURVE",
"571 1597 CURVE",
"577 1598 LINE",
"640 1433 LINE",
"471 1310 OFFCURVE",
"350 1038 OFFCURVE",
"350 595 CURVE SMOOTH",
"350 561 LINE SMOOTH",
"350 116 OFFCURVE",
"471 -155 OFFCURVE",
"640 -277 CURVE",
"577 -442 LINE",
"571 -442 LINE",
"301 -344 OFFCURVE",
"73 40 OFFCURVE",
"73 563 CURVE SMOOTH",
"73 593 LINE SMOOTH"
);
}
);
width = 699;
}
);
unicode = 0028;
},
{
glyphname = parenright;
lastChange = "2018-07-15 19:02:34 +0000";
layers = (
{
layerId = "0331963E-C1C8-4E93-A463-84B984C1D75E";
paths = (
{
closed = 1;
nodes = (
"444 95.333 OFFCURVE",
"261 -323 OFFCURVE",
"33 -463 CURVE",
"27 -463 LINE",
"11 -427 LINE",
"213.667 -292.333 OFFCURVE",
"390 141.333 OFFCURVE",
"390 564 CURVE SMOOTH",
"390 590 LINE SMOOTH",
"390 1011.333 OFFCURVE",
"213.667 1445.333 OFFCURVE",
"11 1580 CURVE",
"27 1616 LINE",
"33 1616 LINE",
"258.333 1478.667 OFFCURVE",
"444 1036.667 OFFCURVE",
"444 586 CURVE SMOOTH",
"444 566 LINE SMOOTH"
);
}
);
width = 608;
},
{
layerId = "ED9AC664-5073-455E-9B15-F6014C59BAEB";
paths = (
{
closed = 1;
nodes = (
"631 59.333 OFFCURVE",
"379.667 -343.333 OFFCURVE",
"121 -450 CURVE",
"115 -450 LINE",
"61 -307 LINE",
"233 -176.333 OFFCURVE",
"370 116 OFFCURVE",
"370 568 CURVE SMOOTH",
"370 594 LINE SMOOTH",
"370 1042 OFFCURVE",
"230.333 1338 OFFCURVE",
"61 1470 CURVE",
"115 1612 LINE",
"121 1612 LINE",
"379.667 1505.333 OFFCURVE",
"631 1101.333 OFFCURVE",
"631 592 CURVE SMOOTH",
"631 570 LINE SMOOTH"
);
}
);
width = 712;
},
{
layerId = "B06AEEA2-953E-4FA5-BFB1-0445B6E4B274";
paths = (
{
closed = 1;
nodes = (
"547 55.333 OFFCURVE",
"286 -339 OFFCURVE",
"54 -463 CURVE",
"48 -463 LINE",
"11 -355 LINE",
"191 -215 OFFCURVE",
"350 114.667 OFFCURVE",
"350 580 CURVE SMOOTH",
"350 593 LINE SMOOTH",
"350 1050.333 OFFCURVE",
"183 1381.333 OFFCURVE",
"11 1528 CURVE",
"48 1636 LINE",
"54 1636 LINE",
"286 1512 OFFCURVE",
"547 1116.333 OFFCURVE",
"547 591 CURVE SMOOTH",
"547 582 LINE SMOOTH"
);
}
);
width = 654;
},
{
layerId = "55372407-EEEC-4390-8B77-FB5958F23D2B";
paths = (
{
closed = 1;
nodes = (
"683 62 OFFCURVE",
"438 -346 OFFCURVE",
"163 -442 CURVE",
"157 -442 LINE",
"92 -277 LINE",
"259 -152 OFFCURVE",
"382 117 OFFCURVE",
"382 561 CURVE SMOOTH",
"382 595 LINE SMOOTH",
"382 1037 OFFCURVE",
"260 1311 OFFCURVE",
"92 1434 CURVE",
"157 1597 LINE",
"163 1597 LINE",
"438 1501 OFFCURVE",
"683 1092 OFFCURVE",
"683 593 CURVE SMOOTH",
"683 563 LINE SMOOTH"
);
}
);
width = 748;
}
);
unicode = 0029;
},
{
glyphname = asterisk;
lastChange = "2018-07-15 19:02:34 +0000";
layers = (
{
layerId = "0331963E-C1C8-4E93-A463-84B984C1D75E";
paths = (
{
closed = 1;
nodes = (
"66 1141 LINE",
"84 1195 LINE",
"446 1062 LINE",
"447 1456 LINE",
"503 1456 LINE",
"496 1061 LINE",
"848 1204 LINE",
"868 1151 LINE",
"508 1014 LINE",
"757 697 LINE",
"710 664 LINE",
"468 986 LINE",
"240 661 LINE",
"195 693 LINE",
"429 1017 LINE"
);
}
);
width = 948;
},
{
layerId = "ED9AC664-5073-455E-9B15-F6014C59BAEB";
paths = (
{
closed = 1;
nodes = (
"34 1055 LINE",
"91 1232 LINE",
"388 1109 LINE",
"370 1456 LINE",
"558 1456 LINE",
"538 1103 LINE",
"829 1223 LINE",
"885 1043 LINE",
"579 954 LINE",
"779 689 LINE",
"628 579 LINE",
"453 869 LINE",
"280 588 LINE",
"128 694 LINE",
"336 966 LINE"
);
}
);
width = 914;
},
{
layerId = "B06AEEA2-953E-4FA5-BFB1-0445B6E4B274";
paths = (
{
closed = 1;
nodes = (
"66 1071 LINE",
"115 1225 LINE",
"411 1114 LINE",
"401 1456 LINE",
"562 1456 LINE",
"552 1108 LINE",
"845 1218 LINE",
"893 1062 LINE",
"591 973 LINE",
"784 703 LINE",
"653 607 LINE",
"472 894 LINE",
"296 615 LINE",
"164 708 LINE",
"362 982 LINE"
);
}
);
width = 958;
},
{
layerId = "55372407-EEEC-4390-8B77-FB5958F23D2B";
paths = (
{
closed = 1;
nodes = (
"14 1045 LINE",
"76 1236 LINE",
"374 1106 LINE",
"351 1456 LINE",
"556 1456 LINE",
"529 1100 LINE",
"819 1226 LINE",
"880 1031 LINE",
"572 942 LINE",
"776 680 LINE",
"612 562 LINE",
"441 853 LINE",
"270 571 LINE",
"106 685 LINE",
"320 956 LINE"
);
}
);
width = 887;
}
);
unicode = 002A;
},
{
glyphname = plus;
lastChange = "2018-07-15 19:02:34 +0000";
layers = (
{
layerId = "0331963E-C1C8-4E93-A463-84B984C1D75E";
paths = (
{
closed = 1;
nodes = (
"1071 702 LINE",
"1071 649 LINE",
"590 649 LINE",
"590 146 LINE",
"535 146 LINE",
"535 649 LINE",
"73 649 LINE",
"73 702 LINE",
"535 702 LINE",
"535 1206 LINE",
"590 1206 LINE",
"590 702 LINE"
);
}
);
width = 1145;
},
{
layerId = "ED9AC664-5073-455E-9B15-F6014C59BAEB";
paths = (
{
closed = 1;
nodes = (
"1047 812 LINE",
"1047 560 LINE",
"688 560 LINE",
"688 146 LINE",
"411 146 LINE",
"411 560 LINE",
"49 560 LINE",
"49 812 LINE",
"411 812 LINE",
"411 1206 LINE",
"688 1206 LINE",
"688 812 LINE"
);
}
);
width = 1098;
},
{
layerId = "B06AEEA2-953E-4FA5-BFB1-0445B6E4B274";
paths = (
{
closed = 1;
nodes = (
"1071 783 LINE",
"1071 605 LINE",
"671 605 LINE",
"671 146 LINE",
"474 146 LINE",
"474 605 LINE",
"73 605 LINE",
"73 783 LINE",
"474 783 LINE",
"474 1206 LINE",
"671 1206 LINE",
"671 783 LINE"
);
}
);
width = 1145;
},
{
layerId = "55372407-EEEC-4390-8B77-FB5958F23D2B";
paths = (
{
closed = 1;
nodes = (
"1032 830 LINE",
"1032 532 LINE",
"699 532 LINE",
"699 146 LINE",
"372 146 LINE",
"372 532 LINE",
"34 532 LINE",
"34 830 LINE",
"372 830 LINE",
"372 1206 LINE",
"699 1206 LINE",
"699 830 LINE"
);
}
);
width = 1069;
}
);
unicode = 002B;
},
{
glyphname = comma;
lastChange = "2018-07-15 19:02:34 +0000";
layers = (
{
layerId = "0331963E-C1C8-4E93-A463-84B984C1D75E";
paths = (
{
closed = 1;
nodes = (
"235 -90.333 OFFCURVE",
"195.667 -183 OFFCURVE",
"129 -255 CURVE",
"92 -223 LINE",
"153.333 -141.667 OFFCURVE",
"181 -73.667 OFFCURVE",
"181 25 CURVE SMOOTH",
"181 159 LINE",
"235 159 LINE",
"235 27 LINE SMOOTH"
);
}
);
width = 383;
},
{
layerId = "ED9AC664-5073-455E-9B15-F6014C59BAEB";
paths = (
{
closed = 1;
nodes = (
"400 -97 OFFCURVE",
"312.667 -266.667 OFFCURVE",
"202 -364 CURVE",
"58 -286 LINE",
"110 -192.667 OFFCURVE",
"139 -97.667 OFFCURVE",
"139 25 CURVE SMOOTH",
"139 243 LINE",
"401 243 LINE",
"400 39 LINE"
);
}
);
width = 503;
},
{
layerId = "B06AEEA2-953E-4FA5-BFB1-0445B6E4B274";
paths = (
{
closed = 1;
nodes = (
"315 -58.667 OFFCURVE",
"244.667 -216.333 OFFCURVE",
"134 -311 CURVE",
"23 -237 LINE",
"85.667 -141 OFFCURVE",
"118 -43 OFFCURVE",
"118 69 CURVE SMOOTH",
"118 221 LINE",
"315 221 LINE",
"315 72 LINE SMOOTH"
);
}
);
width = 404;
},
{
layerId = "55372407-EEEC-4390-8B77-FB5958F23D2B";
paths = (
{
closed = 1;
nodes = (
"453 -121 OFFCURVE",
"355 -298 OFFCURVE",
"244 -397 CURVE",
"80 -316 LINE",
"125 -225 OFFCURVE",
"152 -132 OFFCURVE",
"152 -2 CURVE SMOOTH",
"152 257 LINE",
"454 257 LINE",
"453 19 LINE"
);
}
);
width = 564;
}
);
leftKerningGroup = comma;
rightKerningGroup = comma;
unicode = 002C;
},
{
glyphname = hyphen;
lastChange = "2018-07-15 19:02:34 +0000";
layers = (
{
layerId = "0331963E-C1C8-4E93-A463-84B984C1D75E";
paths = (
{
closed = 1;
nodes = (
"154 599 LINE",
"154 653 LINE",
"624 653 LINE",
"624 599 LINE"
);
}
);
width = 789;
},
{
layerId = "ED9AC664-5073-455E-9B15-F6014C59BAEB";
paths = (
{
closed = 1;
nodes = (
"131 510 LINE",
"131 735 LINE",
"695 735 LINE",
"695 510 LINE"
);
}
);
width = 815;
},
{
layerId = "B06AEEA2-953E-4FA5-BFB1-0445B6E4B274";
paths = (
{
closed = 1;
nodes = (
"154 538 LINE",
"154 692 LINE",
"643 692 LINE",
"643 538 LINE"
);
}
);
width = 797;
},
{
layerId = "55372407-EEEC-4390-8B77-FB5958F23D2B";
paths = (
{
closed = 1;
nodes = (
"117 493 LINE",
"117 762 LINE",
"727 762 LINE",
"727 493 LINE"
);
}
);
width = 826;
}
);
leftKerningGroup = emdash;
unicode = 002D;
},
{
glyphname = period;
lastChange = "2018-07-15 19:02:34 +0000";
layers = (
{
layerId = "0331963E-C1C8-4E93-A463-84B984C1D75E";
paths = (
{
closed = 1;
nodes = (
"145 0 LINE",
"145 130 LINE",
"231 130 LINE",
"231 0 LINE"
);
}
);
width = 444;
},
{
layerId = "ED9AC664-5073-455E-9B15-F6014C59BAEB";
paths = (
{
closed = 1;
nodes = (
"129 0 LINE",
"129 256 LINE",
"420 256 LINE",
"420 0 LINE"
);
}
);
width = 522;
},
{
layerId = "B06AEEA2-953E-4FA5-BFB1-0445B6E4B274";
paths = (
{
closed = 1;
nodes = (
"145 0 LINE",
"145 202 LINE",
"342 202 LINE",
"342 0 LINE"
);
}
);
width = 493;
},
{
layerId = "55372407-EEEC-4390-8B77-FB5958F23D2B";
paths = (
{
closed = 1;
nodes = (
"119 0 LINE",
"119 290 LINE",
"468 290 LINE",
"468 0 LINE"
);
}
);
width = 540;
}
);
leftKerningGroup = comma;
rightKerningGroup = comma;
unicode = 002E;
userData = {
com.typemytype.robofont.mark = (
1,
0.1703,
0.1669,
0.8287
);
};
},
{
glyphname = slash;
lastChange = "2018-07-15 19:02:34 +0000";
layers = (
{
layerId = "0331963E-C1C8-4E93-A463-84B984C1D75E";
paths = (
{
closed = 1;
nodes = (
"0 -125 LINE",
"608 1456 LINE",
"667 1456 LINE",
"59 -125 LINE"
);
}
);
width = 776;
},
{
layerId = "ED9AC664-5073-455E-9B15-F6014C59BAEB";
paths = (
{
closed = 1;
nodes = (
"-23 -125 LINE",
"511 1456 LINE",
"727 1456 LINE",
"193 -125 LINE"
);
}
);
width = 748;
},
{
layerId = "B06AEEA2-953E-4FA5-BFB1-0445B6E4B274";
paths = (
{
closed = 1;
nodes = (
"0 -125 LINE",
"608 1456 LINE",
"774 1456 LINE",
"167 -125 LINE"
);
}
);
width = 824;
},
{
layerId = "55372407-EEEC-4390-8B77-FB5958F23D2B";
paths = (
{
closed = 1;
nodes = (
"-37 -125 LINE",
"451 1456 LINE",
"698 1456 LINE",
"209 -125 LINE"
);
}
);
width = 701;
}
);
unicode = 002F;
},
{
glyphname = zero;
lastChange = "2018-07-15 19:02:34 +0000";
layers = (
{
layerId = "0331963E-C1C8-4E93-A463-84B984C1D75E";
paths = (
{
closed = 1;
nodes = (
"1008 194 OFFCURVE",
"847.333 -21 OFFCURVE",
"566 -21 CURVE SMOOTH",
"284.667 -21 OFFCURVE",
"121 195.333 OFFCURVE",
"121 574 CURVE SMOOTH",
"121 882 LINE SMOOTH",
"121 1260.667 OFFCURVE",
"282.667 1477 OFFCURVE",
"564 1477 CURVE SMOOTH",
"845.333 1477 OFFCURVE",
"1008 1260.667 OFFCURVE",
"1008 882 CURVE SMOOTH",
"1008 574 LINE SMOOTH"
);
},
{
closed = 1;
nodes = (
"954 1220.667 OFFCURVE",
"817.333 1423 OFFCURVE",
"564 1423 CURVE SMOOTH",
"310.667 1423 OFFCURVE",
"175 1220.667 OFFCURVE",
"175 882 CURVE SMOOTH",
"175 576 LINE SMOOTH",
"175 240 OFFCURVE",
"312.667 33 OFFCURVE",
"566 33 CURVE SMOOTH",
"818 33 OFFCURVE",
"954 238.667 OFFCURVE",
"954 576 CURVE SMOOTH",
"954 882 LINE SMOOTH"
);
}
);
width = 1150;
},
{
layerId = "ED9AC664-5073-455E-9B15-F6014C59BAEB";
paths = (
{
closed = 1;
nodes = (
"1082 181.667 OFFCURVE",
"892.333 -21 OFFCURVE",
"591 -21 CURVE SMOOTH",
"287 -21 OFFCURVE",
"97 181.667 OFFCURVE",
"97 567 CURVE SMOOTH",
"97 888 LINE SMOOTH",
"97 1272 OFFCURVE",
"286.333 1477 OFFCURVE",
"589 1477 CURVE SMOOTH",
"890.333 1477 OFFCURVE",
"1082 1272 OFFCURVE",
"1082 888 CURVE SMOOTH",
"1082 567 LINE SMOOTH"
);
},
{
closed = 1;
nodes = (
"791 1148.667 OFFCURVE",
"719.667 1252 OFFCURVE",
"589 1252 CURVE SMOOTH",
"457 1252 OFFCURVE",
"388 1150 OFFCURVE",
"388 918 CURVE SMOOTH",
"388 539 LINE SMOOTH",
"388 304.333 OFFCURVE",
"457.667 203 OFFCURVE",
"591 203 CURVE SMOOTH",
"721.667 203 OFFCURVE",
"791 304.333 OFFCURVE",
"791 539 CURVE SMOOTH",
"791 918 LINE SMOOTH"
);
}
);
width = 1170;
},
{
layerId = "B06AEEA2-953E-4FA5-BFB1-0445B6E4B274";
paths = (
{
closed = 1;
nodes = (
"1048 183 OFFCURVE",
"871.667 -21 OFFCURVE",
"585 -21 CURVE SMOOTH",
"299.667 -21 OFFCURVE",
"121 184.333 OFFCURVE",
"121 555 CURVE SMOOTH",
"121 900 LINE SMOOTH",
"121 1270.667 OFFCURVE",
"297.667 1477 OFFCURVE",
"583 1477 CURVE SMOOTH",
"869.667 1477 OFFCURVE",
"1048 1270.667 OFFCURVE",
"1048 900 CURVE SMOOTH",
"1048 555 LINE SMOOTH"
);
},
{
closed = 1;
nodes = (
"851 1194 OFFCURVE",
"757.667 1322 OFFCURVE",
"583 1322 CURVE SMOOTH",
"411 1322 OFFCURVE",
"318 1194 OFFCURVE",
"318 942 CURVE SMOOTH",
"318 515 LINE SMOOTH",
"318 263 OFFCURVE",
"413 133 OFFCURVE",
"585 133 CURVE SMOOTH",
"759.667 133 OFFCURVE",
"851 261.667 OFFCURVE",
"851 515 CURVE SMOOTH",
"851 942 LINE SMOOTH"
);
}
);
width = 1168;
},
{
layerId = "55372407-EEEC-4390-8B77-FB5958F23D2B";
paths = (
{
closed = 1;
nodes = (
"1103 181 OFFCURVE",
"905 -21 OFFCURVE",
"595 -21 CURVE SMOOTH",
"279 -21 OFFCURVE",
"82 180 OFFCURVE",
"82 574 CURVE SMOOTH",
"82 881 LINE SMOOTH",
"82 1273 OFFCURVE",
"279 1477 OFFCURVE",
"593 1477 CURVE SMOOTH",
"903 1477 OFFCURVE",
"1103 1273 OFFCURVE",
"1103 881 CURVE SMOOTH",
"1103 574 LINE SMOOTH"
);
},
{
closed = 1;
nodes = (
"754 1121 OFFCURVE",
"696 1209 OFFCURVE",
"593 1209 CURVE SMOOTH",
"486 1209 OFFCURVE",
"431 1123 OFFCURVE",
"431 903 CURVE SMOOTH",
"431 554 LINE SMOOTH",
"431 330 OFFCURVE",
"485 246 OFFCURVE",
"595 246 CURVE SMOOTH",
"698 246 OFFCURVE",
"754 331 OFFCURVE",
"754 554 CURVE SMOOTH",
"754 903 LINE SMOOTH"
);
}
);
width = 1171;
}
);
unicode = 0030;
},
{
color = 3;
glyphname = one;
lastChange = "2018-07-15 20:45:56 +0000";
layers = (
{
layerId = "0331963E-C1C8-4E93-A463-84B984C1D75E";
paths = (
{
closed = 1;
nodes = (
"401 54 LINE",
"401 1406 LINE",
"63 1330 LINE",
"63 1380 LINE",
"455 1464 LINE",
"455 54 LINE",
"748 54 LINE",
"748 0 LINE",
"108 0 LINE",
"108 54 LINE"
);
}
);
width = 821;
},
{
layerId = "ED9AC664-5073-455E-9B15-F6014C59BAEB";
paths = (
{
closed = 1;
nodes = (
"311 205 LINE",
"311 1191 LINE",
"62 1191 LINE",
"62 1358 LINE",
"602 1456 LINE",
"602 205 LINE",
"848 175 LINE",
"848 0 LINE",
"65 0 LINE",
"65 175 LINE"
);
}
);
width = 905;
},
{
layerId = "B06AEEA2-953E-4FA5-BFB1-0445B6E4B274";
paths = (
{
closed = 1;
nodes = (
"346 154 LINE",
"346 1245 LINE",
"117 1241 LINE",
"117 1364 LINE",
"543 1456 LINE",
"543 154 LINE",
"767 126 LINE",
"767 0 LINE",
"121 0 LINE",
"121 126 LINE"
);
}
);
width = 844;
},
{
layerId = "55372407-EEEC-4390-8B77-FB5958F23D2B";
paths = (
{
closed = 1;
nodes = (
"289 237 LINE",
"289 1157 LINE",
"28 1160 LINE",
"28 1354 LINE",
"639 1456 LINE",
"639 237 LINE",
"898 205 LINE",
"898 0 LINE",
"30 0 LINE",
"30 205 LINE"
);
}
);
width = 943;
}
);
unicode = 0031;
},
{
glyphname = two;
lastChange = "2018-07-15 19:02:34 +0000";
layers = (
{
layerId = "0331963E-C1C8-4E93-A463-84B984C1D75E";
paths = (
{
closed = 1;
nodes = (
"106 54 LINE",
"583 604 LINE SMOOTH",
"764.333 813.333 OFFCURVE",
"844 956.667 OFFCURVE",
"844 1086 CURVE SMOOTH",
"844 1298 OFFCURVE",
"724.333 1423 OFFCURVE",
"499 1423 CURVE SMOOTH",
"260.333 1423 OFFCURVE",
"124 1268.667 OFFCURVE",
"124 1046 CURVE",
"78 1046 LINE",
"76 1052 LINE",
"69.333 1288 OFFCURVE",
"239 1477 OFFCURVE",
"499 1477 CURVE SMOOTH",
"740.333 1477 OFFCURVE",
"899 1334 OFFCURVE",
"899 1086 CURVE SMOOTH",
"899 924.667 OFFCURVE",
"789.667 768.667 OFFCURVE",
"599 546 CURVE SMOOTH",
"182 59 LINE",
"184 54 LINE",
"923 54 LINE",
"923 293 LINE",
"977 293 LINE",
"977 0 LINE",
"106 0 LINE"
);
}
);
width = 1104;
},
{
layerId = "ED9AC664-5073-455E-9B15-F6014C59BAEB";
paths = (
{
closed = 1;
nodes = (
"73 191 LINE",
"544 696 LINE SMOOTH",
"680 852 OFFCURVE",
"732 951 OFFCURVE",
"732 1043 CURVE SMOOTH",
"732 1165.667 OFFCURVE",
"663.333 1252 OFFCURVE",
"542 1252 CURVE SMOOTH",
"407.333 1252 OFFCURVE",
"336 1153 OFFCURVE",
"336 1001 CURVE",
"52 1001 LINE",
"50 1007 LINE",
"43.333 1269.667 OFFCURVE",
"238 1477 OFFCURVE",
"542 1477 CURVE SMOOTH",
"842 1477 OFFCURVE",
"1025 1308 OFFCURVE",
"1025 1048 CURVE SMOOTH",
"1025 872 OFFCURVE",
"936 752 OFFCURVE",
"712 512 CURVE SMOOTH",
"453 229 LINE",
"455 224 LINE",
"833 224 LINE",
"845 368 LINE",
"1067 368 LINE",
"1067 0 LINE",
"73 0 LINE"
);
}
);
width = 1132;
},
{
layerId = "B06AEEA2-953E-4FA5-BFB1-0445B6E4B274";
paths = (
{
closed = 1;
nodes = (
"97 135 LINE",
"574 665 LINE SMOOTH",
"744.667 855.667 OFFCURVE",
"793 946.667 OFFCURVE",
"793 1064 CURVE SMOOTH",
"793 1209.333 OFFCURVE",
"700 1322 OFFCURVE",
"560 1322 CURVE SMOOTH",
"358.667 1322 OFFCURVE",
"267 1215 OFFCURVE",
"267 1027 CURVE",
"78 1027 LINE",
"76 1033 LINE",
"69.333 1283.667 OFFCURVE",
"253.333 1477 OFFCURVE",
"560 1477 CURVE SMOOTH",
"822.667 1477 OFFCURVE",
"990 1307 OFFCURVE",
"990 1071 CURVE SMOOTH",
"990 912.333 OFFCURVE",
"891.667 760 OFFCURVE",
"721 576 CURVE SMOOTH",
"338 159 LINE",
"340 154 LINE",
"857 154 LINE",
"873 321 LINE",
"1040 321 LINE",
"1040 0 LINE",
"97 0 LINE"
);
}
);
width = 1131;
},
{
layerId = "55372407-EEEC-4390-8B77-FB5958F23D2B";
paths = (
{
closed = 1;
nodes = (
"58 226 LINE",
"525 715 LINE SMOOTH",
"640 850 OFFCURVE",
"694 954 OFFCURVE",
"694 1030 CURVE SMOOTH",
"694 1139 OFFCURVE",
"641 1209 OFFCURVE",
"531 1209 CURVE SMOOTH",
"438 1209 OFFCURVE",
"379 1114 OFFCURVE",
"379 985 CURVE",
"36 985 LINE",
"34 991 LINE",
"27 1261 OFFCURVE",
"228 1477 OFFCURVE",
"531 1477 CURVE SMOOTH",
"854.007 1477 OFFCURVE",
"1047 1309 OFFCURVE",
"1047 1034 CURVE SMOOTH",
"1047 847 OFFCURVE",
"964 747 OFFCURVE",
"706 472 CURVE SMOOTH",
"524 272 LINE",
"526 267 LINE",
"818 267 LINE",
"828 397 LINE",
"1084 397 LINE",
"1084 0 LINE",
"58 0 LINE"
);
}
);
width = 1133;
}
);
unicode = 0032;
},
{
glyphname = three;
lastChange = "2018-07-15 19:02:34 +0000";
layers = (
{
layerId = "0331963E-C1C8-4E93-A463-84B984C1D75E";
paths = (
{
closed = 1;
nodes = (
"494 771 LINE SMOOTH",
"738 771 OFFCURVE",
"887 908.667 OFFCURVE",
"887 1086 CURVE SMOOTH",
"887 1282 OFFCURVE",
"764.667 1423 OFFCURVE",
"530 1423 CURVE SMOOTH",
"314 1423 OFFCURVE",
"154 1285.667 OFFCURVE",
"154 1075 CURVE",
"108 1075 LINE",
"106 1081 LINE",
"99.333 1317 OFFCURVE",
"287.333 1477 OFFCURVE",
"530 1477 CURVE SMOOTH",
"780.667 1477 OFFCURVE",
"941 1324.667 OFFCURVE",
"941 1082 CURVE SMOOTH",
"941 928.667 OFFCURVE",
"837 798.333 OFFCURVE",
"673 745 CURVE",
"862.333 698.333 OFFCURVE",
"973 572.667 OFFCURVE",
"973 386 CURVE SMOOTH",
"973 132.667 OFFCURVE",
"795 -21 OFFCURVE",
"539 -21 CURVE SMOOTH",
"292.333 -21 OFFCURVE",
"68.333 131 OFFCURVE",
"75 399 CURVE",
"77 405 LINE",
"123 405 LINE",
"123 189 OFFCURVE",
"300.333 33 OFFCURVE",
"539 33 CURVE SMOOTH",
"779 33 OFFCURVE",
"919 163.333 OFFCURVE",
"919 382 CURVE SMOOTH",
"919 608.667 OFFCURVE",
"755.333 715 OFFCURVE",
"494 715 CURVE SMOOTH",
"383 715 LINE",
"383 771 LINE"
);
}
);
width = 1098;
},
{
layerId = "ED9AC664-5073-455E-9B15-F6014C59BAEB";
paths = (
{
closed = 1;
nodes = (
"545 852 LINE SMOOTH",
"683.667 852 OFFCURVE",
"749 928.667 OFFCURVE",
"749 1058 CURVE SMOOTH",
"749 1175.333 OFFCURVE",
"680.667 1252 OFFCURVE",
"554 1252 CURVE SMOOTH",
"444.667 1252 OFFCURVE",
"360 1182 OFFCURVE",
"360 1078 CURVE",
"77 1078 LINE",
"75 1084 LINE",
"67 1312 OFFCURVE",
"275.333 1477 OFFCURVE",
"546 1477 CURVE SMOOTH",
"847.333 1477 OFFCURVE",
"1041 1327.667 OFFCURVE",
"1041 1061 CURVE SMOOTH",
"1041 934.333 OFFCURVE",
"956 811 OFFCURVE",
"816 747 CURVE",
"977.333 689.667 OFFCURVE",
"1064 565.333 OFFCURVE",
"1064 408 CURVE SMOOTH",
"1064 141.333 OFFCURVE",
"848.667 -21 OFFCURVE",
"546 -21 CURVE SMOOTH",
"275.333 -21 OFFCURVE",
"50.333 128.667 OFFCURVE",
"57 390 CURVE",
"59 396 LINE",
"342 396 LINE",
"342 284 OFFCURVE",
"431.333 203 OFFCURVE",
"554 203 CURVE SMOOTH",
"688.667 203 OFFCURVE",
"772 283 OFFCURVE",
"772 411 CURVE SMOOTH",
"772 564.333 OFFCURVE",
"694.333 633 OFFCURVE",
"545 633 CURVE SMOOTH",
"381 633 LINE",
"381 852 LINE"
);
}
);
width = 1112;
},
{
layerId = "B06AEEA2-953E-4FA5-BFB1-0445B6E4B274";
paths = (
{
closed = 1;
nodes = (
"535 819 LINE SMOOTH",
"709.667 819 OFFCURVE",
"775 911 OFFCURVE",
"775 1067 CURVE SMOOTH",
"775 1233.667 OFFCURVE",
"691.333 1322 OFFCURVE",
"530 1322 CURVE SMOOTH",
"376.667 1322 OFFCURVE",
"276 1224.333 OFFCURVE",
"276 1075 CURVE",
"87 1075 LINE",
"85 1081 LINE",
"78.333 1301 OFFCURVE",
"262 1477 OFFCURVE",
"530 1477 CURVE SMOOTH",
"799.333 1477 OFFCURVE",
"972 1328.333 OFFCURVE",
"972 1063 CURVE SMOOTH",
"972 943 OFFCURVE",
"899.333 809.667 OFFCURVE",
"754 747 CURVE",
"928.667 689.667 OFFCURVE",
"994 558 OFFCURVE",
"994 406 CURVE SMOOTH",
"994 140.667 OFFCURVE",
"800.667 -21 OFFCURVE",
"530 -21 CURVE SMOOTH",
"263.333 -21 OFFCURVE",
"68.333 132.667 OFFCURVE",
"75 378 CURVE",
"78 384 LINE",
"266 384 LINE",
"266 230.667 OFFCURVE",
"366 133 OFFCURVE",
"530 133 CURVE SMOOTH",
"696.667 133 OFFCURVE",
"797 224.667 OFFCURVE",
"797 402 CURVE SMOOTH",
"797 582 OFFCURVE",
"716.333 665 OFFCURVE",
"535 665 CURVE SMOOTH",
"363 665 LINE",
"363 819 LINE"
);
}
);
width = 1106;
},
{
layerId = "55372407-EEEC-4390-8B77-FB5958F23D2B";
paths = (
{
closed = 1;
nodes = (
"551 872 LINE SMOOTH",
"668 872 OFFCURVE",
"733 940 OFFCURVE",
"733 1052 CURVE SMOOTH",
"733 1139 OFFCURVE",
"674 1209 OFFCURVE",
"569 1209 CURVE SMOOTH",
"487 1209 OFFCURVE",
"412 1156 OFFCURVE",
"412 1080 CURVE",
"71 1080 LINE",
"69 1086 LINE",
"60 1319 OFFCURVE",
"284 1477 OFFCURVE",
"556 1477 CURVE SMOOTH",
"877 1477 OFFCURVE",
"1084 1327 OFFCURVE",
"1084 1060 CURVE SMOOTH",
"1084 929 OFFCURVE",
"991 812 OFFCURVE",
"855 747 CURVE",
"1008 690 OFFCURVE",
"1107 570 OFFCURVE",
"1107 409 CURVE SMOOTH",
"1107 142 OFFCURVE",
"878 -21 OFFCURVE",
"556 -21 CURVE SMOOTH",
"283 -21 OFFCURVE",
"39 126 OFFCURVE",
"46 397 CURVE",
"47 403 LINE",
"389 403 LINE",
"389 317 OFFCURVE",
"472 246 OFFCURVE",
"569 246 CURVE SMOOTH",
"684 246 OFFCURVE",
"756 319 OFFCURVE",
"756 417 CURVE SMOOTH",
"756 553 OFFCURVE",
"681 613 OFFCURVE",
"551 613 CURVE SMOOTH",
"392 613 LINE",
"392 872 LINE"
);
}
);
width = 1116;
}
);
unicode = 0033;
},
{
glyphname = four;
lastChange = "2018-07-15 19:02:34 +0000";
layers = (
{
layerId = "0331963E-C1C8-4E93-A463-84B984C1D75E";
paths = (
{
closed = 1;
nodes = (
"1075 451 LINE",
"1075 397 LINE",
"823 397 LINE",
"823 54 LINE",
"986 54 LINE",
"986 0 LINE",
"606 0 LINE",
"606 54 LINE",
"769 54 LINE",
"769 397 LINE",
"63 397 LINE",
"63 427 LINE",
"758 1456 LINE",
"823 1456 LINE",
"823 451 LINE"
);
},
{
closed = 1;
nodes = (
"769 451 LINE",
"769 1380 LINE",
"763 1382 LINE",
"685 1253 LINE",
"147 451 LINE"
);
}
);
width = 1170;
},
{
layerId = "ED9AC664-5073-455E-9B15-F6014C59BAEB";
paths = (
{
closed = 1;
nodes = (
"1100 542 LINE",
"1100 348 LINE",
"935 348 LINE",
"935 205 LINE",
"1090 175 LINE",
"1090 0 LINE",
"488 0 LINE",
"488 175 LINE",
"644 205 LINE",
"644 348 LINE",
"50 348 LINE",
"36 491 LINE",
"641 1456 LINE",
"935 1456 LINE",
"935 542 LINE"
);
},
{
closed = 1;
nodes = (
"644 542 LINE",
"644 1067 LINE",
"638 1069 LINE",
"614 1027 LINE",
"309 542 LINE"
);
}
);
width = 1154;
},
{
layerId = "B06AEEA2-953E-4FA5-BFB1-0445B6E4B274";
paths = (
{
closed = 1;
nodes = (
"1114 490 LINE",
"1114 336 LINE",
"913 336 LINE",
"913 154 LINE",
"1076 126 LINE",
"1076 0 LINE",
"554 0 LINE",
"554 126 LINE",
"717 154 LINE",
"717 336 LINE",
"63 336 LINE",
"63 447 LINE",
"705 1456 LINE",
"913 1456 LINE",
"913 490 LINE"
);
},
{
closed = 1;
nodes = (
"717 490 LINE",
"717 1175 LINE",
"711 1177 LINE",
"691 1124 LINE",
"273 490 LINE"
);
}
);
width = 1187;
},
{
layerId = "55372407-EEEC-4390-8B77-FB5958F23D2B";
paths = (
{
closed = 1;
nodes = (
"1091 574 LINE",
"1091 355 LINE",
"949 355 LINE",
"949 237 LINE",
"1099 205 LINE",
"1099 0 LINE",
"447 0 LINE",
"447 205 LINE",
"599 237 LINE",
"599 355 LINE",
"42 355 LINE",
"19 518 LINE",
"601 1456 LINE",
"949 1456 LINE",
"949 574 LINE"
);
},
{
closed = 1;
nodes = (
"599 574 LINE",
"599 1000 LINE",
"593 1002 LINE",
"566 967 LINE",
"331 574 LINE"
);
}
);
width = 1134;
}
);
unicode = 0034;
},
{
glyphname = five;
lastChange = "2018-07-15 19:02:34 +0000";
layers = (
{
layerId = "0331963E-C1C8-4E93-A463-84B984C1D75E";
paths = (
{
closed = 1;
nodes = (
"834 1403 LINE",
"237 1403 LINE",
"176 785 LINE",
"260 869 OFFCURVE",
"339.667 910.667 OFFCURVE",
"533 916 CURVE SMOOTH",
"765 922.667 OFFCURVE",
"933 742.667 OFFCURVE",
"933 464 CURVE SMOOTH",
"933 166.667 OFFCURVE",
"796.333 -21 OFFCURVE",
"503 -21 CURVE SMOOTH",
"267 -21 OFFCURVE",
"90.333 114.333 OFFCURVE",
"97 377 CURVE",
"99 383 LINE",
"146 383 LINE",
"146 153.667 OFFCURVE",
"283 33 OFFCURVE",
"503 33 CURVE SMOOTH",
"761.667 33 OFFCURVE",
"878 175.333 OFFCURVE",
"878 462 CURVE SMOOTH",
"878 707.333 OFFCURVE",
"751.333 858 OFFCURVE",
"534 858 CURVE SMOOTH",
"320.667 858 OFFCURVE",
"204.333 786 OFFCURVE",
"151 646 CURVE",
"110 662 LINE",
"188 1456 LINE",
"888 1456 LINE",
"888 1265 LINE",
"834 1265 LINE"
);
}
);
width = 1061;
},
{
layerId = "ED9AC664-5073-455E-9B15-F6014C59BAEB";
paths = (
{
closed = 1;
nodes = (
"808 1222 LINE",
"416 1222 LINE",
"375 886 LINE",
"429.667 926 OFFCURVE",
"507 954.667 OFFCURVE",
"599 956 CURVE SMOOTH",
"879 960 OFFCURVE",
"1039 776.333 OFFCURVE",
"1039 467 CURVE SMOOTH",
"1039 187 OFFCURVE",
"865.333 -21 OFFCURVE",
"548 -21 CURVE SMOOTH",
"281.333 -21 OFFCURVE",
"60.333 134 OFFCURVE",
"67 390 CURVE",
"69 395 LINE",
"349 409 LINE",
"349 279.667 OFFCURVE",
"429.333 203 OFFCURVE",
"548 203 CURVE SMOOTH",
"684 203 OFFCURVE",
"748 310.333 OFFCURVE",
"748 465 CURVE SMOOTH",
"748 633 OFFCURVE",
"678.333 743 OFFCURVE",
"541 743 CURVE SMOOTH",
"430.333 743 OFFCURVE",
"375.333 698.667 OFFCURVE",
"350 628 CURVE",
"92 645 LINE",
"176 1456 LINE",
"1014 1456 LINE",
"1014 1124 LINE",
"834 1124 LINE"
);
}
);
width = 1092;
},
{
layerId = "B06AEEA2-953E-4FA5-BFB1-0445B6E4B274";
paths = (
{
closed = 1;
nodes = (
"800 1281 LINE",
"365 1281 LINE",
"318 872 LINE",
"378 917.333 OFFCURVE",
"451.333 950.333 OFFCURVE",
"550 953 CURVE SMOOTH",
"818 955.667 OFFCURVE",
"982 764 OFFCURVE",
"982 464 CURVE SMOOTH",
"982 172 OFFCURVE",
"822 -21 OFFCURVE",
"522 -21 CURVE SMOOTH",
"275.333 -21 OFFCURVE",
"90.333 115.667 OFFCURVE",
"97 377 CURVE",
"99 383 LINE",
"277 383 LINE",
"277 225.667 OFFCURVE",
"378 133 OFFCURVE",
"522 133 CURVE SMOOTH",
"688.667 133 OFFCURVE",
"785 258 OFFCURVE",
"785 462 CURVE SMOOTH",
"785 650 OFFCURVE",
"687 782 OFFCURVE",
"523 782 CURVE SMOOTH",
"368.333 782 OFFCURVE",
"310 736 OFFCURVE",
"278 640 CURVE",
"114 657 LINE",
"198 1456 LINE",
"967 1456 LINE",
"967 1168 LINE",
"819 1168 LINE"
);
}
);
width = 1081;
},
{
layerId = "55372407-EEEC-4390-8B77-FB5958F23D2B";
paths = (
{
closed = 1;
nodes = (
"813 1185 LINE",
"448 1185 LINE",
"410 895 LINE",
"462 931 OFFCURVE",
"542 957 OFFCURVE",
"629 958 CURVE SMOOTH",
"917 963 OFFCURVE",
"1074 784 OFFCURVE",
"1074 469 CURVE SMOOTH",
"1074 196 OFFCURVE",
"892 -21 OFFCURVE",
"564 -21 CURVE SMOOTH",
"285 -21 OFFCURVE",
"42 145 OFFCURVE",
"48 398 CURVE",
"50 402 LINE",
"394 425 LINE",
"394 313 OFFCURVE",
"461 246 OFFCURVE",
"564 246 CURVE SMOOTH",
"681 246 OFFCURVE",
"725 343 OFFCURVE",
"725 467 CURVE SMOOTH",
"725 622 OFFCURVE",
"673 719 OFFCURVE",
"552 719 CURVE SMOOTH",
"469 719 OFFCURVE",
"416 675 OFFCURVE",
"395 621 CURVE",
"78 638 LINE",
"162 1456 LINE",
"1043 1456 LINE",
"1043 1097 LINE",
"843 1097 LINE"
);
}
);
width = 1099;
}
);
unicode = 0035;
},
{
color = 3;
glyphname = six;
lastChange = "2018-07-15 20:45:56 +0000";
layers = (
{
layerId = "0331963E-C1C8-4E93-A463-84B984C1D75E";
paths = (
{
closed = 1;
nodes = (
"675.333 1477 OFFCURVE",
"773.667 1456.333 OFFCURVE",
"859 1407 CURVE",
"838 1356 LINE",
"750 1406.667 OFFCURVE",
"687.333 1423 OFFCURVE",
"574 1423 CURVE SMOOTH",
"340.667 1423 OFFCURVE",
"175 1245 OFFCURVE",
"175 881 CURVE SMOOTH",
"175 706 LINE",
"237.667 851.333 OFFCURVE",
"383.667 957 OFFCURVE",
"565 957 CURVE SMOOTH",
"827.667 957 OFFCURVE",
"986 760 OFFCURVE",
"986 460 CURVE SMOOTH",
"986 184 OFFCURVE",
"805.667 -21 OFFCURVE",
"555 -21 CURVE SMOOTH",
"297.667 -21 OFFCURVE",
"121 188 OFFCURVE",
"121 552 CURVE SMOOTH",
"121 880 LINE SMOOTH",
"121 1269.333 OFFCURVE",
"311.333 1477 OFFCURVE",
"574 1477 CURVE SMOOTH"
);
},
{
closed = 1;
nodes = (
"354 903 OFFCURVE",
"175 743 OFFCURVE",
"175 554 CURVE SMOOTH",
"175 551 LINE SMOOTH",
"175 221 OFFCURVE",
"325.667 32 OFFCURVE",
"555 32 CURVE SMOOTH",
"777.667 32 OFFCURVE",
"932 225.333 OFFCURVE",
"932 460 CURVE SMOOTH",
"932 729.333 OFFCURVE",
"800.667 903 OFFCURVE",
"558 903 CURVE SMOOTH"
);
}
);
width = 1107;
},
{
layerId = "ED9AC664-5073-455E-9B15-F6014C59BAEB";
paths = (
{
closed = 1;
nodes = (
"784.333 1477 OFFCURVE",
"872.667 1456 OFFCURVE",
"966 1416 CURVE",
"915 1203 LINE",
"831 1232.333 OFFCURVE",
"769 1248 OFFCURVE",
"677 1248 CURVE SMOOTH",
"503.667 1248 OFFCURVE",
"390.333 1119.667 OFFCURVE",
"389 873 CURVE",
"392 868 LINE",
"457.333 936 OFFCURVE",
"561 977 OFFCURVE",
"685 977 CURVE SMOOTH",
"945 977 OFFCURVE",
"1102 771.667 OFFCURVE",
"1102 485 CURVE SMOOTH",
"1102 191.667 OFFCURVE",
"900.333 -21 OFFCURVE",
"611 -21 CURVE SMOOTH",
"304.333 -21 OFFCURVE",
"91 199.667 OFFCURVE",
"91 569 CURVE SMOOTH",
"91 825 LINE SMOOTH",
"91 1237 OFFCURVE",
"332.333 1477 OFFCURVE",
"675 1477 CURVE SMOOTH"
);
},
{
closed = 1;
nodes = (
"500 756 OFFCURVE",
"423.333 719 OFFCURVE",
"382 659 CURVE",
"382 562 LINE SMOOTH",
"382 331.333 OFFCURVE",
"472.333 203 OFFCURVE",
"611 203 CURVE SMOOTH",
"731 203 OFFCURVE",
"810 329 OFFCURVE",
"810 485 CURVE SMOOTH",
"810 646.333 OFFCURVE",
"730.667 756 OFFCURVE",
"608 756 CURVE SMOOTH"
);
}
);
width = 1144;
},
{
layerId = "B06AEEA2-953E-4FA5-BFB1-0445B6E4B274";
paths = (
{
closed = 1;
nodes = (
"762.667 1477 OFFCURVE",
"869 1451.667 OFFCURVE",
"933 1417 CURVE",
"895 1270 LINE",
"832.333 1300.667 OFFCURVE",
"760 1322 OFFCURVE",
"664 1322 CURVE SMOOTH",
"460 1322 OFFCURVE",
"332 1168.667 OFFCURVE",
"324 858 CURVE",
"328 854 LINE",
"402.667 923.333 OFFCURVE",
"514.667 967 OFFCURVE",
"640 967 CURVE SMOOTH",
"900 967 OFFCURVE",
"1067 766 OFFCURVE",
"1067 490 CURVE SMOOTH",
"1067 188.667 OFFCURVE",
"888.667 -21 OFFCURVE",
"614 -21 CURVE SMOOTH",
"330 -21 OFFCURVE",
"121 194.333 OFFCURVE",
"121 573 CURVE SMOOTH",
"121 769 LINE SMOOTH",
"121 1230.333 OFFCURVE",
"345.333 1477 OFFCURVE",
"664 1477 CURVE SMOOTH"
);
},
{
closed = 1;
nodes = (
"462.333 820 OFFCURVE",
"366.333 761.667 OFFCURVE",
"317 671 CURVE",
"317 554 LINE SMOOTH",
"317 283.333 OFFCURVE",
"443.333 133 OFFCURVE",
"614 133 CURVE SMOOTH",
"775.333 133 OFFCURVE",
"870 287.333 OFFCURVE",
"870 490 CURVE SMOOTH",
"870 682 OFFCURVE",
"767.667 820 OFFCURVE",
"597 820 CURVE SMOOTH"
);
}
);
width = 1144;
},
{
layerId = "55372407-EEEC-4390-8B77-FB5958F23D2B";
paths = (
{
closed = 1;
nodes = (
"798 1477 OFFCURVE",
"875 1459 OFFCURVE",
"986 1415 CURVE",
"927 1161 LINE",
"830 1190 OFFCURVE",
"775 1202 OFFCURVE",
"685 1202 CURVE SMOOTH",
"531 1202 OFFCURVE",
"427 1089 OFFCURVE",
"429 882 CURVE",
"432 877 LINE",
"491 944 OFFCURVE",
"590 983 OFFCURVE",
"713 983 CURVE SMOOTH",
"973 983 OFFCURVE",
"1124 775 OFFCURVE",
"1124 482 CURVE SMOOTH",
"1124 194 OFFCURVE",
"908 -21 OFFCURVE",
"609 -21 CURVE SMOOTH",
"288 -21 OFFCURVE",
"72 203 OFFCURVE",
"72 567 CURVE SMOOTH",
"72 860 LINE SMOOTH",
"72 1241 OFFCURVE",
"324 1477 OFFCURVE",
"682 1477 CURVE SMOOTH"
);
},
{
closed = 1;
nodes = (
"523 716 OFFCURVE",
"459 693 OFFCURVE",
"422 652 CURVE",
"422 567 LINE SMOOTH",
"422 361 OFFCURVE",
"490 246 OFFCURVE",
"609 246 CURVE SMOOTH",
"703 246 OFFCURVE",
"773 355 OFFCURVE",
"773 482 CURVE SMOOTH",
"773 624 OFFCURVE",
"708 716 OFFCURVE",
"615 716 CURVE SMOOTH"
);
}
);
width = 1144;
}
);
unicode = 0036;
userData = {
com.typemytype.robofont.layerData = {
mask = {
anchors = (
);
components = (
);
contours = (
{
points = (
{
segmentType = curve;
smooth = 1;
x = 574;
y = 1477;
},
{
smooth = 0;
x = 675.33333;
y = 1477;
},
{
smooth = 0;
x = 773.66667;
y = 1456.33333;
},
{
segmentType = curve;
smooth = 0;
x = 859;
y = 1407;
},
{
segmentType = line;
smooth = 0;
x = 838;
y = 1356;
},
{
smooth = 0;
x = 750;
y = 1406.66667;
},
{
smooth = 0;
x = 687.33333;
y = 1423;
},
{
segmentType = curve;
smooth = 1;
x = 574;
y = 1423;
},
{
smooth = 0;
x = 340.66667;
y = 1423;
},
{
smooth = 0;
x = 175;
y = 1245;
},
{
segmentType = curve;
smooth = 1;
x = 175;
y = 881;
},
{
segmentType = line;
smooth = 0;
x = 175;
y = 706;
},
{
smooth = 0;
x = 237.66667;
y = 851.33333;
},
{
smooth = 0;
x = 383.66667;
y = 957;
},
{
segmentType = curve;
smooth = 1;
x = 565;
y = 957;
},
{
smooth = 0;
x = 827.66667;
y = 957;
},
{
smooth = 0;
x = 986;
y = 760;
},
{
segmentType = curve;
smooth = 1;
x = 986;
y = 460;
},
{
smooth = 0;
x = 986;
y = 184;
},
{
smooth = 0;
x = 805.66667;
y = -21;
},
{
segmentType = curve;
smooth = 1;
x = 555;
y = -21;
},
{
smooth = 0;
x = 297.66667;
y = -21;
},
{
smooth = 0;
x = 121;
y = 188;
},
{
segmentType = curve;
smooth = 1;
x = 121;
y = 552;
},
{
segmentType = line;
smooth = 1;
x = 121;
y = 880;
},
{
smooth = 0;
x = 121;
y = 1269.33333;
},
{
smooth = 0;
x = 311.33333;
y = 1477;
}
);
},
{
points = (
{
segmentType = line;
smooth = 0;
x = 175;
y = 556;
},
{
segmentType = line;
smooth = 1;
x = 175;
y = 553;
},
{
smooth = 0;
x = 175;
y = 222.33333;
},
{
smooth = 0;
x = 325.66667;
y = 32;
},
{
segmentType = curve;
smooth = 1;
x = 555;
y = 32;
},
{
smooth = 0;
x = 777.66667;
y = 32;
},
{
smooth = 0;
x = 932;
y = 225.33333;
},
{
segmentType = curve;
smooth = 1;
x = 932;
y = 460;
},
{
smooth = 0;
x = 932;
y = 729.33333;
},
{
smooth = 0;
x = 800.66667;
y = 903;
},
{
segmentType = curve;
smooth = 1;
x = 558;
y = 903;
},
{
smooth = 0;
x = 354;
y = 903;
},
{
smooth = 0;
x = 176;
y = 745.33333;
},
{
segmentType = curve;
smooth = 0;
x = 176;
y = 556;
}
);
}
);
lib = {
};
name = six;
unicodes = (
);
width = 1107;
};
};
};
},
{
color = 3;
glyphname = seven;
lastChange = "2018-07-15 20:45:24 +0000";
layers = (
{
layerId = "0331963E-C1C8-4E93-A463-84B984C1D75E";
paths = (
{
closed = 1;
nodes = (
"719.333 1068.667 OFFCURVE",
"505 651 OFFCURVE",
"445 91 CURVE SMOOTH",
"439 0 LINE",
"385 0 LINE",
"391 91 LINE SMOOTH",
"448.333 616.333 OFFCURVE",
"639.667 1046 OFFCURVE",
"941 1402 CURVE",
"130 1402 LINE",
"130 1163 LINE",
"76 1163 LINE",
"76 1456 LINE",
"1006 1456 LINE",
"1006 1402 LINE"
);
}
);
width = 1104;
},
{
layerId = "ED9AC664-5073-455E-9B15-F6014C59BAEB";
paths = (
{
closed = 1;
nodes = (
"766 865.667 OFFCURVE",
"685.333 594.667 OFFCURVE",
"636 148 CURVE SMOOTH",
"622 0 LINE",
"330 0 LINE",
"344 148 LINE SMOOTH",
"389.333 576 OFFCURVE",
"537 931 OFFCURVE",
"797 1231 CURVE",
"284 1231 LINE",
"273 1087 LINE",
"49 1087 LINE",
"49 1456 LINE",
"1078 1456 LINE",
"1078 1231 LINE"
);
}
);
width = 1107;
},
{
layerId = "B06AEEA2-953E-4FA5-BFB1-0445B6E4B274";
paths = (
{
closed = 1;
nodes = (
"708 882.333 OFFCURVE",
"624.667 617 OFFCURVE",
"570 157 CURVE SMOOTH",
"554 0 LINE",
"357 0 LINE",
"373 157 LINE SMOOTH",
"429 615.667 OFFCURVE",
"587 957 OFFCURVE",
"867 1301 CURVE",
"259 1301 LINE",
"244 1134 LINE",
"76 1134 LINE",
"76 1456 LINE",
"1060 1456 LINE",
"1060 1301 LINE"
);
}
);
width = 1128;
},
{
layerId = "55372407-EEEC-4390-8B77-FB5958F23D2B";
paths = (
{
closed = 1;
nodes = (
"802 855 OFFCURVE",
"723 581 OFFCURVE",
"677 142 CURVE SMOOTH",
"664 0 LINE",
"313 0 LINE",
"326 142 LINE SMOOTH",
"365 551 OFFCURVE",
"506 915 OFFCURVE",
"754 1188 CURVE",
"300 1188 LINE",
"291 1058 LINE",
"32 1058 LINE",
"32 1456 LINE",
"1089 1456 LINE",
"1089 1188 LINE"
);
}
);
width = 1094;
}
);
unicode = 0037;
},
{
glyphname = eight;
lastChange = "2018-07-15 19:02:34 +0000";
layers = (
{
layerId = "0331963E-C1C8-4E93-A463-84B984C1D75E";
paths = (
{
closed = 1;
nodes = (
"978 923.333 OFFCURVE",
"869.333 794.333 OFFCURVE",
"708 745 CURVE",
"893.333 694.333 OFFCURVE",
"1020 555 OFFCURVE",
"1020 379 CURVE SMOOTH",
"1020 123 OFFCURVE",
"826.333 -21 OFFCURVE",
"557 -21 CURVE SMOOTH",
"282.333 -21 OFFCURVE",
"92 123 OFFCURVE",
"92 379 CURVE SMOOTH",
"92 556.333 OFFCURVE",
"214.333 695.667 OFFCURVE",
"401 745 CURVE",
"238.333 794.333 OFFCURVE",
"133 922 OFFCURVE",
"133 1086 CURVE SMOOTH",
"133 1331.333 OFFCURVE",
"308.333 1477 OFFCURVE",
"555 1477 CURVE SMOOTH",
"799 1477 OFFCURVE",
"978 1330 OFFCURVE",
"978 1086 CURVE SMOOTH"
);
},
{
closed = 1;
nodes = (
"965 579.333 OFFCURVE",
"787 718 OFFCURVE",
"555 718 CURVE SMOOTH",
"319 718 OFFCURVE",
"146 579.333 OFFCURVE",
"146 374 CURVE SMOOTH",
"146 159.333 OFFCURVE",
"315.667 33 OFFCURVE",
"557 33 CURVE SMOOTH",
"791.667 33 OFFCURVE",
"965 160.667 OFFCURVE",
"965 374 CURVE SMOOTH"
);
},
{
closed = 1;
nodes = (
"924 1281.667 OFFCURVE",
"761.667 1423 OFFCURVE",
"555 1423 CURVE SMOOTH",
"340.333 1423 OFFCURVE",
"187 1292.333 OFFCURVE",
"187 1091 CURVE SMOOTH",
"187 896.333 OFFCURVE",
"341 772 OFFCURVE",
"557 772 CURVE SMOOTH",
"766.333 772 OFFCURVE",
"924 897.667 OFFCURVE",
"924 1091 CURVE SMOOTH"
);
}
);
width = 1123;
},
{
layerId = "ED9AC664-5073-455E-9B15-F6014C59BAEB";
paths = (
{
closed = 1;
nodes = (
"1026 924.667 OFFCURVE",
"943.667 808.667 OFFCURVE",
"809 746 CURVE",
"963.667 680.667 OFFCURVE",
"1059 554 OFFCURVE",
"1059 398 CURVE SMOOTH",
"1059 128.667 OFFCURVE",
"858.667 -21 OFFCURVE",
"564 -21 CURVE SMOOTH",
"268 -21 OFFCURVE",
"67 128.667 OFFCURVE",
"67 398 CURVE SMOOTH",
"67 555.333 OFFCURVE",
"161.333 680.667 OFFCURVE",
"316 746 CURVE",
"180 808.667 OFFCURVE",
"100 924.667 OFFCURVE",
"100 1070 CURVE SMOOTH",
"100 1328.667 OFFCURVE",
"284.667 1477 OFFCURVE",
"562 1477 CURVE SMOOTH",
"839.333 1477 OFFCURVE",
"1026 1328.667 OFFCURVE",
"1026 1070 CURVE SMOOTH"
);
},
{
closed = 1;
nodes = (
"768 548.667 OFFCURVE",
"683.333 634 OFFCURVE",
"562 634 CURVE SMOOTH",
"440.667 634 OFFCURVE",
"359 548.667 OFFCURVE",
"359 418 CURVE SMOOTH",
"359 284.667 OFFCURVE",
"440 203 OFFCURVE",
"564 203 CURVE SMOOTH",
"685.333 203 OFFCURVE",
"768 286 OFFCURVE",
"768 418 CURVE SMOOTH"
);
},
{
closed = 1;
nodes = (
"734 1174.333 OFFCURVE",
"667.333 1252 OFFCURVE",
"562 1252 CURVE SMOOTH",
"455.333 1252 OFFCURVE",
"393 1177 OFFCURVE",
"393 1057 CURVE SMOOTH",
"393 935.667 OFFCURVE",
"456 859 OFFCURVE",
"564 859 CURVE SMOOTH",
"669.333 859 OFFCURVE",
"734 935.667 OFFCURVE",
"734 1057 CURVE SMOOTH"
);
}
);
width = 1115;
},
{
layerId = "B06AEEA2-953E-4FA5-BFB1-0445B6E4B274";
paths = (
{
closed = 1;
nodes = (
"999 924 OFFCURVE",
"907.333 805 OFFCURVE",
"762 749 CURVE",
"930 690.333 OFFCURVE",
"1039 558 OFFCURVE",
"1039 394 CURVE SMOOTH",
"1039 124.667 OFFCURVE",
"846 -21 OFFCURVE",
"566 -21 CURVE SMOOTH",
"280.667 -21 OFFCURVE",
"92 124.667 OFFCURVE",
"92 394 CURVE SMOOTH",
"92 558 OFFCURVE",
"198 690.333 OFFCURVE",
"366 749 CURVE",
"220.667 805 OFFCURVE",
"133 924 OFFCURVE",
"133 1076 CURVE SMOOTH",
"133 1332 OFFCURVE",
"305.333 1477 OFFCURVE",
"564 1477 CURVE SMOOTH",
"820 1477 OFFCURVE",
"999 1332 OFFCURVE",
"999 1076 CURVE SMOOTH"
);
},
{
closed = 1;
nodes = (
"843 558 OFFCURVE",
"725.333 672 OFFCURVE",
"564 672 CURVE SMOOTH",
"401.333 672 OFFCURVE",
"289 559.333 OFFCURVE",
"289 398 CURVE SMOOTH",
"289 232.667 OFFCURVE",
"398 133 OFFCURVE",
"566 133 CURVE SMOOTH",
"730 133 OFFCURVE",
"843 234 OFFCURVE",
"843 398 CURVE SMOOTH"
);
},
{
closed = 1;
nodes = (
"802 1216 OFFCURVE",
"701.333 1322 OFFCURVE",
"564 1322 CURVE SMOOTH",
"424 1322 OFFCURVE",
"330 1222.667 OFFCURVE",
"330 1072 CURVE SMOOTH",
"330 924 OFFCURVE",
"424.667 827 OFFCURVE",
"566 827 CURVE SMOOTH",
"704.667 827 OFFCURVE",
"802 924 OFFCURVE",
"802 1072 CURVE SMOOTH"
);
}
);
width = 1131;
},
{
layerId = "55372407-EEEC-4390-8B77-FB5958F23D2B";
paths = (
{
closed = 1;
nodes = (
"1043 925 OFFCURVE",
"966 811 OFFCURVE",
"838 744 CURVE",
"985 675 OFFCURVE",
"1071 552 OFFCURVE",
"1071 400 CURVE SMOOTH",
"1071 131 OFFCURVE",
"867 -21 OFFCURVE",
"563 -21 CURVE SMOOTH",
"260 -21 OFFCURVE",
"51 131 OFFCURVE",
"51 400 CURVE SMOOTH",
"51 554 OFFCURVE",
"139 675 OFFCURVE",
"285 744 CURVE",
"155 811 OFFCURVE",
"80 925 OFFCURVE",
"80 1066 CURVE SMOOTH",
"80 1327 OFFCURVE",
"272 1477 OFFCURVE",
"561 1477 CURVE SMOOTH",
"851 1477 OFFCURVE",
"1043 1327 OFFCURVE",
"1043 1066 CURVE SMOOTH"
);
},
{
closed = 1;
nodes = (
"721 543 OFFCURVE",
"657 610 OFFCURVE",
"561 610 CURVE SMOOTH",
"465 610 OFFCURVE",
"402 542 OFFCURVE",
"402 430 CURVE SMOOTH",
"402 317 OFFCURVE",
"466 246 OFFCURVE",
"563 246 CURVE SMOOTH",
"658 246 OFFCURVE",
"721 318 OFFCURVE",
"721 430 CURVE SMOOTH"
);
},
{
closed = 1;
nodes = (
"692 1148 OFFCURVE",
"646 1209 OFFCURVE",
"561 1209 CURVE SMOOTH",
"475 1209 OFFCURVE",
"432 1149 OFFCURVE",
"432 1048 CURVE SMOOTH",
"432 943 OFFCURVE",
"475 879 OFFCURVE",
"563 879 CURVE SMOOTH",
"647 879 OFFCURVE",
"692 943 OFFCURVE",
"692 1048 CURVE SMOOTH"
);
}
);
width = 1105;
}
);
unicode = 0038;
},
{
color = 3;
glyphname = nine;
lastChange = "2018-07-15 20:45:56 +0000";
layers = (
{
layerId = "0331963E-C1C8-4E93-A463-84B984C1D75E";
paths = (
{
closed = 1;
nodes = (
"751.667 33 OFFCURVE",
"900 219.333 OFFCURVE",
"900 578 CURVE SMOOTH",
"900 701 LINE",
"825.333 555.667 OFFCURVE",
"681.333 468 OFFCURVE",
"512 468 CURVE SMOOTH",
"261.333 468 OFFCURVE",
"84 687.333 OFFCURVE",
"84 958 CURVE SMOOTH",
"84 1244.667 OFFCURVE",
"266.667 1477 OFFCURVE",
"520 1477 CURVE SMOOTH",
"786.667 1477 OFFCURVE",
"962 1299 OFFCURVE",
"962 923 CURVE SMOOTH",
"962 580 LINE SMOOTH",
"962 181.333 OFFCURVE",
"785 -21 OFFCURVE",
"501 -21 CURVE SMOOTH",
"397 -21 OFFCURVE",
"293.333 0.667 OFFCURVE",
"188 42 CURVE",
"204 99 LINE",
"304 53.667 OFFCURVE",
"386.333 33 OFFCURVE",
"501 33 CURVE SMOOTH"
);
},
{
closed = 1;
nodes = (
"709.333 521 OFFCURVE",
"846.667 652.333 OFFCURVE",
"900 811 CURVE",
"900 922 LINE SMOOTH",
"900 1263.333 OFFCURVE",
"752 1423 OFFCURVE",
"524 1423 CURVE SMOOTH",
"300 1423 OFFCURVE",
"146 1204.667 OFFCURVE",
"146 958 CURVE SMOOTH",
"146 720.667 OFFCURVE",
"290.667 521 OFFCURVE",
"512 521 CURVE SMOOTH"
);
}
);
width = 1125;
},
{
layerId = "ED9AC664-5073-455E-9B15-F6014C59BAEB";
paths = (
{
closed = 1;
nodes = (
"657 203 OFFCURVE",
"762 322.333 OFFCURVE",
"762 561 CURVE SMOOTH",
"762 583 LINE",
"696.667 499 OFFCURVE",
"603 455 OFFCURVE",
"499 455 CURVE SMOOTH",
"227 455 OFFCURVE",
"63 643.667 OFFCURVE",
"63 957 CURVE SMOOTH",
"63 1251.667 OFFCURVE",
"269.333 1477 OFFCURVE",
"552 1477 CURVE SMOOTH",
"849.333 1477 OFFCURVE",
"1053 1262.667 OFFCURVE",
"1053 892 CURVE SMOOTH",
"1053 576 LINE SMOOTH",
"1053 198.667 OFFCURVE",
"825 -21 OFFCURVE",
"501 -21 CURVE SMOOTH",
"399.667 -21 OFFCURVE",
"286.667 0 OFFCURVE",
"196 40 CURVE",
"229 251 LINE",
"318.333 217.667 OFFCURVE",
"395.667 203 OFFCURVE",
"501 203 CURVE SMOOTH"
);
},
{
closed = 1;
nodes = (
"645.333 669 OFFCURVE",
"719.333 708.667 OFFCURVE",
"762 770 CURVE",
"762 926 LINE SMOOTH",
"762 1139.333 OFFCURVE",
"682 1252 OFFCURVE",
"554 1252 CURVE SMOOTH",
"436.667 1252 OFFCURVE",
"355 1119.667 OFFCURVE",
"355 957 CURVE SMOOTH",
"355 781 OFFCURVE",
"422.667 669 OFFCURVE",
"548 669 CURVE SMOOTH"
);
}
);
width = 1141;
},
{
layerId = "B06AEEA2-953E-4FA5-BFB1-0445B6E4B274";
paths = (
{
closed = 1;
nodes = (
"700.333 133 OFFCURVE",
"817 269.667 OFFCURVE",
"821 591 CURVE",
"817 596 LINE",
"763.667 506.667 OFFCURVE",
"663 457 OFFCURVE",
"543 457 CURVE SMOOTH",
"259 457 OFFCURVE",
"84 640.667 OFFCURVE",
"84 958 CURVE SMOOTH",
"84 1262 OFFCURVE",
"284.333 1477 OFFCURVE",
"535 1477 CURVE SMOOTH",
"839 1477 OFFCURVE",
"1026 1285 OFFCURVE",
"1026 913 CURVE SMOOTH",
"1026 650 LINE SMOOTH",
"1026 195.333 OFFCURVE",
"823 -21 OFFCURVE",
"511 -21 CURVE SMOOTH",
"409.667 -21 OFFCURVE",
"297 -2 OFFCURVE",
"213 38 CURVE",
"243 187 LINE",
"324.333 148.333 OFFCURVE",
"404.333 133 OFFCURVE",
"511 133 CURVE SMOOTH"
);
},
{
closed = 1;
nodes = (
"688.333 612 OFFCURVE",
"786.333 681.667 OFFCURVE",
"829 779 CURVE",
"829 933 LINE SMOOTH",
"829 1190.333 OFFCURVE",
"729 1322 OFFCURVE",
"541 1322 CURVE SMOOTH",
"395.667 1322 OFFCURVE",
"281 1171.333 OFFCURVE",
"281 958 CURVE SMOOTH",
"281 748.667 OFFCURVE",
"380.333 612 OFFCURVE",
"543 612 CURVE SMOOTH"
);
}
);
width = 1154;
},
{
layerId = "55372407-EEEC-4390-8B77-FB5958F23D2B";
paths = (
{
closed = 1;
nodes = (
"630 246 OFFCURVE",
"728 355 OFFCURVE",
"725 542 CURVE SMOOTH",
"728 575 LINE",
"655 494 OFFCURVE",
"566 454 OFFCURVE",
"472 454 CURVE SMOOTH",
"207 454 OFFCURVE",
"50 646 OFFCURVE",
"50 956 CURVE SMOOTH",
"50 1245 OFFCURVE",
"260 1477 OFFCURVE",
"563 1477 CURVE SMOOTH",
"856 1477 OFFCURVE",
"1070 1249 OFFCURVE",
"1070 879 CURVE SMOOTH",
"1070 530 LINE SMOOTH",
"1070 201 OFFCURVE",
"826 -21 OFFCURVE",
"495 -21 CURVE SMOOTH",
"393 -21 OFFCURVE",
"280 1 OFFCURVE",
"185 41 CURVE",
"220 291 LINE",
"315 261 OFFCURVE",
"390 246 OFFCURVE",
"495 246 CURVE SMOOTH"
);
},
{
closed = 1;
nodes = (
"619 704 OFFCURVE",
"678 725 OFFCURVE",
"720 764 CURVE",
"720 922 LINE SMOOTH",
"720 1108 OFFCURVE",
"653 1209 OFFCURVE",
"562 1209 CURVE SMOOTH",
"462 1209 OFFCURVE",
"401 1088 OFFCURVE",
"401 956 CURVE SMOOTH",
"401 801 OFFCURVE",
"449 704 OFFCURVE",
"551 704 CURVE SMOOTH"
);
}
);
width = 1133;
}
);
unicode = 0039;
},
{
glyphname = less;
lastChange = "2018-07-15 19:02:34 +0000";
layers = (
{
layerId = "0331963E-C1C8-4E93-A463-84B984C1D75E";
paths = (
{
closed = 1;
nodes = (
"133 534 LINE",
"252 498 LINE",
"913 195 LINE",
"913 136 LINE",
"76 515 LINE",
"76 565 LINE",
"913 943 LINE",
"913 885 LINE",
"252 577 LINE",
"133 540 LINE"
);
}
);
width = 1027;
},
{
layerId = "ED9AC664-5073-455E-9B15-F6014C59BAEB";
paths = (
{
closed = 1;
nodes = (
"343 544 LINE",
"392 527 LINE",
"919 341 LINE",
"919 69 LINE",
"58 436 LINE",
"58 663 LINE",
"919 1029 LINE",
"919 757 LINE",
"397 569 LINE",
"343 550 LINE"
);
}
);
width = 1012;
},
{
layerId = "B06AEEA2-953E-4FA5-BFB1-0445B6E4B274";
paths = (
{
closed = 1;
nodes = (
"248 555 LINE",
"333 536 LINE",
"892 308 LINE",
"892 107 LINE",
"76 486 LINE",
"76 635 LINE",
"892 1013 LINE",
"892 812 LINE",
"333 579 LINE",
"248 561 LINE"
);
}
);
width = 1017;
},
{
layerId = "55372407-EEEC-4390-8B77-FB5958F23D2B";
paths = (
{
closed = 1;
nodes = (
"402 537 LINE",
"429 521 LINE",
"936 361 LINE",
"936 45 LINE",
"47 405 LINE",
"47 680 LINE",
"936 1039 LINE",
"936 723 LINE",
"437 563 LINE",
"402 543 LINE"
);
}
);
width = 1009;
}
);
unicode = 003C;
},
{
glyphname = equal;
lastChange = "2018-07-15 19:02:34 +0000";
layers = (
{
layerId = "0331963E-C1C8-4E93-A463-84B984C1D75E";
paths = (
{
closed = 1;
nodes = (
"147 843 LINE",
"147 897 LINE",
"981 897 LINE",
"981 843 LINE"
);
},
{
closed = 1;
nodes = (
"147 436 LINE",
"147 490 LINE",
"981 490 LINE",
"981 436 LINE"
);
}
);
width = 1127;
},
{
layerId = "ED9AC664-5073-455E-9B15-F6014C59BAEB";
paths = (
{
closed = 1;
nodes = (
"123 763 LINE",
"123 992 LINE",
"1019 992 LINE",
"1019 763 LINE"
);
},
{
closed = 1;
nodes = (
"123 332 LINE",
"123 561 LINE",
"1019 561 LINE",
"1019 332 LINE"
);
}
);
width = 1123;
},
{
layerId = "B06AEEA2-953E-4FA5-BFB1-0445B6E4B274";
paths = (
{
closed = 1;
nodes = (
"147 823 LINE",
"147 987 LINE",
"981 987 LINE",
"981 823 LINE"
);
},
{
closed = 1;
nodes = (
"147 407 LINE",
"147 571 LINE",
"981 571 LINE",
"981 407 LINE"
);
}
);
width = 1127;
},
{
layerId = "55372407-EEEC-4390-8B77-FB5958F23D2B";
paths = (
{
closed = 1;
nodes = (
"108 726 LINE",
"108 995 LINE",
"1043 995 LINE",
"1043 726 LINE"
);
},
{
closed = 1;
nodes = (
"108 285 LINE",
"108 555 LINE",
"1043 555 LINE",
"1043 285 LINE"
);
}
);
width = 1121;
}
);
unicode = 003D;
},
{
glyphname = greater;
lastChange = "2018-07-15 19:02:34 +0000";
layers = (
{
layerId = "0331963E-C1C8-4E93-A463-84B984C1D75E";
paths = (
{
closed = 1;
nodes = (
"903 545 LINE",
"785 582 LINE",
"125 886 LINE",
"125 944 LINE",
"961 566 LINE",
"961 516 LINE",
"125 137 LINE",
"125 196 LINE",
"785 503 LINE",
"903 539 LINE"
);
}
);
width = 1052;
},
{
layerId = "ED9AC664-5073-455E-9B15-F6014C59BAEB";
paths = (
{
closed = 1;
nodes = (
"689 545 LINE",
"618 570 LINE",
"104 751 LINE",
"104 1020 LINE",
"975 654 LINE",
"975 427 LINE",
"104 60 LINE",
"104 330 LINE",
"631 518 LINE",
"689 539 LINE"
);
}
);
width = 1031;
},
{
layerId = "B06AEEA2-953E-4FA5-BFB1-0445B6E4B274";
paths = (
{
closed = 1;
nodes = (
"807 544 LINE",
"723 564 LINE",
"125 798 LINE",
"125 993 LINE",
"980 615 LINE",
"980 466 LINE",
"125 87 LINE",
"125 283 LINE",
"723 521 LINE",
"807 538 LINE"
);
}
);
width = 1060;
},
{
layerId = "55372407-EEEC-4390-8B77-FB5958F23D2B";
paths = (
{
closed = 1;
nodes = (
"616 546 LINE",
"553 574 LINE",
"91 722 LINE",
"91 1037 LINE",
"972 678 LINE",
"972 403 LINE",
"91 43 LINE",
"91 359 LINE",
"574 516 LINE",
"616 540 LINE"
);
}
);
width = 1013;
}
);
unicode = 003E;
},
{
glyphname = question;
lastChange = "2018-07-15 19:02:34 +0000";
layers = (
{
layerId = "0331963E-C1C8-4E93-A463-84B984C1D75E";
paths = (
{
closed = 1;
nodes = (
"363.333 556 OFFCURVE",
"373.667 588 OFFCURVE",
"487 692 CURVE SMOOTH",
"648.333 846.667 OFFCURVE",
"714 924 OFFCURVE",
"714 1112 CURVE SMOOTH",
"714 1306.667 OFFCURVE",
"605.667 1424 OFFCURVE",
"415 1424 CURVE SMOOTH",
"225.667 1424 OFFCURVE",
"118 1301.333 OFFCURVE",
"114 1116 CURVE",
"68 1116 LINE",
"65 1122 LINE",
"62.333 1348.667 OFFCURVE",
"208.333 1477 OFFCURVE",
"415 1477 CURVE SMOOTH",
"633.667 1477 OFFCURVE",
"768 1330 OFFCURVE",
"768 1110 CURVE SMOOTH",
"768 922 OFFCURVE",
"685.667 803.333 OFFCURVE",
"515 650 CURVE",
"423 579.333 OFFCURVE",
"416 533.333 OFFCURVE",
"416 400 CURVE",
"362 400 LINE"
);
},
{
closed = 1;
nodes = (
"358 0 LINE",
"358 106 LINE",
"440 106 LINE",
"440 0 LINE"
);
}
);
width = 901;
},
{
layerId = "ED9AC664-5073-455E-9B15-F6014C59BAEB";
paths = (
{
closed = 1;
nodes = (
"327.333 600.667 OFFCURVE",
"367.667 653 OFFCURVE",
"529 777 CURVE SMOOTH",
"623.667 854.333 OFFCURVE",
"685 941.333 OFFCURVE",
"685 1052 CURVE SMOOTH",
"685 1174.667 OFFCURVE",
"618 1248 OFFCURVE",
"498 1248 CURVE SMOOTH",
"399.333 1248 OFFCURVE",
"321.333 1188.333 OFFCURVE",
"320 1075 CURVE",
"36 1075 LINE",
"34 1081 LINE",
"30 1337 OFFCURVE",
"220.667 1477 OFFCURVE",
"498 1477 CURVE SMOOTH",
"796.667 1477 OFFCURVE",
"977 1315 OFFCURVE",
"977 1055 CURVE SMOOTH",
"977 885.667 OFFCURVE",
"865.333 736.333 OFFCURVE",
"716 639 CURVE",
"634.667 576.333 OFFCURVE",
"617 524.667 OFFCURVE",
"617 414 CURVE",
"326 414 LINE"
);
},
{
closed = 1;
nodes = (
"325 0 LINE",
"325 250 LINE",
"619 250 LINE",
"619 0 LINE"
);
}
);
width = 985;
},
{
layerId = "B06AEEA2-953E-4FA5-BFB1-0445B6E4B274";
paths = (
{
closed = 1;
nodes = (
"361.333 604.667 OFFCURVE",
"374 636.333 OFFCURVE",
"510 759 CURVE",
"642 915 OFFCURVE",
"693 972.333 OFFCURVE",
"693 1091 CURVE SMOOTH",
"693 1232.333 OFFCURVE",
"615 1311 OFFCURVE",
"475 1311 CURVE SMOOTH",
"353.667 1311 OFFCURVE",
"257 1244 OFFCURVE",
"257 1116 CURVE",
"69 1116 LINE",
"66 1122 LINE",
"62 1336.667 OFFCURVE",
"235 1477 OFFCURVE",
"475 1477 CURVE SMOOTH",
"737.667 1477 OFFCURVE",
"890 1336 OFFCURVE",
"890 1096 CURVE SMOOTH",
"890 924 OFFCURVE",
"787.667 790.333 OFFCURVE",
"633 641 CURVE SMOOTH",
"562.333 569 OFFCURVE",
"557 531.333 OFFCURVE",
"557 410 CURVE",
"360 410 LINE"
);
},
{
closed = 1;
nodes = (
"358 0 LINE",
"358 208 LINE",
"563 208 LINE",
"563 0 LINE"
);
}
);
width = 953;
},
{
layerId = "55372407-EEEC-4390-8B77-FB5958F23D2B";
paths = (
{
closed = 1;
nodes = (
"306 598 OFFCURVE",
"364 663 OFFCURVE",
"541 788 CURVE SMOOTH",
"612 817 OFFCURVE",
"680 922 OFFCURVE",
"680 1028 CURVE SMOOTH",
"680 1139 OFFCURVE",
"620 1209 OFFCURVE",
"512 1209 CURVE SMOOTH",
"428 1209 OFFCURVE",
"361 1154 OFFCURVE",
"359 1050 CURVE",
"16 1050 LINE",
"14 1056 LINE",
"10 1337 OFFCURVE",
"212 1477 OFFCURVE",
"512 1477 CURVE SMOOTH",
"833 1477 OFFCURVE",
"1031 1302 OFFCURVE",
"1031 1030 CURVE SMOOTH",
"1031 862 OFFCURVE",
"914 703 OFFCURVE",
"768 638 CURVE",
"680 581 OFFCURVE",
"654 521 OFFCURVE",
"654 416 CURVE",
"305 416 LINE"
);
},
{
closed = 1;
nodes = (
"305 0 LINE",
"305 276 LINE",
"654 276 LINE",
"654 0 LINE"
);
}
);
width = 1005;
}
);
unicode = 003F;
},
{
color = 0;
glyphname = at;
lastChange = "2018-07-15 19:02:34 +0000";
layers = (
{
layerId = "0331963E-C1C8-4E93-A463-84B984C1D75E";
paths = (
{
closed = 1;
nodes = (
"1711 231 OFFCURVE",
"1570 -21 OFFCURVE",
"1314 -21 CURVE SMOOTH",
"1203 -21 OFFCURVE",
"1130 65 OFFCURVE",
"1118 209 CURVE",
"1045 57 OFFCURVE",
"931 -21 OFFCURVE",
"786 -21 CURVE SMOOTH",
"605 -21 OFFCURVE",
"510 151 OFFCURVE",
"535 416 CURVE SMOOTH",
"566 749 OFFCURVE",
"743 968 OFFCURVE",
"972 968 CURVE SMOOTH",
"1083 968 OFFCURVE",
"1138 931 OFFCURVE",
"1222 858 CURVE",
"1221 845 LINE",
"1220 831 LINE",
"1173 293 LINE SMOOTH",
"1158 90 OFFCURVE",
"1237 34 OFFCURVE",
"1317 34 CURVE SMOOTH",
"1528 34 OFFCURVE",
"1652 230 OFFCURVE",
"1667 523 CURVE SMOOTH",
"1694 1051 OFFCURVE",
"1456 1357 OFFCURVE",
"954 1357 CURVE SMOOTH",
"489 1357 OFFCURVE",
"168 1007 OFFCURVE",
"140 478 CURVE SMOOTH",
"113 -37 OFFCURVE",
"374 -398 OFFCURVE",
"863 -398 CURVE SMOOTH",
"995 -398 OFFCURVE",
"1114 -368 OFFCURVE",
"1197 -320 CURVE",
"1221 -364 LINE",
"1138 -417 OFFCURVE",
"986 -453 OFFCURVE",
"857 -453 CURVE SMOOTH",
"361 -453 OFFCURVE",
"62 -98 OFFCURVE",
"86 478 CURVE SMOOTH",
"110 1043 OFFCURVE",
"453 1411 OFFCURVE",
"958 1411 CURVE SMOOTH",
"1481 1411 OFFCURVE",
"1747 1083 OFFCURVE",
"1724 523 CURVE SMOOTH"
);
},
{
closed = 1;
nodes = (
"564 193 OFFCURVE",
"633 33 OFFCURVE",
"784 33 CURVE SMOOTH",
"928 33 OFFCURVE",
"1045 106 OFFCURVE",
"1122 345 CURVE",
"1123 354 OFFCURVE",
"1123 362 OFFCURVE",
"1124 371 CURVE",
"1164 831 LINE",
"1119 883 OFFCURVE",
"1054 913 OFFCURVE",
"969 913 CURVE SMOOTH",
"780 913 OFFCURVE",
"624 741 OFFCURVE",
"589 416 CURVE SMOOTH"
);
}
);
width = 1799;
},
{
layerId = "ED9AC664-5073-455E-9B15-F6014C59BAEB";
paths = (
{
closed = 1;
nodes = (
"1719 222.333 OFFCURVE",
"1563 -21 OFFCURVE",
"1247 -21 CURVE SMOOTH",
"1143 -21 OFFCURVE",
"1063 40.667 OFFCURVE",
"1031 146 CURVE",
"972.333 36.667 OFFCURVE",
"885.333 -18 OFFCURVE",
"768 -18 CURVE SMOOTH",
"580 -18 OFFCURVE",
"469.667 154.667 OFFCURVE",
"495 416 CURVE SMOOTH",
"528.333 754.667 OFFCURVE",
"701.667 976 OFFCURVE",
"927 976 CURVE SMOOTH",
"1081.667 976 OFFCURVE",
"1154.667 942 OFFCURVE",
"1268 870 CURVE",
"1265 866 LINE",
"1270 866 LINE",
"1219 293 LINE SMOOTH",
"1209.667 167.667 OFFCURVE",
"1242 128 OFFCURVE",
"1290 128 CURVE SMOOTH",
"1443.333 128 OFFCURVE",
"1541.333 290.333 OFFCURVE",
"1552 513 CURVE SMOOTH",
"1573.333 985 OFFCURVE",
"1369.333 1262 OFFCURVE",
"944 1262 CURVE SMOOTH",
"538.667 1262 OFFCURVE",
"284 955.333 OFFCURVE",
"264 478 CURVE SMOOTH",
"240 4.667 OFFCURVE",
"471 -287 OFFCURVE",
"879 -287 CURVE SMOOTH",
"992.333 -287 OFFCURVE",
"1123.333 -257 OFFCURVE",
"1210 -217 CURVE",
"1248 -364 LINE",
"1158.667 -420 OFFCURVE",
"1007 -453 OFFCURVE",
"875 -453 CURVE SMOOTH",
"347 -453 OFFCURVE",
"44.333 -99.333 OFFCURVE",
"67 478 CURVE SMOOTH",
"91 1047.333 OFFCURVE",
"429.333 1418 OFFCURVE",
"948 1418 CURVE SMOOTH",
"1464 1418 OFFCURVE",
"1752.333 1073 OFFCURVE",
"1731 513 CURVE SMOOTH"
);
},
{
closed = 1;
nodes = (
"707.667 246.667 OFFCURVE",
"746.667 158 OFFCURVE",
"832 158 CURVE SMOOTH",
"906.667 158 OFFCURVE",
"967 187.667 OFFCURVE",
"1015 281 CURVE",
"1015 283.667 OFFCURVE",
"1016 290.333 OFFCURVE",
"1016 293 CURVE",
"1060 789 LINE",
"1029.333 798.333 OFFCURVE",
"998 804 OFFCURVE",
"966 804 CURVE SMOOTH",
"818 804 OFFCURVE",
"745 676 OFFCURVE",
"721 416 CURVE SMOOTH"
);
}
);
width = 1806;
},
{
layerId = "B06AEEA2-953E-4FA5-BFB1-0445B6E4B274";
paths = (
{
closed = 1;
nodes = (
"1692 216.667 OFFCURVE",
"1546.667 -21 OFFCURVE",
"1252 -21 CURVE SMOOTH",
"1154.667 -21 OFFCURVE",
"1079.667 37 OFFCURVE",
"1049 137 CURVE",
"982.333 30.333 OFFCURVE",
"886.667 -21 OFFCURVE",
"760 -21 CURVE SMOOTH",
"593.333 -21 OFFCURVE",
"491 154.667 OFFCURVE",
"515 416 CURVE SMOOTH",
"545.667 761.333 OFFCURVE",
"712.333 988 OFFCURVE",
"931 988 CURVE SMOOTH",
"1071 988 OFFCURVE",
"1137.333 954 OFFCURVE",
"1240 882 CURVE",
"1236 878 LINE",
"1242 878 LINE",
"1191 293 LINE SMOOTH",
"1179 146.333 OFFCURVE",
"1226 100 OFFCURVE",
"1294 100 CURVE SMOOTH",
"1458 100 OFFCURVE",
"1561.333 268.667 OFFCURVE",
"1572 502 CURVE SMOOTH",
"1594.667 1011.333 OFFCURVE",
"1379.667 1311 OFFCURVE",
"933 1311 CURVE SMOOTH",
"521 1311 OFFCURVE",
"255 972.667 OFFCURVE",
"235 478 CURVE SMOOTH",
"211 -23.333 OFFCURVE",
"448.333 -335 OFFCURVE",
"867 -335 CURVE SMOOTH",
"984.333 -335 OFFCURVE",
"1114.333 -303.667 OFFCURVE",
"1197 -257 CURVE",
"1236 -364 LINE",
"1145.333 -420 OFFCURVE",
"993.667 -453 OFFCURVE",
"863 -453 CURVE SMOOTH",
"356.333 -453 OFFCURVE",
"60.667 -98 OFFCURVE",
"86 478 CURVE SMOOTH",
"111.333 1042 OFFCURVE",
"441 1431 OFFCURVE",
"937 1431 CURVE SMOOTH",
"1442.333 1431 OFFCURVE",
"1726.667 1074 OFFCURVE",
"1704 502 CURVE SMOOTH"
);
},
{
closed = 1;
nodes = (
"676.333 228 OFFCURVE",
"721.333 126 OFFCURVE",
"820 126 CURVE SMOOTH",
"904 126 OFFCURVE",
"975.333 155 OFFCURVE",
"1034 239 CURVE",
"1032.667 255 OFFCURVE",
"1033.333 271.667 OFFCURVE",
"1036 293 CURVE SMOOTH",
"1083 831 LINE",
"1048.333 847 OFFCURVE",
"1010.333 857 OFFCURVE",
"969 857 CURVE SMOOTH",
"802.333 857 OFFCURVE",
"719 713.333 OFFCURVE",
"691 416 CURVE SMOOTH"
);
}
);
width = 1821;
},
{
layerId = "55372407-EEEC-4390-8B77-FB5958F23D2B";
paths = (
{
closed = 1;
nodes = (
"1736 226 OFFCURVE",
"1573 -21 OFFCURVE",
"1244 -21 CURVE SMOOTH",
"1136 -21 OFFCURVE",
"1053 43 OFFCURVE",
"1020 152 CURVE",
"966 41 OFFCURVE",
"885 -16 OFFCURVE",
"773 -16 CURVE SMOOTH",
"572 -16 OFFCURVE",
"456 155 OFFCURVE",
"483 416 CURVE SMOOTH",
"518 751 OFFCURVE",
"695 969 OFFCURVE",
"925 969 CURVE SMOOTH",
"1088 969 OFFCURVE",
"1165 935 OFFCURVE",
"1285 863 CURVE",
"1283 859 LINE",
"1287 859 LINE",
"1236 293 LINE SMOOTH",
"1229 181 OFFCURVE",
"1252 145 OFFCURVE",
"1288 145 CURVE SMOOTH",
"1434 145 OFFCURVE",
"1529 304 OFFCURVE",
"1540 520 CURVE SMOOTH",
"1560 969 OFFCURVE",
"1363 1232 OFFCURVE",
"951 1232 CURVE SMOOTH",
"550 1232 OFFCURVE",
"302 945 OFFCURVE",
"282 478 CURVE SMOOTH",
"258 22 OFFCURVE",
"485 -257 OFFCURVE",
"886 -257 CURVE SMOOTH",
"997 -257 OFFCURVE",
"1129 -228 OFFCURVE",
"1218 -192 CURVE",
"1255 -364 LINE",
"1167 -420 OFFCURVE",
"1015 -453 OFFCURVE",
"882 -453 CURVE SMOOTH",
"341 -453 OFFCURVE",
"34 -100 OFFCURVE",
"55 478 CURVE SMOOTH",
"78 1051 OFFCURVE",
"422 1410 OFFCURVE",
"955 1410 CURVE SMOOTH",
"1477 1410 OFFCURVE",
"1768 1072 OFFCURVE",
"1748 520 CURVE SMOOTH"
);
},
{
closed = 1;
nodes = (
"727 258 OFFCURVE",
"762 178 OFFCURVE",
"839 178 CURVE SMOOTH",
"908 178 OFFCURVE",
"962 208 OFFCURVE",
"1003 307 CURVE",
"1004 301 OFFCURVE",
"1005 302 OFFCURVE",
"1004 293 CURVE",
"1046 763 LINE",
"1018 768 OFFCURVE",
"990 771 OFFCURVE",
"964 771 CURVE SMOOTH",
"828 771 OFFCURVE",
"761 653 OFFCURVE",
"740 416 CURVE SMOOTH"
);
}
);
width = 1797;
}
);
unicode = 0040;
userData = {
com.typemytype.robofont.layerData = {
mask = {
anchors = (
);
components = (
);
contours = (
{
points = (
{
segmentType = curve;
smooth = 1;
x = 1724;
y = 523;
},
{
smooth = 0;
x = 1710.66667;
y = 231;
},
{
smooth = 0;
x = 1570;
y = -21;
},
{
segmentType = curve;
smooth = 1;
x = 1314;
y = -21;
},
{
smooth = 0;
x = 1203.33333;
y = -21;
},
{
smooth = 0;
x = 1130;
y = 65;
},
{
segmentType = curve;
smooth = 0;
x = 1118;
y = 209;
},
{
smooth = 0;
x = 1044.66667;
y = 57;
},
{
smooth = 0;
x = 931.33333;
y = -21;
},
{
segmentType = curve;
smooth = 1;
x = 786;
y = -21;
},
{
smooth = 0;
x = 604.66667;
y = -21;
},
{
smooth = 0;
x = 509.66667;
y = 150.66667;
},
{
segmentType = curve;
smooth = 1;
x = 535;
y = 416;
},
{
smooth = 0;
x = 565.66667;
y = 749.33333;
},
{
smooth = 0;
x = 742.66667;
y = 968;
},
{
segmentType = curve;
smooth = 1;
x = 972;
y = 968;
},
{
smooth = 0;
x = 1082.66667;
y = 968;
},
{
smooth = 0;
x = 1138;
y = 931.33333;
},
{
segmentType = curve;
smooth = 0;
x = 1222;
y = 858;
},
{
segmentType = line;
smooth = 1;
x = 1173;
y = 293;
},
{
smooth = 0;
x = 1158.33333;
y = 90.33333;
},
{
smooth = 0;
x = 1237;
y = 34;
},
{
segmentType = curve;
smooth = 1;
x = 1317;
y = 34;
},
{
smooth = 0;
x = 1527.66667;
y = 34;
},
{
smooth = 0;
x = 1652.33333;
y = 229.66667;
},
{
segmentType = curve;
smooth = 1;
x = 1667;
y = 523;
},
{
smooth = 0;
x = 1693.66667;
y = 1051;
},
{
smooth = 0;
x = 1467.33333;
y = 1354;
},
{
segmentType = curve;
smooth = 1;
x = 954;
y = 1354;
},
{
smooth = 0;
x = 506;
y = 1354;
},
{
smooth = 0;
x = 167.66667;
y = 1007.33333;
},
{
segmentType = curve;
smooth = 1;
x = 141;
y = 478;
},
{
smooth = 0;
x = 114.33333;
y = -32.66667;
},
{
smooth = 0;
x = 391;
y = -398;
},
{
segmentType = curve;
smooth = 1;
x = 867;
y = -398;
},
{
smooth = 0;
x = 983;
y = -398;
},
{
smooth = 0;
x = 1114.33333;
y = -366;
},
{
segmentType = curve;
smooth = 0;
x = 1197;
y = -318;
},
{
segmentType = line;
smooth = 0;
x = 1221;
y = -364;
},
{
smooth = 0;
x = 1138.33333;
y = -417.33333;
},
{
smooth = 0;
x = 985.66667;
y = -453;
},
{
segmentType = curve;
smooth = 1;
x = 863;
y = -453;
},
{
smooth = 0;
x = 356.33333;
y = -453;
},
{
smooth = 0;
x = 60.66667;
y = -98;
},
{
segmentType = curve;
smooth = 1;
x = 86;
y = 478;
},
{
smooth = 0;
x = 110;
y = 1047.33333;
},
{
smooth = 0;
x = 452.66667;
y = 1411;
},
{
segmentType = curve;
smooth = 1;
x = 958;
y = 1411;
},
{
smooth = 0;
x = 1494;
y = 1411;
},
{
smooth = 0;
x = 1746.66667;
y = 1083;
}
);
},
{
points = (
{
segmentType = curve;
smooth = 1;
x = 589;
y = 416;
},
{
smooth = 0;
x = 563.66667;
y = 193.33333;
},
{
smooth = 0;
x = 633.33333;
y = 33;
},
{
segmentType = curve;
smooth = 1;
x = 784;
y = 33;
},
{
smooth = 0;
x = 928;
y = 33;
},
{
smooth = 0;
x = 1044.66667;
y = 106.33333;
},
{
segmentType = curve;
smooth = 0;
x = 1122;
y = 345;
},
{
segmentType = line;
smooth = 0;
x = 1164;
y = 831;
},
{
smooth = 0;
x = 1118.66667;
y = 883;
},
{
smooth = 0;
x = 1054.33333;
y = 913;
},
{
segmentType = curve;
smooth = 1;
x = 969;
y = 913;
},
{
smooth = 0;
x = 779.66667;
y = 913;
},
{
smooth = 0;
x = 623.66667;
y = 741.33333;
}
);
},
{
points = (
{
segmentType = curve;
smooth = 1;
x = 1724;
y = 523;
},
{
smooth = 0;
x = 1711;
y = 231;
},
{
smooth = 0;
x = 1570;
y = -21;
},
{
segmentType = curve;
smooth = 1;
x = 1314;
y = -21;
},
{
smooth = 0;
x = 1203;
y = -21;
},
{
smooth = 0;
x = 1130;
y = 65;
},
{
segmentType = curve;
smooth = 0;
x = 1118;
y = 209;
},
{
smooth = 0;
x = 1045;
y = 57;
},
{
smooth = 0;
x = 931;
y = -21;
},
{
segmentType = curve;
smooth = 1;
x = 786;
y = -21;
},
{
smooth = 0;
x = 605;
y = -21;
},
{
smooth = 0;
x = 510;
y = 151;
},
{
segmentType = curve;
smooth = 1;
x = 535;
y = 416;
},
{
smooth = 0;
x = 566;
y = 749;
},
{
smooth = 0;
x = 743;
y = 968;
},
{
segmentType = curve;
smooth = 1;
x = 972;
y = 968;
},
{
smooth = 0;
x = 1083;
y = 968;
},
{
smooth = 0;
x = 1138;
y = 931;
},
{
segmentType = curve;
smooth = 0;
x = 1222;
y = 858;
},
{
segmentType = line;
smooth = 0;
x = 1221;
y = 845;
},
{
segmentType = line;
smooth = 0;
x = 1220;
y = 831;
},
{
segmentType = line;
smooth = 1;
x = 1173;
y = 293;
},
{
smooth = 0;
x = 1158;
y = 90;
},
{
smooth = 0;
x = 1237;
y = 34;
},
{
segmentType = curve;
smooth = 1;
x = 1317;
y = 34;
},
{
smooth = 0;
x = 1528;
y = 34;
},
{
smooth = 0;
x = 1652;
y = 230;
},
{
segmentType = curve;
smooth = 1;
x = 1667;
y = 523;
},
{
smooth = 0;
x = 1694;
y = 1051;
},
{
smooth = 0;
x = 1467;
y = 1354;
},
{
segmentType = curve;
smooth = 1;
x = 954;
y = 1354;
},
{
smooth = 0;
x = 506;
y = 1354;
},
{
smooth = 0;
x = 168;
y = 1007;
},
{
segmentType = curve;
smooth = 1;
x = 141;
y = 478;
},
{
smooth = 0;
x = 114;
y = -33;
},
{
smooth = 0;
x = 391;
y = -398;
},
{
segmentType = curve;
smooth = 1;
x = 867;
y = -398;
},
{
smooth = 0;
x = 983;
y = -398;
},
{
smooth = 0;
x = 1114;
y = -366;
},
{
segmentType = curve;
smooth = 0;
x = 1197;
y = -318;
},
{
segmentType = line;
smooth = 0;
x = 1221;
y = -364;
},
{
smooth = 0;
x = 1138;
y = -417;
},
{
smooth = 0;
x = 986;
y = -453;
},
{
segmentType = curve;
smooth = 1;
x = 863;
y = -453;
},
{
smooth = 0;
x = 356;
y = -453;
},
{
smooth = 0;
x = 61;
y = -98;
},
{
segmentType = curve;
smooth = 1;
x = 86;
y = 478;
},
{
smooth = 0;
x = 110;
y = 1047;
},
{
smooth = 0;
x = 453;
y = 1411;
},
{
segmentType = curve;
smooth = 1;
x = 958;
y = 1411;
},
{
smooth = 0;
x = 1494;
y = 1411;
},
{
smooth = 0;
x = 1747;
y = 1083;
}
);
},
{
points = (
{
segmentType = curve;
smooth = 1;
x = 589;
y = 416;
},
{
smooth = 0;
x = 564;
y = 193;
},
{
smooth = 0;
x = 633;
y = 33;
},
{
segmentType = curve;
smooth = 1;
x = 784;
y = 33;
},
{
smooth = 0;
x = 928;
y = 33;
},
{
smooth = 0;
x = 1045;
y = 106;
},
{
segmentType = curve;
smooth = 0;
x = 1122;
y = 345;
},
{
segmentType = line;
smooth = 0;
x = 1124;
y = 371;
},
{
segmentType = line;
smooth = 0;
x = 1164;
y = 831;
},
{
smooth = 0;
x = 1119;
y = 883;
},
{
smooth = 0;
x = 1054;
y = 913;
},
{
segmentType = curve;
smooth = 1;
x = 969;
y = 913;
},
{
smooth = 0;
x = 780;
y = 913;
},
{
smooth = 0;
x = 624;
y = 741;
}
);
}
);
lib = {
};
name = at;
unicodes = (
);
width = 1799;
};
};
com.typemytype.robofont.mark = (
1,
0.1703,
0.1669,
0.8287
);
};
},
{
glyphname = A;
lastChange = "2018-07-15 19:02:34 +0000";
layers = (
{
layerId = "0331963E-C1C8-4E93-A463-84B984C1D75E";
paths = (
{
closed = 1;
nodes = (
"162 54 LINE",
"686 1456 LINE",
"752 1456 LINE",
"1277 54 LINE",
"1384 54 LINE",
"1384 0 LINE",
"1075 0 LINE",
"1075 54 LINE",
"1218 54 LINE",
"1075 435 LINE",
"363 435 LINE",
"221 54 LINE",
"364 54 LINE",
"364 0 LINE",
"55 0 LINE",
"55 54 LINE"
);
},
{
closed = 1;
nodes = (
"1055 489 LINE",
"750 1309 LINE",
"722 1391 LINE",
"716 1391 LINE",
"689 1309 LINE",
"383 489 LINE"
);
}
);
width = 1472;
},
{
layerId = "ED9AC664-5073-455E-9B15-F6014C59BAEB";
paths = (
{
closed = 1;
nodes = (
"145 190 LINE",
"608 1456 LINE",
"907 1456 LINE",
"1367 190 LINE",
"1471 175 LINE",
"1471 0 LINE",
"975 0 LINE",
"975 175 LINE",
"1076 193 LINE",
"1012 393 LINE",
"500 393 LINE",
"436 193 LINE",
"537 175 LINE",
"537 0 LINE",
"41 0 LINE",
"41 175 LINE"
);
},
{
closed = 1;
nodes = (
"943 608 LINE",
"773 1107 LINE",
"759 1151 LINE",
"753 1151 LINE",
"738 1104 LINE",
"569 608 LINE"
);
}
);
width = 1512;
},
{
layerId = "B06AEEA2-953E-4FA5-BFB1-0445B6E4B274";
paths = (
{
closed = 1;
nodes = (
"178 141 LINE",
"687 1456 LINE",
"856 1456 LINE",
"1356 141 LINE",
"1463 126 LINE",
"1463 0 LINE",
"1045 0 LINE",
"1045 126 LINE",
"1155 145 LINE",
"1059 413 LINE",
"476 413 LINE",
"377 145 LINE",
"487 126 LINE",
"487 0 LINE",
"70 0 LINE",
"70 126 LINE"
);
},
{
closed = 1;
nodes = (
"999 578 LINE",
"785 1170 LINE",
"773 1203 LINE",
"767 1203 LINE",
"755 1170 LINE",
"537 578 LINE"
);
}
);
width = 1533;
},
{
layerId = "55372407-EEEC-4390-8B77-FB5958F23D2B";
paths = (
{
closed = 1;
nodes = (
"125 220 LINE",
"559 1456 LINE",
"939 1456 LINE",
"1374 220 LINE",
"1476 205 LINE",
"1476 0 LINE",
"932 0 LINE",
"932 205 LINE",
"1027 223 LINE",
"983 381 LINE",
"515 381 LINE",
"473 223 LINE",
"568 205 LINE",
"568 0 LINE",
"23 0 LINE",
"23 205 LINE"
);
},
{
closed = 1;
nodes = (
"908 627 LINE",
"766 1068 LINE",
"750 1119 LINE",
"744 1119 LINE",
"727 1063 LINE",
"589 627 LINE"
);
}
);
width = 1499;
}
);
leftKerningGroup = A;
rightKerningGroup = A;
unicode = 0041;
},
{
glyphname = B;
lastChange = "2018-07-15 19:02:34 +0000";
layers = (
{
layerId = "0331963E-C1C8-4E93-A463-84B984C1D75E";
paths = (
{
closed = 1;
nodes = (
"918.333 1456 OFFCURVE",
"1093 1332.333 OFFCURVE",
"1093 1083 CURVE SMOOTH",
"1093 909.667 OFFCURVE",
"999.667 782.333 OFFCURVE",
"837 753 CURVE",
"1018.333 729 OFFCURVE",
"1159 577 OFFCURVE",
"1159 401 CURVE SMOOTH",
"1159 146.333 OFFCURVE",
"979.667 0 OFFCURVE",
"709 0 CURVE SMOOTH",
"71 0 LINE",
"71 54 LINE",
"234 54 LINE",
"234 1402 LINE",
"71 1402 LINE",
"71 1456 LINE",
"234 1456 LINE",
"617 1456 LINE SMOOTH"
);
},
{
closed = 1;
nodes = (
"288 54 LINE",
"709 54 LINE SMOOTH",
"954.333 54 OFFCURVE",
"1105 181.667 OFFCURVE",
"1105 399 CURVE SMOOTH",
"1105 577.667 OFFCURVE",
"963 719 OFFCURVE",
"719 719 CURVE SMOOTH",
"288 719 LINE"
);
},
{
closed = 1;
nodes = (
"637 773 LINE SMOOTH",
"902.333 773 OFFCURVE",
"1038 875 OFFCURVE",
"1038 1087 CURVE SMOOTH",
"1038 1295 OFFCURVE",
"894.333 1402 OFFCURVE",
"617 1402 CURVE SMOOTH",
"288 1402 LINE",
"288 773 LINE"
);
}
);
width = 1303;
},
{
layerId = "ED9AC664-5073-455E-9B15-F6014C59BAEB";
paths = (
{
closed = 1;
nodes = (
"1045.667 1456 OFFCURVE",
"1248 1322.333 OFFCURVE",
"1248 1057 CURVE SMOOTH",
"1248 922.333 OFFCURVE",
"1175 810.333 OFFCURVE",
"1039 757 CURVE",
"1213.667 719.667 OFFCURVE",
"1301 585.333 OFFCURVE",
"1301 424 CURVE SMOOTH",
"1301 145.333 OFFCURVE",
"1109.333 0 OFFCURVE",
"772 0 CURVE SMOOTH",
"56 0 LINE",
"56 175 LINE",
"211 205 LINE",
"211 1250 LINE",
"56 1280 LINE",
"56 1456 LINE",
"211 1456 LINE",
"703 1456 LINE SMOOTH"
);
},
{
closed = 1;
nodes = (
"503 224 LINE",
"772 224 LINE SMOOTH",
"926.667 224 OFFCURVE",
"1010 292 OFFCURVE",
"1010 424 CURVE SMOOTH",
"1010 566.667 OFFCURVE",
"943.333 644 OFFCURVE",
"794 644 CURVE SMOOTH",
"503 644 LINE"
);
},
{
closed = 1;
nodes = (
"713 846 LINE SMOOTH",
"869 846 OFFCURVE",
"956 911.333 OFFCURVE",
"956 1034 CURVE SMOOTH",
"956 1168.667 OFFCURVE",
"871 1231 OFFCURVE",
"703 1231 CURVE SMOOTH",
"503 1231 LINE",
"503 846 LINE"
);
}
);
width = 1354;
},
{
layerId = "B06AEEA2-953E-4FA5-BFB1-0445B6E4B274";
paths = (
{
closed = 1;
nodes = (
"1013 1456 OFFCURVE",
"1194 1325 OFFCURVE",
"1194 1062 CURVE SMOOTH",
"1194 933 OFFCURVE",
"1105 824 OFFCURVE",
"970 775 CURVE",
"1145 738 OFFCURVE",
"1253 590 OFFCURVE",
"1253 411 CURVE SMOOTH",
"1253 144 OFFCURVE",
"1067 0 OFFCURVE",
"771 0 CURVE SMOOTH",
"81 0 LINE",
"81 126 LINE",
"244 154 LINE",
"244 1301 LINE",
"81 1329 LINE",
"81 1456 LINE",
"244 1456 LINE",
"709 1456 LINE SMOOTH"
);
},
{
closed = 1;
nodes = (
"441 154 LINE",
"771 154 LINE SMOOTH",
"951 154 OFFCURVE",
"1055 246 OFFCURVE",
"1055 409 CURVE SMOOTH",
"1055 580 OFFCURVE",
"973 683 OFFCURVE",
"801 683 CURVE SMOOTH",
"441 683 LINE"
);
},
{
closed = 1;
nodes = (
"760 837 LINE SMOOTH",
"901 837 OFFCURVE",
"997 925 OFFCURVE",
"997 1066 CURVE SMOOTH",
"997 1223 OFFCURVE",
"896 1301 OFFCURVE",
"709 1301 CURVE SMOOTH",
"441 1301 LINE",
"441 837 LINE"
);
}
);
width = 1338;
},
{
layerId = "55372407-EEEC-4390-8B77-FB5958F23D2B";
paths = (
{
closed = 1;
nodes = (
"1066 1456 OFFCURVE",
"1282 1321 OFFCURVE",
"1282 1054 CURVE SMOOTH",
"1282 916 OFFCURVE",
"1218 802 OFFCURVE",
"1082 746 CURVE",
"1256 708 OFFCURVE",
"1331 582 OFFCURVE",
"1331 432 CURVE SMOOTH",
"1331 146 OFFCURVE",
"1136 0 OFFCURVE",
"773 0 CURVE SMOOTH",
"40 0 LINE",
"40 205 LINE",
"191 237 LINE",
"191 1218 LINE",
"40 1250 LINE",
"40 1456 LINE",
"191 1456 LINE",
"699 1456 LINE SMOOTH"
);
},
{
closed = 1;
nodes = (
"542 267 LINE",
"773 267 LINE SMOOTH",
"912 267 OFFCURVE",
"982 321 OFFCURVE",
"982 433 CURVE SMOOTH",
"982 558 OFFCURVE",
"925 620 OFFCURVE",
"790 620 CURVE SMOOTH",
"542 620 LINE"
);
},
{
closed = 1;
nodes = (
"684 852 LINE SMOOTH",
"849 852 OFFCURVE",
"931 903 OFFCURVE",
"931 1014 CURVE SMOOTH",
"931 1135 OFFCURVE",
"855 1188 OFFCURVE",
"699 1188 CURVE SMOOTH",
"542 1188 LINE",
"542 852 LINE"
);
}
);
width = 1364;
}
);
rightKerningGroup = B;
unicode = 0042;
},
{
glyphname = C;
lastChange = "2018-07-16 01:24:20 +0000";
layers = (
{
layerId = "0331963E-C1C8-4E93-A463-84B984C1D75E";
paths = (
{
closed = 1;
nodes = (
"1161 1062 LINE",
"1161 1296 LINE",
"1052 1377 OFFCURVE",
"957.667 1423 OFFCURVE",
"767 1423 CURVE SMOOTH",
"421.667 1423 OFFCURVE",
"184 1147 OFFCURVE",
"184 739 CURVE SMOOTH",
"184 719 LINE SMOOTH",
"184 309.667 OFFCURVE",
"410 33 OFFCURVE",
"791 33 CURVE SMOOTH",
"937 33 OFFCURVE",
"1081 73 OFFCURVE",
"1176 137 CURVE",
"1176 372 LINE",
"1231 372 LINE",
"1231 103 LINE",
"1105 19 OFFCURVE",
"958 -21 OFFCURVE",
"794 -21 CURVE SMOOTH",
"369 -21 OFFCURVE",
"130 280.333 OFFCURVE",
"130 719 CURVE SMOOTH",
"130 737 LINE SMOOTH",
"130 1177 OFFCURVE",
"387 1477 OFFCURVE",
"767 1477 CURVE SMOOTH",
"977.667 1477 OFFCURVE",
"1097 1423 OFFCURVE",
"1216 1319 CURVE",
"1216 1062 LINE"
);
}
);
width = 1348;
},
{
layerId = "ED9AC664-5073-455E-9B15-F6014C59BAEB";
paths = (
{
closed = 1;
nodes = (
"1032 955 LINE",
"1002 1176 LINE",
"936 1223 OFFCURVE",
"860 1252 OFFCURVE",
"741 1252 CURVE SMOOTH",
"509 1252 OFFCURVE",
"344 1060 OFFCURVE",
"344 754 CURVE SMOOTH",
"344 703 LINE SMOOTH",
"344 397 OFFCURVE",
"516 203 OFFCURVE",
"754 203 CURVE SMOOTH",
"869 203 OFFCURVE",
"939 224 OFFCURVE",
"1002 255 CURVE",
"1032 460 LINE",
"1249 460 LINE",
"1249 112 LINE",
"1148 37 OFFCURVE",
"974 -21 OFFCURVE",
"749 -21 CURVE SMOOTH",
"338 -21 OFFCURVE",
"52 259 OFFCURVE",
"52 703 CURVE SMOOTH",
"52 752 LINE SMOOTH",
"52 1174.667 OFFCURVE",
"326 1477 OFFCURVE",
"734 1477 CURVE SMOOTH",
"944 1477 OFFCURVE",
"1119 1422 OFFCURVE",
"1249 1307 CURVE",
"1249 955 LINE"
);
}
);
width = 1327;
},
{
layerId = "B06AEEA2-953E-4FA5-BFB1-0445B6E4B274";
paths = (
{
closed = 1;
nodes = (
"1017 1007 LINE",
"996 1237 LINE",
"932 1286 OFFCURVE",
"838 1314 OFFCURVE",
"721 1314 CURVE SMOOTH",
"435 1314 OFFCURVE",
"278 1077 OFFCURVE",
"278 740 CURVE SMOOTH",
"278 717 LINE SMOOTH",
"278 350 OFFCURVE",
"445 139 OFFCURVE",
"746 139 CURVE SMOOTH",
"839 139 OFFCURVE",
"935 164 OFFCURVE",
"994 200 CURVE",
"1016 403 LINE",
"1170 403 LINE",
"1170 87 LINE",
"1061 19 OFFCURVE",
"900 -21 OFFCURVE",
"739 -21 CURVE SMOOTH",
"300 -21 OFFCURVE",
"80 293 OFFCURVE",
"80 717 CURVE SMOOTH",
"80 738 LINE SMOOTH",
"80 1165 OFFCURVE",
"321 1477 OFFCURVE",
"722 1477 CURVE SMOOTH",
"910 1477 OFFCURVE",
"1071 1412 OFFCURVE",
"1174 1321 CURVE",
"1174 1007 LINE"
);
}
);
width = 1290;
},
{
layerId = "55372407-EEEC-4390-8B77-FB5958F23D2B";
paths = (
{
closed = 1;
nodes = (
"1041 923 LINE",
"1006 1138 LINE",
"938 1184 OFFCURVE",
"874 1213 OFFCURVE",
"753 1213 CURVE SMOOTH",
"555 1213 OFFCURVE",
"385 1049 OFFCURVE",
"385 763 CURVE SMOOTH",
"385 694 LINE SMOOTH",
"385 426 OFFCURVE",
"560 243 OFFCURVE",
"759 243 CURVE SMOOTH",
"888 243 OFFCURVE",
"941 261 OFFCURVE",
"1007 289 CURVE",
"1042 495 LINE",
"1298 495 LINE",
"1298 128 LINE",
"1202 48 OFFCURVE",
"1020 -21 OFFCURVE",
"755 -21 CURVE SMOOTH",
"362 -21 OFFCURVE",
"35 238 OFFCURVE",
"35 694 CURVE SMOOTH",
"35 761 LINE SMOOTH",
"35 1181 OFFCURVE",
"329 1477 OFFCURVE",
"741 1477 CURVE SMOOTH",
"965 1477 OFFCURVE",
"1149 1428 OFFCURVE",
"1296 1298 CURVE",
"1296 923 LINE"
);
}
);
width = 1350;
}
);
leftKerningGroup = C;
rightKerningGroup = C;
unicode = 0043;
userData = {
com.typemytype.robofont.layerData = {
mask = {
anchors = (
);
components = (
);
contours = (
{
points = (
{
segmentType = line;
smooth = 0;
x = 1256;
y = 992;
},
{
segmentType = line;
smooth = 0;
x = 1201;
y = 992;
},
{
segmentType = line;
smooth = 0;
x = 1201;
y = 1226;
},
{
smooth = 0;
x = 1111.66667;
y = 1346;
},
{
smooth = 0;
x = 957.66667;
y = 1423;
},
{
segmentType = curve;
smooth = 1;
x = 767;
y = 1423;
},
{
smooth = 0;
x = 421.66667;
y = 1423;
},
{
smooth = 0;
x = 184;
y = 1147;
},
{
segmentType = curve;
smooth = 1;
x = 184;
y = 739;
},
{
segmentType = line;
smooth = 1;
x = 184;
y = 719;
},
{
smooth = 0;
x = 184;
y = 309.66667;
},
{
smooth = 0;
x = 422.33333;
y = 33;
},
{
segmentType = curve;
smooth = 1;
x = 757;
y = 33;
},
{
smooth = 0;
x = 949;
y = 33;
},
{
smooth = 0;
x = 1113;
y = 110;
},
{
segmentType = curve;
smooth = 0;
x = 1201;
y = 230;
},
{
segmentType = line;
smooth = 0;
x = 1201;
y = 464;
},
{
segmentType = line;
smooth = 0;
x = 1256;
y = 464;
},
{
segmentType = line;
smooth = 0;
x = 1256;
y = 210;
},
{
smooth = 0;
x = 1158.66667;
y = 67.33333;
},
{
smooth = 0;
x = 970.33333;
y = -21;
},
{
segmentType = curve;
smooth = 1;
x = 757;
y = -21;
},
{
smooth = 0;
x = 387.66667;
y = -21;
},
{
smooth = 0;
x = 130;
y = 280.33333;
},
{
segmentType = curve;
smooth = 1;
x = 130;
y = 719;
},
{
segmentType = line;
smooth = 1;
x = 130;
y = 737;
},
{
smooth = 0;
x = 130;
y = 1177;
},
{
smooth = 0;
x = 387;
y = 1477;
},
{
segmentType = curve;
smooth = 1;
x = 767;
y = 1477;
},
{
smooth = 0;
x = 977.66667;
y = 1477;
},
{
smooth = 0;
x = 1157.33333;
y = 1388.66667;
},
{
segmentType = curve;
smooth = 0;
x = 1256;
y = 1246;
}
);
}
);
lib = {
};
name = C;
unicodes = (
);
width = 1348;
};
};
com.typemytype.robofont.mark = (
1,
0.1703,
0.1669,
0.8287
);
};
},
{
glyphname = D;
lastChange = "2018-07-15 19:02:34 +0000";
layers = (
{
layerId = "0331963E-C1C8-4E93-A463-84B984C1D75E";
paths = (
{
closed = 1;
nodes = (
"971.667 1456 OFFCURVE",
"1238 1189 OFFCURVE",
"1238 817 CURVE SMOOTH",
"1238 639 LINE SMOOTH",
"1238 265.667 OFFCURVE",
"971.667 0 OFFCURVE",
"637 0 CURVE SMOOTH",
"71 0 LINE",
"71 54 LINE",
"234 54 LINE",
"234 1402 LINE",
"71 1402 LINE",
"71 1456 LINE",
"234 1456 LINE",
"637 1456 LINE SMOOTH"
);
},
{
closed = 1;
nodes = (
"288 54 LINE",
"637 54 LINE SMOOTH",
"939.667 54 OFFCURVE",
"1184 301.667 OFFCURVE",
"1184 639 CURVE SMOOTH",
"1184 820 LINE SMOOTH",
"1184 1153.333 OFFCURVE",
"939.667 1402 OFFCURVE",
"637 1402 CURVE SMOOTH",
"288 1402 LINE"
);
}
);
width = 1386;
},
{
layerId = "ED9AC664-5073-455E-9B15-F6014C59BAEB";
paths = (
{
closed = 1;
nodes = (
"1067 1456 OFFCURVE",
"1324 1204 OFFCURVE",
"1324 848 CURVE SMOOTH",
"1324 607 LINE SMOOTH",
"1324 249.667 OFFCURVE",
"1067 0 OFFCURVE",
"711 0 CURVE SMOOTH",
"56 0 LINE",
"56 175 LINE",
"211 205 LINE",
"211 1250 LINE",
"56 1280 LINE",
"56 1456 LINE",
"211 1456 LINE",
"711 1456 LINE SMOOTH"
);
},
{
closed = 1;
nodes = (
"503 224 LINE",
"696 224 LINE SMOOTH",
"905.333 224 OFFCURVE",
"1031 379 OFFCURVE",
"1031 607 CURVE SMOOTH",
"1031 850 LINE SMOOTH",
"1031 1075.333 OFFCURVE",
"905.333 1231 OFFCURVE",
"696 1231 CURVE SMOOTH",
"503 1231 LINE"
);
}
);
width = 1411;
},
{
layerId = "B06AEEA2-953E-4FA5-BFB1-0445B6E4B274";
paths = (
{
closed = 1;
nodes = (
"1031 1456 OFFCURVE",
"1294 1188 OFFCURVE",
"1294 817 CURVE SMOOTH",
"1294 638 LINE SMOOTH",
"1294 275 OFFCURVE",
"1041 0 OFFCURVE",
"661 0 CURVE SMOOTH",
"81 0 LINE",
"81 126 LINE",
"244 154 LINE",
"244 1301 LINE",
"81 1329 LINE",
"81 1456 LINE",
"244 1456 LINE",
"651 1456 LINE SMOOTH"
);
},
{
closed = 1;
nodes = (
"441 154 LINE",
"651 154 LINE SMOOTH",
"920 154 OFFCURVE",
"1097 371 OFFCURVE",
"1097 638 CURVE SMOOTH",
"1097 819 LINE SMOOTH",
"1097 1094 OFFCURVE",
"920 1301 OFFCURVE",
"651 1301 CURVE SMOOTH",
"441 1301 LINE"
);
}
);
width = 1359;
},
{
layerId = "55372407-EEEC-4390-8B77-FB5958F23D2B";
paths = (
{
closed = 1;
nodes = (
"1089 1456 OFFCURVE",
"1343 1214 OFFCURVE",
"1343 867 CURVE SMOOTH",
"1343 588 LINE SMOOTH",
"1343 234 OFFCURVE",
"1083 0 OFFCURVE",
"742 0 CURVE SMOOTH",
"40 0 LINE",
"40 205 LINE",
"191 237 LINE",
"191 1218 LINE",
"40 1250 LINE",
"40 1456 LINE",
"191 1456 LINE",
"748 1456 LINE SMOOTH"
);
},
{
closed = 1;
nodes = (
"542 267 LINE",
"724 267 LINE SMOOTH",
"896 267 OFFCURVE",
"990 384 OFFCURVE",
"990 588 CURVE SMOOTH",
"990 869 LINE SMOOTH",
"990 1064 OFFCURVE",
"896 1188 OFFCURVE",
"724 1188 CURVE SMOOTH",
"542 1188 LINE"
);
}
);
width = 1443;
}
);
rightKerningGroup = D;
unicode = 0044;
},
{
glyphname = E;
lastChange = "2018-07-15 19:02:34 +0000";
layers = (
{
layerId = "0331963E-C1C8-4E93-A463-84B984C1D75E";
paths = (
{
closed = 1;
nodes = (
"71 54 LINE",
"234 54 LINE",
"234 1402 LINE",
"71 1402 LINE",
"71 1456 LINE",
"1090 1456 LINE",
"1090 1163 LINE",
"1036 1163 LINE",
"1036 1402 LINE",
"288 1402 LINE",
"288 786 LINE",
"918 786 LINE",
"918 732 LINE",
"288 732 LINE",
"288 54 LINE",
"1066 54 LINE",
"1066 293 LINE",
"1120 293 LINE",
"1120 0 LINE",
"71 0 LINE"
);
}
);
width = 1270;
},
{
layerId = "ED9AC664-5073-455E-9B15-F6014C59BAEB";
paths = (
{
closed = 1;
nodes = (
"56 175 LINE",
"211 205 LINE",
"211 1250 LINE",
"56 1280 LINE",
"56 1456 LINE",
"1186 1456 LINE",
"1186 1063 LINE",
"962 1063 LINE",
"949 1231 LINE",
"503 1231 LINE",
"503 865 LINE",
"996 865 LINE",
"996 640 LINE",
"503 640 LINE",
"503 224 LINE",
"973 224 LINE",
"986 398 LINE",
"1208 398 LINE",
"1208 0 LINE",
"56 0 LINE"
);
}
);
width = 1308;
},
{
layerId = "B06AEEA2-953E-4FA5-BFB1-0445B6E4B274";
paths = (
{
closed = 1;
nodes = (
"81 126 LINE",
"244 154 LINE",
"244 1301 LINE",
"81 1329 LINE",
"81 1456 LINE",
"1159 1456 LINE",
"1159 1106 LINE",
"1001 1106 LINE",
"979 1304 LINE",
"441 1304 LINE",
"441 830 LINE",
"978 830 LINE",
"978 675 LINE",
"441 675 LINE",
"441 148 LINE",
"1011 148 LINE",
"1033 349 LINE",
"1190 349 LINE",
"1190 0 LINE",
"81 0 LINE"
);
}
);
width = 1306;
},
{
layerId = "55372407-EEEC-4390-8B77-FB5958F23D2B";
paths = (
{
closed = 1;
nodes = (
"40 205 LINE",
"191 237 LINE",
"191 1218 LINE",
"40 1250 LINE",
"40 1456 LINE",
"1203 1456 LINE",
"1203 1036 LINE",
"938 1036 LINE",
"930 1186 LINE",
"542 1186 LINE",
"542 887 LINE",
"1007 887 LINE",
"1007 618 LINE",
"542 618 LINE",
"542 271 LINE",
"949 271 LINE",
"957 428 LINE",
"1219 428 LINE",
"1219 0 LINE",
"40 0 LINE"
);
}
);
width = 1309;
}
);
rightKerningGroup = E;
unicode = 0045;
userData = {
com.typemytype.robofont.layerData = {
mask = {
anchors = (
);
components = (
);
contours = (
{
points = (
{
segmentType = line;
smooth = 0;
x = 71;
y = 0;
},
{
segmentType = line;
smooth = 0;
x = 71;
y = 54;
},
{
segmentType = line;
smooth = 0;
x = 234;
y = 54;
},
{
segmentType = line;
smooth = 0;
x = 234;
y = 1402;
},
{
segmentType = line;
smooth = 0;
x = 71;
y = 1402;
},
{
segmentType = line;
smooth = 0;
x = 71;
y = 1456;
},
{
segmentType = line;
smooth = 0;
x = 1120;
y = 1456;
},
{
segmentType = line;
smooth = 0;
x = 1120;
y = 1163;
},
{
segmentType = line;
smooth = 0;
x = 1066;
y = 1163;
},
{
segmentType = line;
smooth = 0;
x = 1066;
y = 1402;
},
{
segmentType = line;
smooth = 0;
x = 288;
y = 1402;
},
{
segmentType = line;
smooth = 0;
x = 288;
y = 786;
},
{
segmentType = line;
smooth = 0;
x = 918;
y = 786;
},
{
segmentType = line;
smooth = 0;
x = 918;
y = 732;
},
{
segmentType = line;
smooth = 0;
x = 288;
y = 732;
},
{
segmentType = line;
smooth = 0;
x = 288;
y = 54;
},
{
segmentType = line;
smooth = 0;
x = 1066;
y = 54;
},
{
segmentType = line;
smooth = 0;
x = 1066;
y = 293;
},
{
segmentType = line;
smooth = 0;
x = 1120;
y = 293;
},
{
segmentType = line;
smooth = 0;
x = 1120;
y = 0;
}
);
}
);
lib = {
};
name = E;
unicodes = (
);
width = 1270;
};
};
com.typemytype.robofont.mark = (
1,
0.1703,
0.1669,
0.8287
);
};
},
{
glyphname = F;
lastChange = "2018-07-15 19:02:34 +0000";
layers = (
{
layerId = "0331963E-C1C8-4E93-A463-84B984C1D75E";
paths = (
{
closed = 1;
nodes = (
"234 54 LINE",
"234 1402 LINE",
"71 1402 LINE",
"71 1456 LINE",
"1136 1456 LINE",
"1136 1163 LINE",
"1082 1163 LINE",
"1082 1402 LINE",
"288 1402 LINE",
"288 772 LINE",
"934 772 LINE",
"934 716 LINE",
"288 716 LINE",
"288 54 LINE",
"451 54 LINE",
"451 0 LINE",
"71 0 LINE",
"71 54 LINE"
);
}
);
width = 1246;
},
{
layerId = "ED9AC664-5073-455E-9B15-F6014C59BAEB";
paths = (
{
closed = 1;
nodes = (
"211 205 LINE",
"211 1250 LINE",
"56 1280 LINE",
"56 1456 LINE",
"1215 1456 LINE",
"1215 1057 LINE",
"991 1057 LINE",
"978 1231 LINE",
"503 1231 LINE",
"503 830 LINE",
"1013 830 LINE",
"1013 605 LINE",
"503 605 LINE",
"503 205 LINE",
"659 175 LINE",
"659 0 LINE",
"56 0 LINE",
"56 175 LINE"
);
}
);
width = 1265;
},
{
layerId = "B06AEEA2-953E-4FA5-BFB1-0445B6E4B274";
paths = (
{
closed = 1;
nodes = (
"244 154 LINE",
"244 1301 LINE",
"81 1329 LINE",
"81 1456 LINE",
"1176 1456 LINE",
"1176 1106 LINE",
"1018 1106 LINE",
"996 1303 LINE",
"441 1303 LINE",
"441 799 LINE",
"974 799 LINE",
"974 644 LINE",
"441 644 LINE",
"441 154 LINE",
"604 126 LINE",
"604 0 LINE",
"81 0 LINE",
"81 126 LINE"
);
}
);
width = 1256;
},
{
layerId = "55372407-EEEC-4390-8B77-FB5958F23D2B";
paths = (
{
closed = 1;
nodes = (
"191 237 LINE",
"191 1218 LINE",
"40 1250 LINE",
"40 1456 LINE",
"1239 1456 LINE",
"1239 1027 LINE",
"974 1027 LINE",
"967 1186 LINE",
"542 1186 LINE",
"542 849 LINE",
"1037 849 LINE",
"1037 581 LINE",
"542 581 LINE",
"542 237 LINE",
"693 205 LINE",
"693 0 LINE",
"40 0 LINE",
"40 205 LINE"
);
}
);
width = 1271;
}
);
unicode = 0046;
},
{
glyphname = G;
lastChange = "2018-07-15 19:02:34 +0000";
layers = (
{
layerId = "0331963E-C1C8-4E93-A463-84B984C1D75E";
paths = (
{
closed = 1;
nodes = (
"1126 37 OFFCURVE",
"976 -21 OFFCURVE",
"770 -21 CURVE SMOOTH",
"372 -21 OFFCURVE",
"130 280 OFFCURVE",
"130 720 CURVE SMOOTH",
"130 758 LINE SMOOTH",
"130 1183.333 OFFCURVE",
"394 1477 OFFCURVE",
"754 1477 CURVE SMOOTH",
"959 1477 OFFCURVE",
"1093 1417 OFFCURVE",
"1213 1324 CURVE",
"1213 1072 LINE",
"1159 1072 LINE",
"1159 1296 LINE",
"1060 1373 OFFCURVE",
"948 1423 OFFCURVE",
"754 1423 CURVE SMOOTH",
"430 1423 OFFCURVE",
"184 1150.667 OFFCURVE",
"184 760 CURVE SMOOTH",
"184 720 LINE SMOOTH",
"184 313.333 OFFCURVE",
"400 33 OFFCURVE",
"768 33 CURVE SMOOTH",
"946 33 OFFCURVE",
"1093 84 OFFCURVE",
"1194 141 CURVE",
"1194 565 LINE",
"879 565 LINE",
"879 620 LINE",
"1248 620 LINE",
"1248 111 LINE"
);
}
);
width = 1417;
},
{
layerId = "ED9AC664-5073-455E-9B15-F6014C59BAEB";
paths = (
{
closed = 1;
nodes = (
"1168 40 OFFCURVE",
"989.333 -21 OFFCURVE",
"712 -21 CURVE SMOOTH",
"318.667 -21 OFFCURVE",
"47 268.667 OFFCURVE",
"47 690 CURVE SMOOTH",
"47 740 LINE SMOOTH",
"47 1176 OFFCURVE",
"314 1477 OFFCURVE",
"696 1477 CURVE SMOOTH",
"924 1477 OFFCURVE",
"1110 1419 OFFCURVE",
"1244 1305 CURVE",
"1244 982 LINE",
"1028 982 LINE",
"987 1177 LINE",
"934 1222 OFFCURVE",
"844 1252 OFFCURVE",
"731 1252 CURVE SMOOTH",
"486 1252 OFFCURVE",
"338 1046 OFFCURVE",
"338 742 CURVE SMOOTH",
"338 690 LINE SMOOTH",
"338 394 OFFCURVE",
"480.667 203 OFFCURVE",
"742 203 CURVE SMOOTH",
"859.333 203 OFFCURVE",
"949 226 OFFCURVE",
"990 253 CURVE",
"990 500 LINE",
"782 516 LINE",
"782 721 LINE",
"1283 721 LINE",
"1283 132 LINE"
);
}
);
width = 1373;
},
{
layerId = "B06AEEA2-953E-4FA5-BFB1-0445B6E4B274";
paths = (
{
closed = 1;
nodes = (
"1142 57 OFFCURVE",
"991 -21 OFFCURVE",
"738 -21 CURVE SMOOTH",
"333 -21 OFFCURVE",
"80 280 OFFCURVE",
"80 716 CURVE SMOOTH",
"80 740 LINE SMOOTH",
"80 1179 OFFCURVE",
"342 1477 OFFCURVE",
"699 1477 CURVE SMOOTH",
"925 1477 OFFCURVE",
"1078 1421 OFFCURVE",
"1190 1333 CURVE",
"1190 1039 LINE",
"1028 1039 LINE",
"1007 1250 LINE",
"942 1293 OFFCURVE",
"848 1315 OFFCURVE",
"719 1315 CURVE SMOOTH",
"469 1315 OFFCURVE",
"278 1085 OFFCURVE",
"278 742 CURVE SMOOTH",
"278 716 LINE SMOOTH",
"278 368 OFFCURVE",
"443 140 OFFCURVE",
"738 140 CURVE SMOOTH",
"871 140 OFFCURVE",
"958 166 OFFCURVE",
"1029 203 CURVE",
"1029 545 LINE",
"750 555 LINE",
"750 700 LINE",
"1226 700 LINE",
"1226 136 LINE"
);
}
);
width = 1346;
},
{
layerId = "55372407-EEEC-4390-8B77-FB5958F23D2B";
paths = (
{
closed = 1;
nodes = (
"1184 29 OFFCURVE",
"988 -21 OFFCURVE",
"696 -21 CURVE SMOOTH",
"310 -21 OFFCURVE",
"27 262 OFFCURVE",
"27 674 CURVE SMOOTH",
"27 740 LINE SMOOTH",
"27 1174 OFFCURVE",
"297 1477 OFFCURVE",
"694 1477 CURVE SMOOTH",
"923 1477 OFFCURVE",
"1130 1418 OFFCURVE",
"1278 1288 CURVE",
"1278 947 LINE",
"1028 947 LINE",
"975 1132 LINE",
"929 1178 OFFCURVE",
"842 1213 OFFCURVE",
"738 1213 CURVE SMOOTH",
"497 1213 OFFCURVE",
"375 1022 OFFCURVE",
"375 742 CURVE SMOOTH",
"375 674 LINE SMOOTH",
"375 410 OFFCURVE",
"504 242 OFFCURVE",
"744 242 CURVE SMOOTH",
"852 242 OFFCURVE",
"943 263 OFFCURVE",
"966 284 CURVE",
"966 472 LINE",
"802 492 LINE",
"802 734 LINE",
"1318 734 LINE",
"1318 130 LINE"
);
}
);
width = 1390;
}
);
leftKerningGroup = C;
unicode = 0047;
userData = {
com.typemytype.robofont.layerData = {
mask = {
anchors = (
);
components = (
);
contours = (
{
points = (
{
segmentType = line;
smooth = 0;
x = 1248;
y = 156;
},
{
smooth = 0;
x = 1186.66667;
y = 70.66667;
},
{
smooth = 0;
x = 1004.33333;
y = -21;
},
{
segmentType = curve;
smooth = 1;
x = 751;
y = -21;
},
{
smooth = 0;
x = 381.66667;
y = -21;
},
{
smooth = 0;
x = 130;
y = 280;
},
{
segmentType = curve;
smooth = 1;
x = 130;
y = 720;
},
{
segmentType = line;
smooth = 1;
x = 130;
y = 758;
},
{
smooth = 0;
x = 130;
y = 1183.33333;
},
{
smooth = 0;
x = 383.33333;
y = 1477;
},
{
segmentType = curve;
smooth = 1;
x = 754;
y = 1477;
},
{
smooth = 0;
x = 975.33333;
y = 1477;
},
{
smooth = 0;
x = 1151.66667;
y = 1397.33333;
},
{
segmentType = curve;
smooth = 0;
x = 1253;
y = 1256;
},
{
segmentType = line;
smooth = 0;
x = 1253;
y = 1012;
},
{
segmentType = line;
smooth = 0;
x = 1199;
y = 1012;
},
{
segmentType = line;
smooth = 0;
x = 1200;
y = 1236;
},
{
smooth = 0;
x = 1108;
y = 1354.66667;
},
{
smooth = 0;
x = 955.33333;
y = 1423;
},
{
segmentType = curve;
smooth = 1;
x = 754;
y = 1423;
},
{
smooth = 0;
x = 411.33333;
y = 1423;
},
{
smooth = 0;
x = 184;
y = 1150.66667;
},
{
segmentType = curve;
smooth = 1;
x = 184;
y = 760;
},
{
segmentType = line;
smooth = 1;
x = 184;
y = 720;
},
{
smooth = 0;
x = 184;
y = 313.33333;
},
{
smooth = 0;
x = 409.66667;
y = 33;
},
{
segmentType = curve;
smooth = 1;
x = 751;
y = 33;
},
{
smooth = 0;
x = 965.66667;
y = 33;
},
{
smooth = 0;
x = 1139.33333;
y = 109;
},
{
segmentType = curve;
smooth = 0;
x = 1194;
y = 181;
},
{
segmentType = line;
smooth = 0;
x = 1194;
y = 565;
},
{
segmentType = line;
smooth = 0;
x = 879;
y = 565;
},
{
segmentType = line;
smooth = 0;
x = 879;
y = 620;
},
{
segmentType = line;
smooth = 0;
x = 1248;
y = 620;
}
);
}
);
lib = {
};
name = G;
unicodes = (
);
width = 1417;
};
};
com.typemytype.robofont.mark = (
1,
0.1703,
0.1669,
0.8287
);
};
},
{
glyphname = H;
lastChange = "2018-07-15 19:02:34 +0000";
layers = (
{
layerId = "0331963E-C1C8-4E93-A463-84B984C1D75E";
paths = (
{
closed = 1;
nodes = (
"71 1456 LINE",
"451 1456 LINE",
"451 1402 LINE",
"288 1402 LINE",
"288 749 LINE",
"1218 749 LINE",
"1218 1402 LINE",
"1055 1402 LINE",
"1055 1456 LINE",
"1218 1456 LINE",
"1272 1456 LINE",
"1435 1456 LINE",
"1435 1402 LINE",
"1272 1402 LINE",
"1272 54 LINE",
"1435 54 LINE",
"1435 0 LINE",
"1055 0 LINE",
"1055 54 LINE",
"1218 54 LINE",
"1218 695 LINE",
"288 695 LINE",
"288 54 LINE",
"451 54 LINE",
"451 0 LINE",
"71 0 LINE",
"71 54 LINE",
"234 54 LINE",
"234 1402 LINE",
"71 1402 LINE"
);
}
);
width = 1506;
},
{
layerId = "ED9AC664-5073-455E-9B15-F6014C59BAEB";
paths = (
{
closed = 1;
nodes = (
"56 1456 LINE",
"659 1456 LINE",
"659 1280 LINE",
"503 1250 LINE",
"503 830 LINE",
"1097 830 LINE",
"1097 1250 LINE",
"941 1280 LINE",
"941 1456 LINE",
"1097 1456 LINE",
"1388 1456 LINE",
"1544 1456 LINE",
"1544 1280 LINE",
"1388 1250 LINE",
"1388 205 LINE",
"1544 175 LINE",
"1544 0 LINE",
"941 0 LINE",
"941 175 LINE",
"1097 205 LINE",
"1097 605 LINE",
"503 605 LINE",
"503 205 LINE",
"659 175 LINE",
"659 0 LINE",
"56 0 LINE",
"56 175 LINE",
"211 205 LINE",
"211 1250 LINE",
"56 1280 LINE"
);
}
);
width = 1601;
},
{
layerId = "B06AEEA2-953E-4FA5-BFB1-0445B6E4B274";
paths = (
{
closed = 1;
nodes = (
"81 1456 LINE",
"604 1456 LINE",
"604 1329 LINE",
"441 1301 LINE",
"441 798 LINE",
"1137 798 LINE",
"1137 1301 LINE",
"974 1329 LINE",
"974 1456 LINE",
"1137 1456 LINE",
"1334 1456 LINE",
"1497 1456 LINE",
"1497 1329 LINE",
"1334 1301 LINE",
"1334 154 LINE",
"1497 126 LINE",
"1497 0 LINE",
"974 0 LINE",
"974 126 LINE",
"1137 154 LINE",
"1137 643 LINE",
"441 643 LINE",
"441 154 LINE",
"604 126 LINE",
"604 0 LINE",
"81 0 LINE",
"81 126 LINE",
"244 154 LINE",
"244 1301 LINE",
"81 1329 LINE"
);
}
);
width = 1578;
},
{
layerId = "55372407-EEEC-4390-8B77-FB5958F23D2B";
paths = (
{
closed = 1;
nodes = (
"40 1456 LINE",
"693 1456 LINE",
"693 1250 LINE",
"542 1218 LINE",
"542 850 LINE",
"1072 850 LINE",
"1072 1218 LINE",
"921 1250 LINE",
"921 1456 LINE",
"1072 1456 LINE",
"1422 1456 LINE",
"1573 1456 LINE",
"1573 1250 LINE",
"1422 1218 LINE",
"1422 237 LINE",
"1573 205 LINE",
"1573 0 LINE",
"921 0 LINE",
"921 205 LINE",
"1072 237 LINE",
"1072 581 LINE",
"542 581 LINE",
"542 237 LINE",
"693 205 LINE",
"693 0 LINE",
"40 0 LINE",
"40 205 LINE",
"191 237 LINE",
"191 1218 LINE",
"40 1250 LINE"
);
}
);
width = 1615;
}
);
rightKerningGroup = Eta;
unicode = 0048;
},
{
glyphname = I;
lastChange = "2018-07-15 19:02:34 +0000";
layers = (
{
layerId = "0331963E-C1C8-4E93-A463-84B984C1D75E";
paths = (
{
closed = 1;
nodes = (
"109 1456 LINE",
"489 1456 LINE",
"489 1402 LINE",
"326 1402 LINE",
"326 54 LINE",
"489 54 LINE",
"489 0 LINE",
"109 0 LINE",
"109 54 LINE",
"272 54 LINE",
"272 1402 LINE",
"109 1402 LINE"
);
}
);
width = 598;
},
{
layerId = "ED9AC664-5073-455E-9B15-F6014C59BAEB";
paths = (
{
closed = 1;
nodes = (
"55 1456 LINE",
"658 1456 LINE",
"658 1280 LINE",
"502 1250 LINE",
"502 205 LINE",
"658 175 LINE",
"658 0 LINE",
"55 0 LINE",
"55 175 LINE",
"211 205 LINE",
"211 1250 LINE",
"55 1280 LINE"
);
}
);
width = 713;
},
{
layerId = "B06AEEA2-953E-4FA5-BFB1-0445B6E4B274";
paths = (
{
closed = 1;
nodes = (
"120 1456 LINE",
"643 1456 LINE",
"643 1329 LINE",
"480 1301 LINE",
"480 154 LINE",
"643 126 LINE",
"643 0 LINE",
"120 0 LINE",
"120 126 LINE",
"283 154 LINE",
"283 1301 LINE",
"120 1329 LINE"
);
}
);
width = 763;
},
{
layerId = "55372407-EEEC-4390-8B77-FB5958F23D2B";
paths = (
{
closed = 1;
nodes = (
"15 1456 LINE",
"667 1456 LINE",
"667 1250 LINE",
"516 1218 LINE",
"516 237 LINE",
"667 205 LINE",
"667 0 LINE",
"15 0 LINE",
"15 205 LINE",
"166 237 LINE",
"166 1218 LINE",
"15 1250 LINE"
);
}
);
width = 682;
}
);
rightKerningGroup = Eta;
unicode = 0049;
},
{
glyphname = J;
lastChange = "2018-07-15 19:02:34 +0000";
layers = (
{
layerId = "0331963E-C1C8-4E93-A463-84B984C1D75E";
paths = (
{
closed = 1;
nodes = (
"1043 1402 LINE",
"880 1402 LINE",
"880 422 LINE SMOOTH",
"880 151.333 OFFCURVE",
"711 -21 OFFCURVE",
"471 -21 CURVE SMOOTH",
"204.333 -21 OFFCURVE",
"39.333 123 OFFCURVE",
"46 395 CURVE",
"48 401 LINE",
"94 401 LINE",
"94 163.667 OFFCURVE",
"227 33 OFFCURVE",
"471 33 CURVE SMOOTH",
"675 33 OFFCURVE",
"826 183.333 OFFCURVE",
"826 422 CURVE SMOOTH",
"826 1402 LINE",
"640 1402 LINE",
"640 1456 LINE",
"1043 1456 LINE"
);
}
);
width = 1137;
},
{
layerId = "ED9AC664-5073-455E-9B15-F6014C59BAEB";
paths = (
{
closed = 1;
nodes = (
"1175 1280 LINE",
"1019 1250 LINE",
"1019 437 LINE SMOOTH",
"1019 156 OFFCURVE",
"853 -21 OFFCURVE",
"553 -21 CURVE SMOOTH",
"249 -21 OFFCURVE",
"47 131 OFFCURVE",
"35 457 CURVE",
"37 463 LINE",
"311 463 LINE",
"321 272 OFFCURVE",
"400 207 OFFCURVE",
"524 207 CURVE SMOOTH",
"642 207 OFFCURVE",
"728 285 OFFCURVE",
"728 437 CURVE SMOOTH",
"728 1250 LINE",
"532 1280 LINE",
"532 1456 LINE",
"1175 1456 LINE"
);
}
);
width = 1202;
},
{
layerId = "B06AEEA2-953E-4FA5-BFB1-0445B6E4B274";
paths = (
{
closed = 1;
nodes = (
"1100 1329 LINE",
"937 1301 LINE",
"937 413 LINE SMOOTH",
"937 152 OFFCURVE",
"787 -21 OFFCURVE",
"503 -21 CURVE SMOOTH",
"260 -21 OFFCURVE",
"72 122 OFFCURVE",
"60 415 CURVE",
"62 421 LINE",
"251 421 LINE",
"256 225 OFFCURVE",
"343 136 OFFCURVE",
"500 136 CURVE SMOOTH",
"665 136 OFFCURVE",
"740 250 OFFCURVE",
"740 413 CURVE SMOOTH",
"740 1301 LINE",
"546 1327 LINE",
"546 1456 LINE",
"1100 1456 LINE"
);
}
);
width = 1169;
},
{
layerId = "55372407-EEEC-4390-8B77-FB5958F23D2B";
paths = (
{
closed = 1;
nodes = (
"1222 1250 LINE",
"1070 1218 LINE",
"1070 452 LINE SMOOTH",
"1070 158 OFFCURVE",
"894 -21 OFFCURVE",
"584 -21 CURVE SMOOTH",
"242 -21 OFFCURVE",
"31 137 OFFCURVE",
"19 483 CURVE",
"21 489 LINE",
"348 489 LINE",
"361 301 OFFCURVE",
"435 251 OFFCURVE",
"539 251 CURVE SMOOTH",
"628 251 OFFCURVE",
"721 307 OFFCURVE",
"721 452 CURVE SMOOTH",
"721 1218 LINE",
"523 1251 LINE",
"523 1456 LINE",
"1222 1456 LINE"
);
}
);
width = 1222;
}
);
leftKerningGroup = J;
rightKerningGroup = J;
unicode = 004A;
userData = {
com.typemytype.robofont.layerData = {
mask = {
anchors = (
);
components = (
);
contours = (
{
points = (
{
segmentType = line;
smooth = 0;
x = 1043;
y = 1456;
},
{
segmentType = line;
smooth = 0;
x = 1043;
y = 1402;
},
{
segmentType = line;
smooth = 0;
x = 880;
y = 1402;
},
{
segmentType = line;
smooth = 1;
x = 880;
y = 422;
},
{
smooth = 0;
x = 880;
y = 151.33333;
},
{
smooth = 0;
x = 711;
y = -21;
},
{
segmentType = curve;
smooth = 1;
x = 471;
y = -21;
},
{
smooth = 0;
x = 204.33333;
y = -21;
},
{
smooth = 0;
x = 39.33333;
y = 123;
},
{
segmentType = curve;
smooth = 0;
x = 46;
y = 395;
},
{
segmentType = line;
smooth = 0;
x = 48;
y = 401;
},
{
segmentType = line;
smooth = 0;
x = 94;
y = 401;
},
{
smooth = 0;
x = 94;
y = 163.66667;
},
{
smooth = 0;
x = 227;
y = 33;
},
{
segmentType = curve;
smooth = 1;
x = 471;
y = 33;
},
{
smooth = 0;
x = 675;
y = 33;
},
{
smooth = 0;
x = 826;
y = 183.33333;
},
{
segmentType = curve;
smooth = 1;
x = 826;
y = 422;
},
{
segmentType = line;
smooth = 0;
x = 826;
y = 1402;
},
{
segmentType = line;
smooth = 0;
x = 663;
y = 1402;
},
{
segmentType = line;
smooth = 0;
x = 663;
y = 1456;
}
);
}
);
lib = {
};
name = J;
unicodes = (
);
width = 1137;
};
};
com.typemytype.robofont.mark = (
1,
0.1703,
0.1669,
0.8287
);
};
},
{
color = 3;
glyphname = K;
lastChange = "2018-07-16 14:22:47 +0000";
layers = (
{
layerId = "0331963E-C1C8-4E93-A463-84B984C1D75E";
paths = (
{
closed = 1;
nodes = (
"250 453 LINE",
"1091 1397 LINE",
"1089 1402 LINE",
"921 1402 LINE",
"921 1456 LINE",
"1282 1456 LINE",
"1282 1402 LINE",
"1167 1402 LINE",
"270 391 LINE"
);
},
{
closed = 1;
nodes = (
"288 54 LINE",
"451 54 LINE",
"451 0 LINE",
"71 0 LINE",
"71 54 LINE",
"234 54 LINE",
"234 1402 LINE",
"71 1402 LINE",
"71 1456 LINE",
"451 1456 LINE",
"451 1402 LINE",
"288 1402 LINE"
);
},
{
closed = 1;
nodes = (
"641 832 LINE",
"1210 54 LINE",
"1328 54 LINE",
"1328 0 LINE",
"967 0 LINE",
"967 54 LINE",
"1130 54 LINE",
"1133 60 LINE",
"591 803 LINE"
);
}
);
width = 1388;
},
{
layerId = "ED9AC664-5073-455E-9B15-F6014C59BAEB";
paths = (
{
closed = 1;
nodes = (
"291 530 LINE",
"1004 1265 LINE",
"1006 1268 LINE",
"863 1280 LINE",
"863 1456 LINE",
"1461 1456 LINE",
"1461 1280 LINE",
"1324 1253 LINE",
"442 357 LINE"
);
},
{
closed = 1;
nodes = (
"503 205 LINE",
"651 175 LINE",
"651 0 LINE",
"56 0 LINE",
"56 175 LINE",
"211 205 LINE",
"211 1250 LINE",
"56 1280 LINE",
"56 1456 LINE",
"651 1456 LINE",
"651 1280 LINE",
"503 1250 LINE"
);
},
{
closed = 1;
nodes = (
"854 890 LINE",
"1368 200 LINE",
"1511 175 LINE",
"1511 0 LINE",
"892 0 LINE",
"892 175 LINE",
"1028 187 LINE",
"1029 187 LINE",
"661 697 LINE"
);
}
);
width = 1542;
},
{
layerId = "B06AEEA2-953E-4FA5-BFB1-0445B6E4B274";
paths = (
{
closed = 1;
nodes = (
"322 543 LINE",
"1013 1310 LINE",
"1017 1315 LINE",
"908 1329 LINE",
"908 1456 LINE",
"1375 1456 LINE",
"1375 1329 LINE",
"1238 1304 LINE",
"427 421 LINE"
);
},
{
closed = 1;
nodes = (
"441 154 LINE",
"604 126 LINE",
"604 0 LINE",
"81 0 LINE",
"81 126 LINE",
"244 154 LINE",
"244 1301 LINE",
"81 1329 LINE",
"81 1456 LINE",
"604 1456 LINE",
"604 1329 LINE",
"441 1301 LINE"
);
},
{
closed = 1;
nodes = (
"767 855 LINE",
"1293 151 LINE",
"1427 126 LINE",
"1427 0 LINE",
"941 0 LINE",
"941 126 LINE",
"1061 140 LINE",
"1060 141 LINE",
"657 700 LINE"
);
}
);
width = 1501;
},
{
associatedMasterId = "B06AEEA2-953E-4FA5-BFB1-0445B6E4B274";
layerId = "6A68A2F1-C38C-4583-9967-AAA2412492F3";
name = "Jul 13 18, 23:20";
paths = (
{
closed = 1;
nodes = (
"244 154 LINE",
"244 1301 LINE",
"81 1329 LINE",
"81 1456 LINE",
"604 1456 LINE",
"604 1329 LINE",
"441 1301 LINE",
"441 812 LINE",
"592 812 LINE",
"995 1310 LINE",
"999 1315 LINE",
"890 1329 LINE",
"890 1456 LINE",
"1352 1456 LINE",
"1352 1329 LINE",
"1215 1304 LINE",
"770 752 LINE",
"1282 151 LINE",
"1416 126 LINE",
"1416 0 LINE",
"935 0 LINE",
"935 126 LINE",
"1055 140 LINE",
"1054 141 LINE",
"614 657 LINE",
"441 657 LINE",
"441 154 LINE",
"604 126 LINE",
"604 0 LINE",
"81 0 LINE",
"81 126 LINE"
);
}
);
width = 1496;
},
{
associatedMasterId = "ED9AC664-5073-455E-9B15-F6014C59BAEB";
layerId = "DF4966BC-9C85-4768-8580-9D1D6BA873B7";
name = "Jul 15 18, 14:09";
paths = (
{
closed = 1;
nodes = (
"211 205 LINE",
"211 1250 LINE",
"56 1280 LINE",
"56 1456 LINE",
"651 1456 LINE",
"651 1280 LINE",
"503 1250 LINE",
"503 859 LINE",
"665 859 LINE",
"1015 1265 LINE",
"1017 1268 LINE",
"874 1280 LINE",
"874 1456 LINE",
"1451 1456 LINE",
"1451 1280 LINE",
"1314 1253 LINE",
"904 771 LINE",
"1390 200 LINE",
"1533 175 LINE",
"1533 0 LINE",
"897 0 LINE",
"897 175 LINE",
"1033 187 LINE",
"1034 187 LINE",
"672 616 LINE",
"503 616 LINE",
"503 205 LINE",
"651 175 LINE",
"651 0 LINE",
"56 0 LINE",
"56 175 LINE"
);
}
);
width = 1564;
},
{
associatedMasterId = "0331963E-C1C8-4E93-A463-84B984C1D75E";
layerId = "9C8E707A-49D7-4166-AC9D-BDAB1C485813";
name = "Jul 15 18, 14:09";
paths = (
{
closed = 1;
nodes = (
"234 54 LINE",
"234 1402 LINE",
"71 1402 LINE",
"71 1456 LINE",
"451 1456 LINE",
"451 1402 LINE",
"288 1402 LINE",
"288 764 LINE",
"526 764 LINE",
"1091 1397 LINE",
"1089 1402 LINE",
"921 1402 LINE",
"921 1456 LINE",
"1282 1456 LINE",
"1282 1402 LINE",
"1167 1402 LINE",
"571 730 LINE",
"1210 54 LINE",
"1328 54 LINE",
"1328 0 LINE",
"967 0 LINE",
"967 54 LINE",
"1130 54 LINE",
"1133 60 LINE",
"511 711 LINE",
"288 711 LINE",
"288 54 LINE",
"451 54 LINE",
"451 0 LINE",
"71 0 LINE",
"71 54 LINE"
);
}
);
width = 1388;
},
{
layerId = "55372407-EEEC-4390-8B77-FB5958F23D2B";
paths = (
{
closed = 1;
nodes = (
"272 522 LINE",
"998 1237 LINE",
"999 1239 LINE",
"834 1250 LINE",
"834 1456 LINE",
"1514 1456 LINE",
"1514 1250 LINE",
"1377 1221 LINE",
"451 317 LINE"
);
},
{
closed = 1;
nodes = (
"542 237 LINE",
"680 205 LINE",
"680 0 LINE",
"40 0 LINE",
"40 205 LINE",
"191 237 LINE",
"191 1218 LINE",
"40 1250 LINE",
"40 1456 LINE",
"680 1456 LINE",
"680 1250 LINE",
"542 1218 LINE"
);
},
{
closed = 1;
nodes = (
"908 912 LINE",
"1418 230 LINE",
"1567 205 LINE",
"1567 0 LINE",
"865 0 LINE",
"865 205 LINE",
"1011 216 LINE",
"1013 216 LINE",
"663 695 LINE"
);
}
);
width = 1567;
}
);
rightKerningGroup = K;
unicode = 004B;
},
{
glyphname = L;
lastChange = "2018-07-15 19:02:34 +0000";
layers = (
{
layerId = "0331963E-C1C8-4E93-A463-84B984C1D75E";
paths = (
{
closed = 1;
nodes = (
"71 54 LINE",
"234 54 LINE",
"234 1402 LINE",
"71 1402 LINE",
"71 1456 LINE",
"234 1456 LINE",
"289 1456 LINE",
"452 1456 LINE",
"452 1402 LINE",
"289 1402 LINE",
"289 54 LINE",
"982 54 LINE",
"982 293 LINE",
"1036 293 LINE",
"1036 0 LINE",
"71 0 LINE"
);
}
);
width = 1161;
},
{
layerId = "ED9AC664-5073-455E-9B15-F6014C59BAEB";
paths = (
{
closed = 1;
nodes = (
"56 175 LINE",
"211 205 LINE",
"211 1250 LINE",
"56 1280 LINE",
"56 1456 LINE",
"211 1456 LINE",
"503 1456 LINE",
"679 1456 LINE",
"679 1280 LINE",
"503 1250 LINE",
"503 224 LINE",
"914 224 LINE",
"928 437 LINE",
"1151 437 LINE",
"1151 0 LINE",
"56 0 LINE"
);
}
);
width = 1200;
},
{
layerId = "B06AEEA2-953E-4FA5-BFB1-0445B6E4B274";
paths = (
{
closed = 1;
nodes = (
"81 126 LINE",
"244 154 LINE",
"244 1301 LINE",
"81 1329 LINE",
"81 1456 LINE",
"244 1456 LINE",
"441 1456 LINE",
"604 1456 LINE",
"604 1329 LINE",
"441 1301 LINE",
"441 151 LINE",
"956 151 LINE",
"979 381 LINE",
"1130 381 LINE",
"1130 0 LINE",
"81 0 LINE"
);
}
);
width = 1210;
},
{
layerId = "55372407-EEEC-4390-8B77-FB5958F23D2B";
paths = (
{
closed = 1;
nodes = (
"40 205 LINE",
"191 237 LINE",
"191 1218 LINE",
"40 1250 LINE",
"40 1456 LINE",
"191 1456 LINE",
"542 1456 LINE",
"726 1456 LINE",
"726 1250 LINE",
"542 1218 LINE",
"542 269 LINE",
"888 269 LINE",
"896 472 LINE",
"1164 472 LINE",
"1164 0 LINE",
"40 0 LINE"
);
}
);
width = 1194;
}
);
rightKerningGroup = L;
unicode = 004C;
},
{
glyphname = M;
lastChange = "2018-07-15 19:02:34 +0000";
layers = (
{
layerId = "0331963E-C1C8-4E93-A463-84B984C1D75E";
paths = (
{
closed = 1;
nodes = (
"932 0 LINE",
"889 0 LINE",
"294 1356 LINE",
"288 1354 LINE",
"288 872 LINE",
"288 54 LINE",
"451 54 LINE",
"451 0 LINE",
"71 0 LINE",
"71 54 LINE",
"234 54 LINE",
"234 1402 LINE",
"71 1402 LINE",
"71 1456 LINE",
"234 1456 LINE",
"311 1456 LINE",
"907 86 LINE",
"913 86 LINE",
"1511 1456 LINE",
"1753 1456 LINE",
"1753 1402 LINE",
"1590 1402 LINE",
"1590 54 LINE",
"1753 54 LINE",
"1753 0 LINE",
"1373 0 LINE",
"1373 54 LINE",
"1536 54 LINE",
"1536 845 LINE",
"1536 1361 LINE",
"1530 1363 LINE"
);
}
);
width = 1824;
},
{
layerId = "ED9AC664-5073-455E-9B15-F6014C59BAEB";
paths = (
{
closed = 1;
nodes = (
"1149 0 LINE",
"931 0 LINE",
"476 1133 LINE",
"470 1132 LINE",
"487 514 LINE",
"487 205 LINE",
"659 175 LINE",
"659 0 LINE",
"56 0 LINE",
"56 175 LINE",
"211 205 LINE",
"211 1250 LINE",
"56 1280 LINE",
"56 1456 LINE",
"211 1456 LINE",
"643 1456 LINE",
"1048 441 LINE",
"1054 441 LINE",
"1448 1456 LINE",
"2035 1456 LINE",
"2035 1280 LINE",
"1879 1250 LINE",
"1879 205 LINE",
"2035 175 LINE",
"2035 0 LINE",
"1432 0 LINE",
"1432 175 LINE",
"1595 205 LINE",
"1595 484 LINE",
"1600 1141 LINE",
"1594 1142 LINE"
);
}
);
width = 2083;
},
{
layerId = "B06AEEA2-953E-4FA5-BFB1-0445B6E4B274";
paths = (
{
closed = 1;
nodes = (
"1059 52 LINE",
"928 52 LINE",
"439 1186 LINE",
"434 1185 LINE",
"441 576 LINE",
"441 154 LINE",
"617 126 LINE",
"617 0 LINE",
"94 0 LINE",
"94 126 LINE",
"257 154 LINE",
"257 1301 LINE",
"94 1329 LINE",
"94 1456 LINE",
"257 1456 LINE",
"520 1456 LINE",
"989 351 LINE",
"995 351 LINE",
"1449 1456 LINE",
"1888 1456 LINE",
"1888 1329 LINE",
"1725 1301 LINE",
"1725 154 LINE",
"1888 126 LINE",
"1888 0 LINE",
"1365 0 LINE",
"1365 126 LINE",
"1537 154 LINE",
"1537 576 LINE",
"1537 1187 LINE",
"1532 1188 LINE"
);
}
);
width = 1982;
},
{
layerId = "55372407-EEEC-4390-8B77-FB5958F23D2B";
paths = (
{
closed = 1;
nodes = (
"1205 -32 LINE",
"933 -32 LINE",
"499 1100 LINE",
"492 1099 LINE",
"516 475 LINE",
"516 237 LINE",
"685 205 LINE",
"685 0 LINE",
"32 0 LINE",
"32 205 LINE",
"182 237 LINE",
"182 1218 LINE",
"32 1250 LINE",
"32 1456 LINE",
"182 1456 LINE",
"719 1456 LINE",
"1085 497 LINE",
"1091 497 LINE",
"1447 1456 LINE",
"2126 1456 LINE",
"2126 1250 LINE",
"1975 1218 LINE",
"1975 237 LINE",
"2126 205 LINE",
"2126 0 LINE",
"1474 0 LINE",
"1474 205 LINE",
"1631 237 LINE",
"1631 427 LINE",
"1639 1112 LINE",
"1633 1113 LINE"
);
}
);
width = 2146;
}
);
rightKerningGroup = Eta;
unicode = 004D;
userData = {
com.typemytype.robofont.layerData = {
mask = {
anchors = (
);
components = (
);
contours = (
{
points = (
{
segmentType = line;
smooth = 0;
x = 932;
y = 0;
},
{
segmentType = line;
smooth = 0;
x = 889;
y = 0;
},
{
segmentType = line;
smooth = 0;
x = 294;
y = 1356;
},
{
segmentType = line;
smooth = 0;
x = 288;
y = 1354;
},
{
segmentType = line;
smooth = 0;
x = 288;
y = 54;
},
{
segmentType = line;
smooth = 0;
x = 451;
y = 54;
},
{
segmentType = line;
smooth = 0;
x = 451;
y = 0;
},
{
segmentType = line;
smooth = 0;
x = 71;
y = 0;
},
{
segmentType = line;
smooth = 0;
x = 71;
y = 54;
},
{
segmentType = line;
smooth = 0;
x = 234;
y = 54;
},
{
segmentType = line;
smooth = 0;
x = 234;
y = 1402;
},
{
segmentType = line;
smooth = 0;
x = 71;
y = 1402;
},
{
segmentType = line;
smooth = 0;
x = 71;
y = 1456;
},
{
segmentType = line;
smooth = 0;
x = 234;
y = 1456;
},
{
segmentType = line;
smooth = 0;
x = 311;
y = 1456;
},
{
segmentType = line;
smooth = 0;
x = 907;
y = 86;
},
{
segmentType = line;
smooth = 0;
x = 913;
y = 86;
},
{
segmentType = line;
smooth = 0;
x = 1511;
y = 1456;
},
{
segmentType = line;
smooth = 0;
x = 1753;
y = 1456;
},
{
segmentType = line;
smooth = 0;
x = 1753;
y = 1402;
},
{
segmentType = line;
smooth = 0;
x = 1590;
y = 1402;
},
{
segmentType = line;
smooth = 0;
x = 1590;
y = 54;
},
{
segmentType = line;
smooth = 0;
x = 1753;
y = 54;
},
{
segmentType = line;
smooth = 0;
x = 1753;
y = 0;
},
{
segmentType = line;
smooth = 0;
x = 1373;
y = 0;
},
{
segmentType = line;
smooth = 0;
x = 1373;
y = 54;
},
{
segmentType = line;
smooth = 0;
x = 1536;
y = 54;
},
{
segmentType = line;
smooth = 0;
x = 1536;
y = 1361;
},
{
segmentType = line;
smooth = 0;
x = 1530;
y = 1363;
}
);
}
);
lib = {
};
name = M;
unicodes = (
);
width = 1824;
};
};
};
},
{
glyphname = N;
lastChange = "2018-07-15 19:02:34 +0000";
layers = (
{
layerId = "0331963E-C1C8-4E93-A463-84B984C1D75E";
paths = (
{
closed = 1;
nodes = (
"1446 1402 LINE",
"1283 1402 LINE",
"1283 0 LINE",
"1229 0 LINE",
"295 1356 LINE",
"289 1354 LINE",
"289 54 LINE",
"452 54 LINE",
"452 0 LINE",
"71 0 LINE",
"71 54 LINE",
"234 54 LINE",
"234 1402 LINE",
"71 1402 LINE",
"71 1456 LINE",
"234 1456 LINE",
"289 1456 LINE",
"1223 103 LINE",
"1229 105 LINE",
"1229 1402 LINE",
"1066 1402 LINE",
"1066 1456 LINE",
"1283 1456 LINE",
"1446 1456 LINE"
);
}
);
width = 1517;
},
{
layerId = "ED9AC664-5073-455E-9B15-F6014C59BAEB";
paths = (
{
closed = 1;
nodes = (
"1564 1280 LINE",
"1408 1250 LINE",
"1408 0 LINE",
"1126 0 LINE",
"478 1000 LINE",
"472 999 LINE",
"472 205 LINE",
"659 175 LINE",
"659 0 LINE",
"56 0 LINE",
"56 175 LINE",
"211 205 LINE",
"211 1250 LINE",
"56 1280 LINE",
"56 1456 LINE",
"211 1456 LINE",
"507 1456 LINE",
"1141 446 LINE",
"1147 447 LINE",
"1147 1250 LINE",
"961 1280 LINE",
"961 1456 LINE",
"1408 1456 LINE",
"1564 1456 LINE"
);
}
);
width = 1604;
},
{
layerId = "B06AEEA2-953E-4FA5-BFB1-0445B6E4B274";
paths = (
{
closed = 1;
nodes = (
"1509 1329 LINE",
"1346 1301 LINE",
"1346 0 LINE",
"1166 0 LINE",
"433 1141 LINE",
"427 1139 LINE",
"427 154 LINE",
"606 126 LINE",
"606 0 LINE",
"83 0 LINE",
"83 126 LINE",
"246 154 LINE",
"246 1301 LINE",
"83 1329 LINE",
"83 1456 LINE",
"246 1456 LINE",
"445 1456 LINE",
"1159 321 LINE",
"1165 323 LINE",
"1165 1301 LINE",
"986 1329 LINE",
"986 1456 LINE",
"1346 1456 LINE",
"1509 1456 LINE"
);
}
);
width = 1592;
},
{
layerId = "55372407-EEEC-4390-8B77-FB5958F23D2B";
paths = (
{
closed = 1;
nodes = (
"1598 1250 LINE",
"1447 1218 LINE",
"1447 0 LINE",
"1101 0 LINE",
"506 912 LINE",
"500 912 LINE",
"500 237 LINE",
"692 205 LINE",
"692 0 LINE",
"39 0 LINE",
"39 205 LINE",
"189 237 LINE",
"189 1218 LINE",
"39 1250 LINE",
"39 1456 LINE",
"189 1456 LINE",
"546 1456 LINE",
"1130 524 LINE",
"1136 524 LINE",
"1136 1218 LINE",
"945 1250 LINE",
"945 1456 LINE",
"1447 1456 LINE",
"1598 1456 LINE"
);
}
);
width = 1611;
}
);
rightKerningGroup = Eta;
unicode = 004E;
},
{
glyphname = O;
lastChange = "2018-07-15 19:02:34 +0000";
layers = (
{
layerId = "0331963E-C1C8-4E93-A463-84B984C1D75E";
paths = (
{
closed = 1;
nodes = (
"1348 271 OFFCURVE",
"1101.333 -21 OFFCURVE",
"740 -21 CURVE SMOOTH",
"377.333 -21 OFFCURVE",
"130 272.333 OFFCURVE",
"130 719 CURVE SMOOTH",
"130 737 LINE SMOOTH",
"130 1183.667 OFFCURVE",
"375.333 1477 OFFCURVE",
"738 1477 CURVE SMOOTH",
"1099.333 1477 OFFCURVE",
"1348 1183.667 OFFCURVE",
"1348 737 CURVE SMOOTH",
"1348 719 LINE SMOOTH"
);
},
{
closed = 1;
nodes = (
"1294 1151 OFFCURVE",
"1075.333 1423 OFFCURVE",
"738 1423 CURVE SMOOTH",
"402 1423 OFFCURVE",
"185 1151 OFFCURVE",
"185 739 CURVE SMOOTH",
"185 719 LINE SMOOTH",
"185 304.333 OFFCURVE",
"402.667 33 OFFCURVE",
"740 33 CURVE SMOOTH",
"1077.333 33 OFFCURVE",
"1294 304.333 OFFCURVE",
"1294 719 CURVE SMOOTH",
"1294 739 LINE SMOOTH"
);
}
);
width = 1488;
},
{
layerId = "ED9AC664-5073-455E-9B15-F6014C59BAEB";
paths = (
{
closed = 1;
nodes = (
"1387 290.333 OFFCURVE",
"1119.667 -21 OFFCURVE",
"725 -21 CURVE SMOOTH",
"331.667 -21 OFFCURVE",
"67 290.333 OFFCURVE",
"67 717 CURVE SMOOTH",
"67 739 LINE SMOOTH",
"67 1163 OFFCURVE",
"330.667 1477 OFFCURVE",
"724 1477 CURVE SMOOTH",
"1118.667 1477 OFFCURVE",
"1387 1163 OFFCURVE",
"1387 739 CURVE SMOOTH",
"1387 717 LINE SMOOTH"
);
},
{
closed = 1;
nodes = (
"1096 1042.333 OFFCURVE",
"969.333 1249 OFFCURVE",
"724 1249 CURVE SMOOTH",
"478.667 1249 OFFCURVE",
"359 1045 OFFCURVE",
"359 741 CURVE SMOOTH",
"359 717 LINE SMOOTH",
"359 410.333 OFFCURVE",
"481 206 OFFCURVE",
"725 206 CURVE SMOOTH",
"971.667 206 OFFCURVE",
"1096 410.333 OFFCURVE",
"1096 717 CURVE SMOOTH",
"1096 741 LINE SMOOTH"
);
}
);
width = 1448;
},
{
layerId = "B06AEEA2-953E-4FA5-BFB1-0445B6E4B274";
paths = (
{
closed = 1;
nodes = (
"1281 283 OFFCURVE",
"1072 -21 OFFCURVE",
"675 -21 CURVE SMOOTH",
"299 -21 OFFCURVE",
"70 283 OFFCURVE",
"70 717 CURVE SMOOTH",
"70 738 LINE SMOOTH",
"70 1171 OFFCURVE",
"298 1477 OFFCURVE",
"675 1477 CURVE SMOOTH",
"1072 1477 OFFCURVE",
"1281 1171 OFFCURVE",
"1281 738 CURVE SMOOTH",
"1281 717 LINE SMOOTH"
);
},
{
closed = 1;
nodes = (
"1083 1079 OFFCURVE",
"960 1312 OFFCURVE",
"675 1312 CURVE SMOOTH",
"412 1312 OFFCURVE",
"268 1077 OFFCURVE",
"268 740 CURVE SMOOTH",
"268 717 LINE SMOOTH",
"268 376 OFFCURVE",
"412 143 OFFCURVE",
"675 143 CURVE SMOOTH",
"964 143 OFFCURVE",
"1083 374 OFFCURVE",
"1083 717 CURVE SMOOTH",
"1083 740 LINE SMOOTH"
);
}
);
width = 1351;
},
{
layerId = "55372407-EEEC-4390-8B77-FB5958F23D2B";
paths = (
{
closed = 1;
nodes = (
"1453 295 OFFCURVE",
"1149 -21 OFFCURVE",
"756 -21 CURVE SMOOTH",
"352 -21 OFFCURVE",
"65 295 OFFCURVE",
"65 717 CURVE SMOOTH",
"65 740 LINE SMOOTH",
"65 1158 OFFCURVE",
"351 1477 OFFCURVE",
"754 1477 CURVE SMOOTH",
"1148 1477 OFFCURVE",
"1453 1158 OFFCURVE",
"1453 740 CURVE SMOOTH",
"1453 717 LINE SMOOTH"
);
},
{
closed = 1;
nodes = (
"1104 1020 OFFCURVE",
"975 1210 OFFCURVE",
"754 1210 CURVE SMOOTH",
"520 1210 OFFCURVE",
"416 1025 OFFCURVE",
"416 742 CURVE SMOOTH",
"416 717 LINE SMOOTH",
"416 432 OFFCURVE",
"524 245 OFFCURVE",
"756 245 CURVE SMOOTH",
"976 245 OFFCURVE",
"1104 433 OFFCURVE",
"1104 717 CURVE SMOOTH",
"1104 742 LINE SMOOTH"
);
}
);
width = 1508;
}
);
leftKerningGroup = C;
rightKerningGroup = D;
unicode = 004F;
},
{
glyphname = P;
lastChange = "2018-07-15 19:02:34 +0000";
layers = (
{
layerId = "0331963E-C1C8-4E93-A463-84B984C1D75E";
paths = (
{
closed = 1;
nodes = (
"940.333 1456 OFFCURVE",
"1109 1291.667 OFFCURVE",
"1109 1041 CURVE SMOOTH",
"1109 787.667 OFFCURVE",
"941.667 625 OFFCURVE",
"639 625 CURVE SMOOTH",
"288 625 LINE",
"288 54 LINE",
"451 54 LINE",
"451 0 LINE",
"71 0 LINE",
"71 54 LINE",
"234 54 LINE",
"234 1402 LINE",
"71 1402 LINE",
"71 1456 LINE",
"234 1456 LINE",
"639 1456 LINE SMOOTH"
);
},
{
closed = 1;
nodes = (
"639 679 LINE SMOOTH",
"915 679 OFFCURVE",
"1055 833.667 OFFCURVE",
"1055 1039 CURVE SMOOTH",
"1055 1249.667 OFFCURVE",
"916.333 1402 OFFCURVE",
"639 1402 CURVE SMOOTH",
"288 1402 LINE",
"288 679 LINE"
);
}
);
width = 1255;
},
{
layerId = "ED9AC664-5073-455E-9B15-F6014C59BAEB";
paths = (
{
closed = 1;
nodes = (
"1082.333 1456 OFFCURVE",
"1288 1268.333 OFFCURVE",
"1288 991 CURVE SMOOTH",
"1288 712.333 OFFCURVE",
"1082.333 528 OFFCURVE",
"749 528 CURVE SMOOTH",
"503 528 LINE",
"503 205 LINE",
"659 175 LINE",
"659 0 LINE",
"56 0 LINE",
"56 175 LINE",
"211 205 LINE",
"211 1250 LINE",
"56 1280 LINE",
"56 1456 LINE",
"211 1456 LINE",
"749 1456 LINE SMOOTH"
);
},
{
closed = 1;
nodes = (
"749 753 LINE SMOOTH",
"911.667 753 OFFCURVE",
"996 851.667 OFFCURVE",
"996 989 CURVE SMOOTH",
"996 1129 OFFCURVE",
"911.667 1231 OFFCURVE",
"749 1231 CURVE SMOOTH",
"503 1231 LINE",
"503 753 LINE"
);
}
);
width = 1325;
},
{
layerId = "B06AEEA2-953E-4FA5-BFB1-0445B6E4B274";
paths = (
{
closed = 1;
nodes = (
"1061 1456 OFFCURVE",
"1242 1281 OFFCURVE",
"1242 1020 CURVE SMOOTH",
"1242 756 OFFCURVE",
"1061 584 OFFCURVE",
"750 584 CURVE SMOOTH",
"441 584 LINE",
"441 154 LINE",
"604 126 LINE",
"604 0 LINE",
"81 0 LINE",
"81 126 LINE",
"244 154 LINE",
"244 1301 LINE",
"81 1329 LINE",
"81 1456 LINE",
"244 1456 LINE",
"750 1456 LINE SMOOTH"
);
},
{
closed = 1;
nodes = (
"750 738 LINE SMOOTH",
"947 738 OFFCURVE",
"1045 857 OFFCURVE",
"1045 1018 CURVE SMOOTH",
"1045 1179 OFFCURVE",
"947 1301 OFFCURVE",
"750 1301 CURVE SMOOTH",
"441 1301 LINE",
"441 738 LINE"
);
}
);
width = 1297;
},
{
layerId = "55372407-EEEC-4390-8B77-FB5958F23D2B";
paths = (
{
closed = 1;
nodes = (
"1096 1456 OFFCURVE",
"1317 1260 OFFCURVE",
"1317 973 CURVE SMOOTH",
"1317 685 OFFCURVE",
"1096 493 OFFCURVE",
"748 493 CURVE SMOOTH",
"542 493 LINE",
"542 237 LINE",
"693 205 LINE",
"693 0 LINE",
"40 0 LINE",
"40 205 LINE",
"191 237 LINE",
"191 1218 LINE",
"40 1250 LINE",
"40 1456 LINE",
"191 1456 LINE",
"748 1456 LINE SMOOTH"
);
},
{
closed = 1;
nodes = (
"748 762 LINE SMOOTH",
"890 762 OFFCURVE",
"966 848 OFFCURVE",
"966 971 CURVE SMOOTH",
"966 1098 OFFCURVE",
"890 1188 OFFCURVE",
"748 1188 CURVE SMOOTH",
"542 1188 LINE",
"542 762 LINE"
);
}
);
width = 1342;
}
);
rightKerningGroup = P;
unicode = 0050;
},
{
glyphname = Q;
lastChange = "2018-07-15 19:02:34 +0000";
layers = (
{
layerId = "0331963E-C1C8-4E93-A463-84B984C1D75E";
paths = (
{
closed = 1;
nodes = (
"1348 409.667 OFFCURVE",
"1230.333 170.667 OFFCURVE",
"1033 56 CURVE",
"1343 -165 LINE",
"1308 -206 LINE",
"979 28 LINE",
"905.667 -5.333 OFFCURVE",
"825.333 -21 OFFCURVE",
"740 -21 CURVE SMOOTH",
"377.333 -21 OFFCURVE",
"130 272.333 OFFCURVE",
"130 719 CURVE SMOOTH",
"130 737 LINE SMOOTH",
"130 1183.667 OFFCURVE",
"375.333 1477 OFFCURVE",
"738 1477 CURVE SMOOTH",
"1099.333 1477 OFFCURVE",
"1348 1183.667 OFFCURVE",
"1348 737 CURVE SMOOTH",
"1348 719 LINE SMOOTH"
);
},
{
closed = 1;
nodes = (
"1294 1151 OFFCURVE",
"1075.333 1423 OFFCURVE",
"738 1423 CURVE SMOOTH",
"402 1423 OFFCURVE",
"185 1151 OFFCURVE",
"185 739 CURVE SMOOTH",
"185 719 LINE SMOOTH",
"185 304.333 OFFCURVE",
"402.667 33 OFFCURVE",
"740 33 CURVE SMOOTH",
"1077.333 33 OFFCURVE",
"1294 304.333 OFFCURVE",
"1294 719 CURVE SMOOTH",
"1294 739 LINE SMOOTH"
);
}
);
width = 1478;
},
{
layerId = "ED9AC664-5073-455E-9B15-F6014C59BAEB";
paths = (
{
closed = 1;
nodes = (
"1387 463.667 OFFCURVE",
"1291 246 OFFCURVE",
"1127 114 CURVE",
"1437 -79 LINE",
"1293 -281 LINE",
"882 -3 LINE",
"830 -13.667 OFFCURVE",
"777 -21 OFFCURVE",
"725 -21 CURVE SMOOTH",
"331.667 -21 OFFCURVE",
"67 290.333 OFFCURVE",
"67 717 CURVE SMOOTH",
"67 739 LINE SMOOTH",
"67 1163 OFFCURVE",
"330.667 1477 OFFCURVE",
"724 1477 CURVE SMOOTH",
"1118.667 1477 OFFCURVE",
"1387 1163 OFFCURVE",
"1387 739 CURVE SMOOTH",
"1387 717 LINE SMOOTH"
);
},
{
closed = 1;
nodes = (
"1096 1042.333 OFFCURVE",
"969.333 1249 OFFCURVE",
"724 1249 CURVE SMOOTH",
"478.667 1249 OFFCURVE",
"359 1045 OFFCURVE",
"359 741 CURVE SMOOTH",
"359 717 LINE SMOOTH",
"359 410.333 OFFCURVE",
"481 206 OFFCURVE",
"725 206 CURVE SMOOTH",
"971.667 206 OFFCURVE",
"1096 410.333 OFFCURVE",
"1096 717 CURVE SMOOTH",
"1096 741 LINE SMOOTH"
);
}
);
width = 1449;
},
{
layerId = "B06AEEA2-953E-4FA5-BFB1-0445B6E4B274";
paths = (
{
closed = 1;
nodes = (
"1279 454 OFFCURVE",
"1228 236 OFFCURVE",
"1056 105 CURVE",
"1348 -98 LINE",
"1237 -245 LINE",
"885 13 LINE",
"818 -8 OFFCURVE",
"747 -21 OFFCURVE",
"674 -21 CURVE SMOOTH",
"300 -21 OFFCURVE",
"70 285 OFFCURVE",
"70 717 CURVE SMOOTH",
"70 738 LINE SMOOTH",
"70 1170 OFFCURVE",
"298 1477 OFFCURVE",
"674 1477 CURVE SMOOTH",
"1068 1477 OFFCURVE",
"1279 1170 OFFCURVE",
"1279 738 CURVE SMOOTH",
"1279 717 LINE SMOOTH"
);
},
{
closed = 1;
nodes = (
"1082 1079 OFFCURVE",
"959 1312 OFFCURVE",
"674 1312 CURVE SMOOTH",
"413 1312 OFFCURVE",
"267 1077 OFFCURVE",
"267 740 CURVE SMOOTH",
"267 717 LINE SMOOTH",
"267 376 OFFCURVE",
"409 143 OFFCURVE",
"674 143 CURVE SMOOTH",
"955 143 OFFCURVE",
"1082 374 OFFCURVE",
"1082 717 CURVE SMOOTH",
"1082 740 LINE SMOOTH"
);
}
);
width = 1376;
},
{
layerId = "55372407-EEEC-4390-8B77-FB5958F23D2B";
paths = (
{
closed = 1;
nodes = (
"1454 470 OFFCURVE",
"1330 252 OFFCURVE",
"1171 120 CURVE",
"1492 -67 LINE",
"1328 -303 LINE",
"880 -13 LINE",
"837 -17 OFFCURVE",
"796 -21 OFFCURVE",
"757 -21 CURVE SMOOTH",
"351 -21 OFFCURVE",
"65 294 OFFCURVE",
"65 717 CURVE SMOOTH",
"65 740 LINE SMOOTH",
"65 1159 OFFCURVE",
"351 1477 OFFCURVE",
"755 1477 CURVE SMOOTH",
"1150 1477 OFFCURVE",
"1454 1159 OFFCURVE",
"1454 740 CURVE SMOOTH",
"1454 717 LINE SMOOTH"
);
},
{
closed = 1;
nodes = (
"1105 1020 OFFCURVE",
"976 1210 OFFCURVE",
"755 1210 CURVE SMOOTH",
"519 1210 OFFCURVE",
"416 1025 OFFCURVE",
"416 742 CURVE SMOOTH",
"416 717 LINE SMOOTH",
"416 432 OFFCURVE",
"526 245 OFFCURVE",
"757 245 CURVE SMOOTH",
"982 245 OFFCURVE",
"1105 433 OFFCURVE",
"1105 717 CURVE SMOOTH",
"1105 742 LINE SMOOTH"
);
}
);
width = 1494;
}
);
leftKerningGroup = C;
unicode = 0051;
userData = {
com.typemytype.robofont.layerData = {
mask = {
anchors = (
);
components = (
);
contours = (
{
points = (
{
segmentType = line;
smooth = 1;
x = 1348;
y = 719;
},
{
smooth = 0;
x = 1348;
y = 409.66667;
},
{
smooth = 0;
x = 1230.33333;
y = 170.66667;
},
{
segmentType = curve;
smooth = 0;
x = 1033;
y = 56;
},
{
segmentType = line;
smooth = 0;
x = 1343;
y = -165;
},
{
segmentType = line;
smooth = 0;
x = 1304;
y = -203;
},
{
segmentType = line;
smooth = 0;
x = 979;
y = 28;
},
{
smooth = 0;
x = 905.66667;
y = -5.33333;
},
{
smooth = 0;
x = 825.33333;
y = -21;
},
{
segmentType = curve;
smooth = 1;
x = 740;
y = -21;
},
{
smooth = 0;
x = 377.33333;
y = -21;
},
{
smooth = 0;
x = 130;
y = 272.33333;
},
{
segmentType = curve;
smooth = 1;
x = 130;
y = 719;
},
{
segmentType = line;
smooth = 1;
x = 130;
y = 737;
},
{
smooth = 0;
x = 130;
y = 1183.66667;
},
{
smooth = 0;
x = 375.33333;
y = 1477;
},
{
segmentType = curve;
smooth = 1;
x = 738;
y = 1477;
},
{
smooth = 0;
x = 1099.33333;
y = 1477;
},
{
smooth = 0;
x = 1348;
y = 1183.66667;
},
{
segmentType = curve;
smooth = 1;
x = 1348;
y = 737;
}
);
},
{
points = (
{
segmentType = line;
smooth = 1;
x = 1294;
y = 739;
},
{
smooth = 0;
x = 1294;
y = 1151;
},
{
smooth = 0;
x = 1075.33333;
y = 1423;
},
{
segmentType = curve;
smooth = 1;
x = 738;
y = 1423;
},
{
smooth = 0;
x = 402;
y = 1423;
},
{
smooth = 0;
x = 185;
y = 1151;
},
{
segmentType = curve;
smooth = 1;
x = 185;
y = 739;
},
{
segmentType = line;
smooth = 1;
x = 185;
y = 719;
},
{
smooth = 0;
x = 185;
y = 304.33333;
},
{
smooth = 0;
x = 402.66667;
y = 33;
},
{
segmentType = curve;
smooth = 1;
x = 740;
y = 33;
},
{
smooth = 0;
x = 1077.33333;
y = 33;
},
{
smooth = 0;
x = 1294;
y = 304.33333;
},
{
segmentType = curve;
smooth = 1;
x = 1294;
y = 719;
}
);
}
);
lib = {
};
name = Q;
unicodes = (
);
width = 1478;
};
};
com.typemytype.robofont.mark = (
1,
0.1703,
0.1669,
0.8287
);
};
},
{
color = 3;
glyphname = R;
lastChange = "2018-07-15 20:35:05 +0000";
layers = (
{
layerId = "0331963E-C1C8-4E93-A463-84B984C1D75E";
paths = (
{
closed = 1;
nodes = (
"451 -1 LINE",
"451 53 LINE",
"288 53 LINE",
"288 683 LINE",
"652 683 LINE",
"940 683 OFFCURVE",
"1134 820 OFFCURVE",
"1134 1065 CURVE SMOOTH",
"1134 1320 OFFCURVE",
"963 1455 OFFCURVE",
"656 1455 CURVE SMOOTH",
"71 1455 LINE",
"71 1401 LINE",
"234 1401 LINE",
"234 53 LINE",
"71 53 LINE",
"71 -1 LINE"
);
},
{
closed = 1;
nodes = (
"1236 -1 LINE",
"1236 53 LINE",
"1103 53 LINE",
"816 718 LINE",
"762 718 LINE",
"1067 -1 LINE"
);
},
{
closed = 1;
nodes = (
"288 1401 LINE",
"656 1401 LINE SMOOTH",
"937 1401 OFFCURVE",
"1080 1282 OFFCURVE",
"1080 1065 CURVE SMOOTH",
"1080 878 OFFCURVE",
"945 737 OFFCURVE",
"651 737 CURVE SMOOTH",
"288 737 LINE"
);
}
);
width = 1364;
},
{
layerId = "ED9AC664-5073-455E-9B15-F6014C59BAEB";
paths = (
{
closed = 1;
nodes = (
"659 0 LINE",
"659 175 LINE",
"503 205 LINE",
"503 575 LINE",
"778 575 LINE SMOOTH",
"1076 575 OFFCURVE",
"1283 766 OFFCURVE",
"1283 1022 CURVE SMOOTH",
"1283 1293 OFFCURVE",
"1081 1456 OFFCURVE",
"746 1456 CURVE SMOOTH",
"56 1456 LINE",
"56 1280 LINE",
"211 1250 LINE",
"211 205 LINE",
"56 175 LINE",
"56 0 LINE"
);
},
{
closed = 1;
nodes = (
"1347 0 LINE",
"1347 175 LINE",
"1215 205 LINE",
"1014 694 LINE",
"749 629 LINE",
"983 0 LINE"
);
},
{
closed = 1;
nodes = (
"503 1231 LINE",
"746 1231 LINE SMOOTH",
"908 1231 OFFCURVE",
"992 1144 OFFCURVE",
"992 1009 CURVE SMOOTH",
"992 873 OFFCURVE",
"909 800 OFFCURVE",
"741 800 CURVE SMOOTH",
"503 800 LINE"
);
}
);
width = 1408;
},
{
layerId = "B06AEEA2-953E-4FA5-BFB1-0445B6E4B274";
paths = (
{
closed = 1;
nodes = (
"604 0 LINE",
"604 126 LINE",
"441 154 LINE",
"441 650 LINE",
"767 656 LINE SMOOTH",
"1046 661 OFFCURVE",
"1222 793 OFFCURVE",
"1222 1050 CURVE SMOOTH",
"1222 1309 OFFCURVE",
"1047 1455 OFFCURVE",
"730 1455 CURVE SMOOTH",
"81 1455 LINE",
"81 1329 LINE",
"244 1301 LINE",
"244 154 LINE",
"81 126 LINE",
"81 0 LINE"
);
},
{
closed = 1;
nodes = (
"1285 0 LINE",
"1285 129 LINE",
"1184 147 LINE",
"915 729 LINE",
"718 727 LINE",
"1042 0 LINE"
);
},
{
closed = 1;
nodes = (
"441 1301 LINE",
"730 1301 LINE SMOOTH",
"931 1301 OFFCURVE",
"1025 1205 OFFCURVE",
"1025 1052 CURVE SMOOTH",
"1025 891 OFFCURVE",
"930 805 OFFCURVE",
"710 805 CURVE SMOOTH",
"441 805 LINE"
);
}
);
width = 1385;
},
{
associatedMasterId = "B06AEEA2-953E-4FA5-BFB1-0445B6E4B274";
layerId = "B3C1FABD-A09B-46D2-8C58-F0FEB832F081";
name = "Jul 13 18, 22:53";
paths = (
{
closed = 1;
nodes = (
"1037 1455 OFFCURVE",
"1212 1309 OFFCURVE",
"1212 1050 CURVE SMOOTH",
"1212 909 OFFCURVE",
"1131 796 OFFCURVE",
"984 733 CURVE",
"1143 681 OFFCURVE",
"1208 561 OFFCURVE",
"1208 389 CURVE SMOOTH",
"1208 272 LINE SMOOTH",
"1208 183 OFFCURVE",
"1229 143 OFFCURVE",
"1281 135 CURVE SMOOTH",
"1329 129 LINE",
"1329 0 LINE",
"1223 0 LINE SMOOTH",
"1070 0 OFFCURVE",
"1011 122 OFFCURVE",
"1011 274 CURVE SMOOTH",
"1011 387 LINE SMOOTH",
"1011 546 OFFCURVE",
"912 650 OFFCURVE",
"757 650 CURVE SMOOTH",
"441 650 LINE",
"441 154 LINE",
"604 126 LINE",
"604 0 LINE",
"81 0 LINE",
"81 126 LINE",
"244 154 LINE",
"244 1301 LINE",
"81 1329 LINE",
"81 1455 LINE",
"720 1455 LINE SMOOTH"
);
},
{
closed = 1;
nodes = (
"700 805 LINE SMOOTH",
"920 805 OFFCURVE",
"1015 891 OFFCURVE",
"1015 1052 CURVE SMOOTH",
"1015 1205 OFFCURVE",
"921 1301 OFFCURVE",
"720 1301 CURVE SMOOTH",
"441 1301 LINE",
"441 805 LINE"
);
}
);
width = 1396;
},
{
associatedMasterId = "B06AEEA2-953E-4FA5-BFB1-0445B6E4B274";
layerId = "746BFEFE-DE8D-4616-9A01-4CE384D00458";
name = "Jul 13 18, 23:39";
paths = (
{
closed = 1;
nodes = (
"1212 793 OFFCURVE",
"1036 661 OFFCURVE",
"757 656 CURVE SMOOTH",
"441 650 LINE",
"441 154 LINE",
"604 126 LINE",
"604 0 LINE",
"81 0 LINE",
"81 126 LINE",
"244 154 LINE",
"244 1301 LINE",
"81 1329 LINE",
"81 1455 LINE",
"720 1455 LINE SMOOTH",
"1037 1455 OFFCURVE",
"1212 1309 OFFCURVE",
"1212 1050 CURVE SMOOTH"
);
},
{
closed = 1;
nodes = (
"700 805 LINE SMOOTH",
"920 805 OFFCURVE",
"1015 891 OFFCURVE",
"1015 1052 CURVE SMOOTH",
"1015 1205 OFFCURVE",
"921 1301 OFFCURVE",
"720 1301 CURVE SMOOTH",
"441 1301 LINE",
"441 805 LINE"
);
},
{
closed = 1;
nodes = (
"905 729 LINE",
"1163 221 LINE SMOOTH",
"1195 158 OFFCURVE",
"1213 140 OFFCURVE",
"1255 135 CURVE SMOOTH",
"1303 129 LINE",
"1303 0 LINE",
"1197 0 LINE SMOOTH",
"1101 0 OFFCURVE",
"1057 28 OFFCURVE",
"993 158 CURVE SMOOTH",
"715 727 LINE"
);
}
);
width = 1390;
},
{
associatedMasterId = "ED9AC664-5073-455E-9B15-F6014C59BAEB";
layerId = "034328B0-4881-4CCA-89E2-258B79141A6D";
name = "Jul 14 18, 17:21";
paths = (
{
closed = 1;
nodes = (
"1040.667 1456 OFFCURVE",
"1240 1295.667 OFFCURVE",
"1240 1029 CURVE SMOOTH",
"1240 882.333 OFFCURVE",
"1160 773.667 OFFCURVE",
"1008 707 CURVE",
"1180 656.333 OFFCURVE",
"1250 535.667 OFFCURVE",
"1250 361 CURVE SMOOTH",
"1250 287 LINE SMOOTH",
"1250 223 OFFCURVE",
"1273.333 187.667 OFFCURVE",
"1332 181 CURVE SMOOTH",
"1368 176 LINE",
"1368 0 LINE",
"1217 0 LINE SMOOTH",
"1026.333 0 OFFCURVE",
"958 113.333 OFFCURVE",
"958 276 CURVE SMOOTH",
"958 359 LINE SMOOTH",
"958 500.333 OFFCURVE",
"879.333 585 OFFCURVE",
"742 589 CURVE SMOOTH",
"503 589 LINE",
"503 205 LINE",
"659 175 LINE",
"659 0 LINE",
"56 0 LINE",
"56 175 LINE",
"211 205 LINE",
"211 1250 LINE",
"56 1280 LINE",
"56 1456 LINE",
"710 1456 LINE SMOOTH"
);
},
{
closed = 1;
nodes = (
"705 814 LINE SMOOTH",
"867.667 814 OFFCURVE",
"949 885.333 OFFCURVE",
"949 1016 CURVE SMOOTH",
"949 1146.667 OFFCURVE",
"867.333 1231 OFFCURVE",
"710 1231 CURVE SMOOTH",
"503 1231 LINE",
"503 814 LINE"
);
}
);
width = 1408;
},
{
associatedMasterId = "0331963E-C1C8-4E93-A463-84B984C1D75E";
layerId = "1D0575CD-5EB1-4601-9DBC-7E3B47C3FF49";
name = "Jul 14 18, 17:28";
paths = (
{
closed = 1;
nodes = (
"954.667 1455 OFFCURVE",
"1126 1319.667 OFFCURVE",
"1126 1065 CURVE SMOOTH",
"1126 901 OFFCURVE",
"1014.333 751 OFFCURVE",
"833 711 CURVE",
"1042.333 675 OFFCURVE",
"1126 553.667 OFFCURVE",
"1126 371 CURVE SMOOTH",
"1126 224 LINE SMOOTH",
"1126 109.333 OFFCURVE",
"1165.667 54 OFFCURVE",
"1243 54 CURVE SMOOTH",
"1294 54 LINE",
"1294 0 LINE",
"1243 0 LINE SMOOTH",
"1113.667 0 OFFCURVE",
"1072 99.333 OFFCURVE",
"1072 226 CURVE SMOOTH",
"1072 369 LINE SMOOTH",
"1072 566.333 OFFCURVE",
"931.667 683 OFFCURVE",
"681 683 CURVE SMOOTH",
"288 683 LINE",
"288 53 LINE",
"451 53 LINE",
"451 -1 LINE",
"71 -1 LINE",
"71 53 LINE",
"234 53 LINE",
"234 1401 LINE",
"71 1401 LINE",
"71 1455 LINE",
"648 1455 LINE SMOOTH"
);
},
{
closed = 1;
nodes = (
"638 737 LINE SMOOTH",
"935.333 737 OFFCURVE",
"1072 878.333 OFFCURVE",
"1072 1065 CURVE SMOOTH",
"1072 1282.333 OFFCURVE",
"929.333 1401 OFFCURVE",
"648 1401 CURVE SMOOTH",
"288 1401 LINE",
"288 737 LINE"
);
}
);
width = 1364;
},
{
layerId = "55372407-EEEC-4390-8B77-FB5958F23D2B";
paths = (
{
closed = 1;
nodes = (
"693 0 LINE",
"693 205 LINE",
"542 237 LINE",
"542 528 LINE",
"785 525 LINE SMOOTH",
"1095 522 OFFCURVE",
"1321 749 OFFCURVE",
"1321 1005 CURVE SMOOTH",
"1321 1283 OFFCURVE",
"1102 1457 OFFCURVE",
"756 1457 CURVE SMOOTH",
"40 1457 LINE",
"40 1250 LINE",
"191 1218 LINE",
"191 237 LINE",
"40 205 LINE",
"40 0 LINE"
);
},
{
closed = 1;
nodes = (
"1386 0 LINE",
"1386 204 LINE",
"1248 239 LINE",
"1071 672 LINE",
"766 568 LINE",
"962 0 LINE"
);
},
{
closed = 1;
nodes = (
"542 1188 LINE",
"756 1188 LINE SMOOTH",
"894 1188 OFFCURVE",
"972 1106 OFFCURVE",
"972 982 CURVE SMOOTH",
"972 862 OFFCURVE",
"896 797 OFFCURVE",
"760 797 CURVE SMOOTH",
"542 797 LINE"
);
}
);
width = 1422;
}
);
unicode = 0052;
},
{
glyphname = S;
lastChange = "2018-07-15 19:02:34 +0000";
layers = (
{
layerId = "0331963E-C1C8-4E93-A463-84B984C1D75E";
paths = (
{
closed = 1;
nodes = (
"981 1088 LINE",
"981 1292 LINE",
"877 1379 OFFCURVE",
"738 1423 OFFCURVE",
"582 1423 CURVE SMOOTH",
"328 1423 OFFCURVE",
"186 1286 OFFCURVE",
"186 1131 CURVE SMOOTH",
"186 966 OFFCURVE",
"262 870 OFFCURVE",
"594 781 CURVE SMOOTH",
"917 694 OFFCURVE",
"1083 580 OFFCURVE",
"1083 351 CURVE SMOOTH",
"1083 120 OFFCURVE",
"872 -21 OFFCURVE",
"589 -21 CURVE SMOOTH",
"433 -21 OFFCURVE",
"259 26 OFFCURVE",
"100 133 CURVE",
"100 390 LINE",
"154 390 LINE",
"154 164 LINE",
"298 73 OFFCURVE",
"449 33 OFFCURVE",
"589 33 CURVE SMOOTH",
"845 33 OFFCURVE",
"1028 162 OFFCURVE",
"1028 349 CURVE SMOOTH",
"1028 532 OFFCURVE",
"910 637 OFFCURVE",
"579 729 CURVE SMOOTH",
"247 821 OFFCURVE",
"132 917 OFFCURVE",
"132 1129 CURVE SMOOTH",
"132 1336 OFFCURVE",
"311 1477 OFFCURVE",
"582 1477 CURVE SMOOTH",
"770 1477 OFFCURVE",
"921 1417 OFFCURVE",
"1035 1322 CURVE",
"1035 1088 LINE"
);
}
);
width = 1183;
},
{
layerId = "ED9AC664-5073-455E-9B15-F6014C59BAEB";
paths = (
{
closed = 1;
nodes = (
"931 991 LINE",
"893 1191 LINE",
"842 1223 OFFCURVE",
"753 1251 OFFCURVE",
"644 1251 CURVE SMOOTH",
"504 1251 OFFCURVE",
"405 1177 OFFCURVE",
"405 1070 CURVE SMOOTH",
"405 971 OFFCURVE",
"474 919 OFFCURVE",
"698 848 CURVE SMOOTH",
"1019 759 OFFCURVE",
"1188 621 OFFCURVE",
"1188 382 CURVE SMOOTH",
"1188 133 OFFCURVE",
"973 -21 OFFCURVE",
"650 -21 CURVE SMOOTH",
"436 -21 OFFCURVE",
"267 21 OFFCURVE",
"97 140 CURVE",
"97 492 LINE",
"323 492 LINE",
"354 285 LINE",
"413 235 OFFCURVE",
"526 200 OFFCURVE",
"650 200 CURVE SMOOTH",
"809 200 OFFCURVE",
"895 271 OFFCURVE",
"895 380 CURVE SMOOTH",
"895 492 OFFCURVE",
"826 551 OFFCURVE",
"627 611 CURVE SMOOTH",
"282 711 OFFCURVE",
"114 832 OFFCURVE",
"114 1071 CURVE SMOOTH",
"114 1307 OFFCURVE",
"326 1472 OFFCURVE",
"629 1476 CURVE SMOOTH",
"853 1479 OFFCURVE",
"1025 1419 OFFCURVE",
"1150 1319 CURVE",
"1150 991 LINE"
);
}
);
width = 1247;
},
{
layerId = "B06AEEA2-953E-4FA5-BFB1-0445B6E4B274";
paths = (
{
closed = 1;
nodes = (
"909 1027 LINE",
"876 1235 LINE",
"816 1283 OFFCURVE",
"730 1319 OFFCURVE",
"598 1319 CURVE SMOOTH",
"429 1319 OFFCURVE",
"314 1225 OFFCURVE",
"314 1082 CURVE SMOOTH",
"314 956 OFFCURVE",
"402 884 OFFCURVE",
"649 823 CURVE SMOOTH",
"955 747 OFFCURVE",
"1116 598 OFFCURVE",
"1116 379 CURVE SMOOTH",
"1116 144 OFFCURVE",
"915 -21 OFFCURVE",
"606 -21 CURVE SMOOTH",
"429 -21 OFFCURVE",
"264 30 OFFCURVE",
"115 138 CURVE",
"115 449 LINE",
"268 449 LINE",
"301 220 LINE",
"387 167 OFFCURVE",
"489 136 OFFCURVE",
"606 136 CURVE SMOOTH",
"805 136 OFFCURVE",
"919 233 OFFCURVE",
"919 377 CURVE SMOOTH",
"919 510 OFFCURVE",
"834 594 OFFCURVE",
"581 652 CURVE SMOOTH",
"280 721 OFFCURVE",
"117 863 OFFCURVE",
"117 1079 CURVE SMOOTH",
"117 1307 OFFCURVE",
"310 1477 OFFCURVE",
"598 1477 CURVE SMOOTH",
"802 1477 OFFCURVE",
"961 1406 OFFCURVE",
"1062 1318 CURVE",
"1062 1027 LINE"
);
}
);
width = 1206;
},
{
layerId = "55372407-EEEC-4390-8B77-FB5958F23D2B";
paths = (
{
closed = 1;
nodes = (
"945 969 LINE",
"904 1164 LINE",
"858 1186 OFFCURVE",
"767 1209 OFFCURVE",
"673 1209 CURVE SMOOTH",
"551 1209 OFFCURVE",
"462 1147 OFFCURVE",
"462 1063 CURVE SMOOTH",
"462 980 OFFCURVE",
"519 941 OFFCURVE",
"728 864 CURVE SMOOTH",
"1059 766 OFFCURVE",
"1233 635 OFFCURVE",
"1233 384 CURVE SMOOTH",
"1233 126 OFFCURVE",
"1009 -21 OFFCURVE",
"677 -21 CURVE SMOOTH",
"440 -21 OFFCURVE",
"269 15 OFFCURVE",
"86 141 CURVE",
"86 519 LINE",
"357 519 LINE",
"387 325 LINE",
"429 277 OFFCURVE",
"549 240 OFFCURVE",
"677 240 CURVE SMOOTH",
"811 240 OFFCURVE",
"880 295 OFFCURVE",
"880 382 CURVE SMOOTH",
"880 481 OFFCURVE",
"821 524 OFFCURVE",
"656 586 CURVE SMOOTH",
"283 705 OFFCURVE",
"112 813 OFFCURVE",
"112 1066 CURVE SMOOTH",
"112 1307 OFFCURVE",
"336 1469 OFFCURVE",
"648 1475 CURVE SMOOTH",
"885 1480 OFFCURVE",
"1065 1427 OFFCURVE",
"1205 1320 CURVE",
"1205 969 LINE"
);
}
);
width = 1272;
}
);
leftKerningGroup = S;
unicode = 0053;
userData = {
com.typemytype.robofont.layerData = {
mask = {
anchors = (
);
components = (
);
contours = (
{
points = (
{
segmentType = line;
smooth = 0;
x = 1062;
y = 1022;
},
{
segmentType = line;
smooth = 0;
x = 1008;
y = 1022;
},
{
segmentType = line;
smooth = 0;
x = 1008;
y = 1226;
},
{
smooth = 0;
x = 922.66667;
y = 1355.33333;
},
{
smooth = 0;
x = 778;
y = 1423;
},
{
segmentType = curve;
smooth = 1;
x = 582;
y = 1423;
},
{
smooth = 0;
x = 318;
y = 1423;
},
{
smooth = 0;
x = 153;
y = 1287.33333;
},
{
segmentType = curve;
smooth = 1;
x = 153;
y = 1122;
},
{
smooth = 0;
x = 153;
y = 956.66667;
},
{
smooth = 0;
x = 260.66667;
y = 855.33333;
},
{
segmentType = curve;
smooth = 1;
x = 594;
y = 770;
},
{
smooth = 0;
x = 916.66667;
y = 684.66667;
},
{
smooth = 0;
x = 1083;
y = 577.66667;
},
{
segmentType = curve;
smooth = 1;
x = 1083;
y = 351;
},
{
smooth = 0;
x = 1083;
y = 120.33333;
},
{
smooth = 0;
x = 871.66667;
y = -21;
},
{
segmentType = curve;
smooth = 1;
x = 589;
y = -21;
},
{
smooth = 0;
x = 394.33333;
y = -21;
},
{
smooth = 0;
x = 203.66667;
y = 49.33333;
},
{
segmentType = curve;
smooth = 0;
x = 85;
y = 204;
},
{
segmentType = line;
smooth = 0;
x = 85;
y = 444;
},
{
segmentType = line;
smooth = 0;
x = 139;
y = 444;
},
{
segmentType = line;
smooth = 0;
x = 139;
y = 227;
},
{
smooth = 0;
x = 243;
y = 91;
},
{
smooth = 0;
x = 415.66667;
y = 33;
},
{
segmentType = curve;
smooth = 1;
x = 589;
y = 33;
},
{
smooth = 0;
x = 845;
y = 33;
},
{
smooth = 0;
x = 1028;
y = 162.33333;
},
{
segmentType = curve;
smooth = 1;
x = 1028;
y = 349;
},
{
smooth = 0;
x = 1028;
y = 531.66667;
},
{
smooth = 0;
x = 909.66667;
y = 627.33333;
},
{
segmentType = curve;
smooth = 1;
x = 579;
y = 718;
},
{
smooth = 0;
x = 247;
y = 807.33333;
},
{
smooth = 0;
x = 99;
y = 901.33333;
},
{
segmentType = curve;
smooth = 1;
x = 99;
y = 1120;
},
{
smooth = 0;
x = 99;
y = 1337.33333;
},
{
smooth = 0;
x = 300.66667;
y = 1477;
},
{
segmentType = curve;
smooth = 1;
x = 582;
y = 1477;
},
{
smooth = 0;
x = 800.66667;
y = 1477;
},
{
smooth = 0;
x = 967.33333;
y = 1401.66667;
},
{
segmentType = curve;
smooth = 0;
x = 1062;
y = 1251;
}
);
}
);
lib = {
};
name = S;
unicodes = (
);
width = 1183;
};
};
com.typemytype.robofont.mark = (
1,
0.1703,
0.1669,
0.8287
);
};
},
{
glyphname = T;
lastChange = "2018-07-16 02:53:56 +0000";
layers = (
{
layerId = "0331963E-C1C8-4E93-A463-84B984C1D75E";
paths = (
{
closed = 1;
nodes = (
"1194 1163 LINE",
"1140 1163 LINE",
"1140 1402 LINE",
"664 1402 LINE",
"664 54 LINE",
"827 54 LINE",
"827 0 LINE",
"447 0 LINE",
"447 54 LINE",
"610 54 LINE",
"610 1402 LINE",
"134 1402 LINE",
"134 1163 LINE",
"80 1163 LINE",
"80 1456 LINE",
"1194 1456 LINE"
);
}
);
width = 1277;
},
{
layerId = "ED9AC664-5073-455E-9B15-F6014C59BAEB";
paths = (
{
closed = 1;
nodes = (
"1338 1068 LINE",
"1114 1068 LINE",
"1102 1231 LINE",
"834 1231 LINE",
"834 205 LINE",
"990 175 LINE",
"990 0 LINE",
"386 0 LINE",
"386 175 LINE",
"542 205 LINE",
"542 1231 LINE",
"275 1231 LINE",
"263 1068 LINE",
"40 1068 LINE",
"40 1456 LINE",
"1338 1456 LINE"
);
}
);
width = 1377;
},
{
layerId = "B06AEEA2-953E-4FA5-BFB1-0445B6E4B274";
paths = (
{
closed = 1;
nodes = (
"1306 1105 LINE",
"1160 1105 LINE",
"1130 1307 LINE",
"800 1307 LINE",
"800 154 LINE",
"963 126 LINE",
"963 0 LINE",
"440 0 LINE",
"440 126 LINE",
"603 154 LINE",
"603 1307 LINE",
"273 1307 LINE",
"244 1105 LINE",
"96 1105 LINE",
"96 1456 LINE",
"1306 1456 LINE"
);
}
);
width = 1406;
},
{
layerId = "55372407-EEEC-4390-8B77-FB5958F23D2B";
paths = (
{
closed = 1;
nodes = (
"1367 1035 LINE",
"1099 1035 LINE",
"1092 1184 LINE",
"864 1184 LINE",
"864 237 LINE",
"1016 205 LINE",
"1016 0 LINE",
"361 0 LINE",
"361 205 LINE",
"513 237 LINE",
"513 1184 LINE",
"287 1184 LINE",
"279 1035 LINE",
"14 1035 LINE",
"14 1456 LINE",
"1367 1456 LINE"
);
}
);
width = 1379;
}
);
leftKerningGroup = T;
rightKerningGroup = T;
unicode = 0054;
},
{
glyphname = U;
lastChange = "2018-07-15 19:02:34 +0000";
layers = (
{
layerId = "0331963E-C1C8-4E93-A463-84B984C1D75E";
paths = (
{
closed = 1;
nodes = (
"440 1402 LINE",
"277 1402 LINE",
"277 469 LINE SMOOTH",
"277 195.667 OFFCURVE",
"459.667 33 OFFCURVE",
"721 33 CURVE SMOOTH",
"981 33 OFFCURVE",
"1164 195.667 OFFCURVE",
"1164 469 CURVE SMOOTH",
"1164 1402 LINE",
"1001 1402 LINE",
"1001 1456 LINE",
"1381 1456 LINE",
"1381 1402 LINE",
"1218 1402 LINE",
"1218 469 LINE SMOOTH",
"1218 151.667 OFFCURVE",
"1015.667 -21 OFFCURVE",
"721 -21 CURVE SMOOTH",
"423.667 -21 OFFCURVE",
"223 153 OFFCURVE",
"223 469 CURVE SMOOTH",
"223 1402 LINE",
"60 1402 LINE",
"60 1456 LINE",
"440 1456 LINE"
);
}
);
width = 1441;
},
{
layerId = "ED9AC664-5073-455E-9B15-F6014C59BAEB";
paths = (
{
closed = 1;
nodes = (
"642 1280 LINE",
"486 1250 LINE",
"486 490 LINE SMOOTH",
"486 298 OFFCURVE",
"596 203 OFFCURVE",
"776 203 CURVE SMOOTH",
"958.667 203 OFFCURVE",
"1069 296.667 OFFCURVE",
"1069 490 CURVE SMOOTH",
"1069 1250 LINE",
"914 1280 LINE",
"914 1456 LINE",
"1517 1456 LINE",
"1517 1280 LINE",
"1361 1250 LINE",
"1361 490 LINE SMOOTH",
"1361 163.333 OFFCURVE",
"1125.333 -21 OFFCURVE",
"776 -21 CURVE SMOOTH",
"428 -21 OFFCURVE",
"194 163.333 OFFCURVE",
"194 490 CURVE SMOOTH",
"194 1250 LINE",
"39 1280 LINE",
"39 1456 LINE",
"642 1456 LINE"
);
}
);
width = 1547;
},
{
layerId = "B06AEEA2-953E-4FA5-BFB1-0445B6E4B274";
paths = (
{
closed = 1;
nodes = (
"593 1329 LINE",
"430 1301 LINE",
"430 469 LINE SMOOTH",
"430 251 OFFCURVE",
"563 137 OFFCURVE",
"758 137 CURVE SMOOTH",
"954 137 OFFCURVE",
"1092 248 OFFCURVE",
"1092 469 CURVE SMOOTH",
"1092 1301 LINE",
"929 1329 LINE",
"929 1456 LINE",
"1452 1456 LINE",
"1452 1329 LINE",
"1289 1301 LINE",
"1289 469 LINE SMOOTH",
"1289 153 OFFCURVE",
"1076 -21 OFFCURVE",
"755 -21 CURVE SMOOTH",
"454 -21 OFFCURVE",
"233 163 OFFCURVE",
"233 469 CURVE SMOOTH",
"233 1301 LINE",
"70 1329 LINE",
"70 1456 LINE",
"593 1456 LINE"
);
}
);
width = 1522;
},
{
layerId = "55372407-EEEC-4390-8B77-FB5958F23D2B";
paths = (
{
closed = 1;
nodes = (
"672 1250 LINE",
"521 1218 LINE",
"521 503 LINE SMOOTH",
"521 327 OFFCURVE",
"616 244 OFFCURVE",
"787 244 CURVE SMOOTH",
"962 244 OFFCURVE",
"1055 327 OFFCURVE",
"1055 503 CURVE SMOOTH",
"1055 1218 LINE",
"905 1250 LINE",
"905 1456 LINE",
"1557 1456 LINE",
"1557 1250 LINE",
"1406 1218 LINE",
"1406 503 LINE SMOOTH",
"1406 170 OFFCURVE",
"1156 -21 OFFCURVE",
"789 -21 CURVE SMOOTH",
"412 -21 OFFCURVE",
"170 164 OFFCURVE",
"170 503 CURVE SMOOTH",
"170 1218 LINE",
"20 1250 LINE",
"20 1456 LINE",
"672 1456 LINE"
);
}
);
width = 1563;
}
);
leftKerningGroup = U;
rightKerningGroup = J;
unicode = 0055;
},
{
glyphname = V;
lastChange = "2018-07-15 19:02:34 +0000";
layers = (
{
layerId = "0331963E-C1C8-4E93-A463-84B984C1D75E";
paths = (
{
closed = 1;
nodes = (
"221 1402 LINE",
"690 142 LINE",
"716 63 LINE",
"722 63 LINE",
"748 142 LINE",
"1217 1402 LINE",
"1064 1402 LINE",
"1064 1456 LINE",
"1383 1456 LINE",
"1383 1402 LINE",
"1276 1402 LINE",
"752 0 LINE",
"686 0 LINE",
"162 1402 LINE",
"55 1402 LINE",
"55 1456 LINE",
"374 1456 LINE",
"374 1402 LINE"
);
}
);
width = 1434;
},
{
layerId = "ED9AC664-5073-455E-9B15-F6014C59BAEB";
paths = (
{
closed = 1;
nodes = (
"482 1260 LINE",
"770 401 LINE",
"788 321 LINE",
"794 321 LINE",
"819 399 LINE",
"1103 1260 LINE",
"950 1280 LINE",
"950 1456 LINE",
"1502 1456 LINE",
"1502 1280 LINE",
"1370 1264 LINE",
"931 0 LINE",
"632 0 LINE",
"164 1264 LINE",
"34 1280 LINE",
"34 1456 LINE",
"613 1456 LINE",
"613 1280 LINE"
);
}
);
width = 1535;
},
{
layerId = "B06AEEA2-953E-4FA5-BFB1-0445B6E4B274";
paths = (
{
closed = 1;
nodes = (
"392 1308 LINE",
"718 382 LINE",
"752 267 LINE",
"758 267 LINE",
"794 382 LINE",
"1132 1309 LINE",
"984 1329 LINE",
"984 1456 LINE",
"1443 1456 LINE",
"1443 1329 LINE",
"1326 1313 LINE",
"838 0 LINE",
"669 0 LINE",
"181 1313 LINE",
"65 1329 LINE",
"65 1456 LINE",
"525 1456 LINE",
"525 1329 LINE"
);
}
);
width = 1508;
},
{
layerId = "55372407-EEEC-4390-8B77-FB5958F23D2B";
paths = (
{
closed = 1;
nodes = (
"538 1230 LINE",
"802 413 LINE",
"810 355 LINE",
"816 355 LINE",
"835 410 LINE",
"1085 1230 LINE",
"929 1250 LINE",
"929 1456 LINE",
"1539 1456 LINE",
"1539 1250 LINE",
"1397 1234 LINE",
"989 0 LINE",
"609 0 LINE",
"153 1234 LINE",
"15 1250 LINE",
"15 1456 LINE",
"668 1456 LINE",
"668 1250 LINE"
);
}
);
width = 1552;
}
);
leftKerningGroup = V;
rightKerningGroup = V;
unicode = 0056;
userData = {
com.typemytype.robofont.layerData = {
mask = {
anchors = (
);
components = (
);
contours = (
{
points = (
{
segmentType = line;
smooth = 0;
x = 364;
y = 1402;
},
{
segmentType = line;
smooth = 0;
x = 221;
y = 1402;
},
{
segmentType = line;
smooth = 0;
x = 690;
y = 142;
},
{
segmentType = line;
smooth = 0;
x = 716;
y = 63;
},
{
segmentType = line;
smooth = 0;
x = 722;
y = 63;
},
{
segmentType = line;
smooth = 0;
x = 748;
y = 142;
},
{
segmentType = line;
smooth = 0;
x = 1217;
y = 1402;
},
{
segmentType = line;
smooth = 0;
x = 1074;
y = 1402;
},
{
segmentType = line;
smooth = 0;
x = 1074;
y = 1456;
},
{
segmentType = line;
smooth = 0;
x = 1383;
y = 1456;
},
{
segmentType = line;
smooth = 0;
x = 1383;
y = 1402;
},
{
segmentType = line;
smooth = 0;
x = 1276;
y = 1402;
},
{
segmentType = line;
smooth = 0;
x = 752;
y = 0;
},
{
segmentType = line;
smooth = 0;
x = 686;
y = 0;
},
{
segmentType = line;
smooth = 0;
x = 162;
y = 1402;
},
{
segmentType = line;
smooth = 0;
x = 55;
y = 1402;
},
{
segmentType = line;
smooth = 0;
x = 55;
y = 1456;
},
{
segmentType = line;
smooth = 0;
x = 364;
y = 1456;
}
);
}
);
lib = {
};
name = V;
unicodes = (
);
width = 1434;
};
};
com.typemytype.robofont.mark = (
1,
0.1703,
0.1669,
0.8287
);
};
},
{
glyphname = W;
lastChange = "2018-07-16 15:44:27 +0000";
layers = (
{
layerId = "0331963E-C1C8-4E93-A463-84B984C1D75E";
paths = (
{
closed = 1;
nodes = (
"1862 1402 LINE",
"1504 0 LINE",
"1443 0 LINE",
"1062 1214 LINE",
"1014 1359 LINE",
"1008 1359 LINE",
"962 1214 LINE",
"578 0 LINE",
"517 0 LINE",
"158 1402 LINE",
"57 1402 LINE",
"57 1456 LINE",
"377 1456 LINE",
"377 1402 LINE",
"217 1402 LINE",
"486 330 LINE",
"549 101 LINE",
"555 101 LINE",
"618 330 LINE",
"982 1456 LINE",
"1042 1456 LINE",
"1404 330 LINE",
"1466 101 LINE",
"1472 101 LINE",
"1537 330 LINE",
"1803 1402 LINE",
"1644 1402 LINE",
"1644 1456 LINE",
"1963 1456 LINE",
"1963 1402 LINE"
);
}
);
width = 2000;
},
{
layerId = "ED9AC664-5073-455E-9B15-F6014C59BAEB";
paths = (
{
closed = 1;
nodes = (
"2022 1265 LINE",
"1681 0 LINE",
"1416 0 LINE",
"1140 851 LINE",
"1106 971 LINE",
"1100 971 LINE",
"1061 847 LINE",
"782 0 LINE",
"515 0 LINE",
"178 1265 LINE",
"29 1280 LINE",
"29 1456 LINE",
"615 1456 LINE",
"615 1280 LINE",
"457 1257 LINE",
"628 549 LINE",
"659 419 LINE",
"665 418 LINE",
"708 569 LINE",
"990 1456 LINE",
"1206 1456 LINE",
"1504 509 LINE",
"1541 408 LINE",
"1547 409 LINE",
"1578 524 LINE",
"1752 1257 LINE",
"1587 1280 LINE",
"1587 1456 LINE",
"2162 1456 LINE",
"2162 1280 LINE"
);
}
);
width = 2192;
},
{
layerId = "B06AEEA2-953E-4FA5-BFB1-0445B6E4B274";
paths = (
{
closed = 1;
nodes = (
"1942 1314 LINE",
"1616 0 LINE",
"1429 0 LINE",
"1113 1008 LINE",
"1073 1155 LINE",
"1067 1155 LINE",
"1028 1008 LINE",
"711 0 LINE",
"535 0 LINE",
"195 1314 LINE",
"72 1329 LINE",
"72 1456 LINE",
"544 1456 LINE",
"544 1329 LINE",
"393 1306 LINE",
"583 505 LINE",
"627 318 LINE",
"633 317 LINE",
"691 504 LINE",
"984 1456 LINE",
"1157 1456 LINE",
"1453 504 LINE",
"1510 306 LINE",
"1516 306 LINE",
"1568 504 LINE",
"1756 1306 LINE",
"1593 1329 LINE",
"1593 1456 LINE",
"2057 1456 LINE",
"2057 1329 LINE"
);
}
);
width = 2129;
},
{
layerId = "55372407-EEEC-4390-8B77-FB5958F23D2B";
paths = (
{
closed = 1;
nodes = (
"2072 1235 LINE",
"1721 0 LINE",
"1408 0 LINE",
"1157 753 LINE",
"1126 857 LINE",
"1120 857 LINE",
"1081 747 LINE",
"826 0 LINE",
"503 0 LINE",
"167 1235 LINE",
"2 1250 LINE",
"2 1456 LINE",
"659 1456 LINE",
"659 1250 LINE",
"497 1227 LINE",
"656 576 LINE",
"679 482 LINE",
"685 481 LINE",
"719 609 LINE",
"994 1456 LINE",
"1236 1456 LINE",
"1536 512 LINE",
"1560 471 LINE",
"1566 473 LINE",
"1584 536 LINE",
"1750 1227 LINE",
"1583 1250 LINE",
"1583 1456 LINE",
"2227 1456 LINE",
"2227 1250 LINE"
);
}
);
width = 2231;
}
);
leftKerningGroup = W;
rightKerningGroup = W;
unicode = 0057;
userData = {
com.typemytype.robofont.layerData = {
mask = {
anchors = (
);
components = (
);
contours = (
{
points = (
{
segmentType = line;
smooth = 0;
x = 1963;
y = 1402;
},
{
segmentType = line;
smooth = 0;
x = 1862;
y = 1402;
},
{
segmentType = line;
smooth = 0;
x = 1504;
y = 0;
},
{
segmentType = line;
smooth = 0;
x = 1443;
y = 0;
},
{
segmentType = line;
smooth = 0;
x = 1062;
y = 1214;
},
{
segmentType = line;
smooth = 0;
x = 1014;
y = 1359;
},
{
segmentType = line;
smooth = 0;
x = 1008;
y = 1359;
},
{
segmentType = line;
smooth = 0;
x = 962;
y = 1214;
},
{
segmentType = line;
smooth = 0;
x = 578;
y = 0;
},
{
segmentType = line;
smooth = 0;
x = 517;
y = 0;
},
{
segmentType = line;
smooth = 0;
x = 158;
y = 1402;
},
{
segmentType = line;
smooth = 0;
x = 57;
y = 1402;
},
{
segmentType = line;
smooth = 0;
x = 57;
y = 1456;
},
{
segmentType = line;
smooth = 0;
x = 367;
y = 1456;
},
{
segmentType = line;
smooth = 0;
x = 367;
y = 1402;
},
{
segmentType = line;
smooth = 0;
x = 217;
y = 1402;
},
{
segmentType = line;
smooth = 0;
x = 486;
y = 330;
},
{
segmentType = line;
smooth = 0;
x = 549;
y = 101;
},
{
segmentType = line;
smooth = 0;
x = 555;
y = 101;
},
{
segmentType = line;
smooth = 0;
x = 618;
y = 330;
},
{
segmentType = line;
smooth = 0;
x = 982;
y = 1456;
},
{
segmentType = line;
smooth = 0;
x = 1042;
y = 1456;
},
{
segmentType = line;
smooth = 0;
x = 1404;
y = 330;
},
{
segmentType = line;
smooth = 0;
x = 1466;
y = 101;
},
{
segmentType = line;
smooth = 0;
x = 1472;
y = 101;
},
{
segmentType = line;
smooth = 0;
x = 1537;
y = 330;
},
{
segmentType = line;
smooth = 0;
x = 1803;
y = 1402;
},
{
segmentType = line;
smooth = 0;
x = 1654;
y = 1402;
},
{
segmentType = line;
smooth = 0;
x = 1654;
y = 1456;
},
{
segmentType = line;
smooth = 0;
x = 1963;
y = 1456;
}
);
}
);
lib = {
};
name = W;
unicodes = (
);
width = 2000;
};
};
com.typemytype.robofont.mark = (
1,
0.1703,
0.1669,
0.8287
);
};
},
{
glyphname = X;
lastChange = "2018-07-15 19:02:34 +0000";
layers = (
{
layerId = "0331963E-C1C8-4E93-A463-84B984C1D75E";
paths = (
{
closed = 1;
nodes = (
"172 54 LINE",
"658 743 LINE",
"192 1402 LINE",
"77 1402 LINE",
"77 1456 LINE",
"425 1456 LINE",
"425 1402 LINE",
"259 1402 LINE",
"691 785 LINE",
"1124 1402 LINE",
"959 1402 LINE",
"959 1456 LINE",
"1306 1456 LINE",
"1306 1402 LINE",
"1191 1402 LINE",
"726 743 LINE",
"1212 54 LINE",
"1327 54 LINE",
"1327 0 LINE",
"980 0 LINE",
"980 54 LINE",
"1145 54 LINE",
"691 701 LINE",
"238 54 LINE",
"403 54 LINE",
"403 0 LINE",
"57 0 LINE",
"57 54 LINE"
);
}
);
width = 1384;
},
{
layerId = "ED9AC664-5073-455E-9B15-F6014C59BAEB";
paths = (
{
closed = 1;
nodes = (
"161 199 LINE",
"569 721 LINE",
"167 1255 LINE",
"49 1280 LINE",
"49 1456 LINE",
"618 1456 LINE",
"618 1280 LINE",
"479 1267 LINE",
"743 917 LINE",
"979 1267 LINE",
"843 1280 LINE",
"843 1456 LINE",
"1404 1456 LINE",
"1404 1280 LINE",
"1275 1255 LINE",
"916 747 LINE",
"1338 200 LINE",
"1476 175 LINE",
"1476 0 LINE",
"893 0 LINE",
"893 175 LINE",
"1019 187 LINE",
"745 557 LINE",
"473 187 LINE",
"595 175 LINE",
"595 0 LINE",
"33 0 LINE",
"33 175 LINE"
);
}
);
width = 1510;
},
{
layerId = "B06AEEA2-953E-4FA5-BFB1-0445B6E4B274";
paths = (
{
closed = 1;
nodes = (
"206 148 LINE",
"657 739 LINE",
"239 1307 LINE",
"112 1329 LINE",
"112 1456 LINE",
"584 1456 LINE",
"584 1329 LINE",
"447 1316 LINE",
"769 867 LINE",
"1075 1316 LINE",
"935 1329 LINE",
"935 1456 LINE",
"1410 1456 LINE",
"1410 1329 LINE",
"1277 1307 LINE",
"882 739 LINE",
"1320 148 LINE",
"1449 126 LINE",
"1449 0 LINE",
"971 0 LINE",
"971 126 LINE",
"1112 139 LINE",
"767 612 LINE",
"423 139 LINE",
"556 126 LINE",
"556 0 LINE",
"80 0 LINE",
"80 126 LINE"
);
}
);
width = 1529;
},
{
layerId = "55372407-EEEC-4390-8B77-FB5958F23D2B";
paths = (
{
closed = 1;
nodes = (
"133 231 LINE",
"514 710 LINE",
"122 1223 LINE",
"10 1250 LINE",
"10 1456 LINE",
"639 1456 LINE",
"639 1250 LINE",
"499 1237 LINE",
"727 948 LINE",
"919 1237 LINE",
"786 1250 LINE",
"786 1456 LINE",
"1400 1456 LINE",
"1400 1250 LINE",
"1274 1223 LINE",
"937 752 LINE",
"1349 232 LINE",
"1493 205 LINE",
"1493 0 LINE",
"845 0 LINE",
"845 205 LINE",
"961 217 LINE",
"731 523 LINE",
"504 217 LINE",
"619 205 LINE",
"619 0 LINE",
"4 0 LINE",
"4 205 LINE"
);
}
);
width = 1498;
}
);
leftKerningGroup = Chi;
rightKerningGroup = Chi;
unicode = 0058;
userData = {
com.typemytype.robofont.layerData = {
mask = {
anchors = (
);
components = (
);
contours = (
{
points = (
{
segmentType = line;
smooth = 0;
x = 57;
y = 54;
},
{
segmentType = line;
smooth = 0;
x = 172;
y = 54;
},
{
segmentType = line;
smooth = 0;
x = 658;
y = 743;
},
{
segmentType = line;
smooth = 0;
x = 192;
y = 1402;
},
{
segmentType = line;
smooth = 0;
x = 77;
y = 1402;
},
{
segmentType = line;
smooth = 0;
x = 77;
y = 1456;
},
{
segmentType = line;
smooth = 0;
x = 415;
y = 1456;
},
{
segmentType = line;
smooth = 0;
x = 415;
y = 1402;
},
{
segmentType = line;
smooth = 0;
x = 259;
y = 1402;
},
{
segmentType = line;
smooth = 0;
x = 691;
y = 785;
},
{
segmentType = line;
smooth = 0;
x = 1124;
y = 1402;
},
{
segmentType = line;
smooth = 0;
x = 969;
y = 1402;
},
{
segmentType = line;
smooth = 0;
x = 969;
y = 1456;
},
{
segmentType = line;
smooth = 0;
x = 1306;
y = 1456;
},
{
segmentType = line;
smooth = 0;
x = 1306;
y = 1402;
},
{
segmentType = line;
smooth = 0;
x = 1191;
y = 1402;
},
{
segmentType = line;
smooth = 0;
x = 726;
y = 743;
},
{
segmentType = line;
smooth = 0;
x = 1212;
y = 54;
},
{
segmentType = line;
smooth = 0;
x = 1327;
y = 54;
},
{
segmentType = line;
smooth = 0;
x = 1327;
y = 0;
},
{
segmentType = line;
smooth = 0;
x = 990;
y = 0;
},
{
segmentType = line;
smooth = 0;
x = 990;
y = 54;
},
{
segmentType = line;
smooth = 0;
x = 1145;
y = 54;
},
{
segmentType = line;
smooth = 0;
x = 691;
y = 701;
},
{
segmentType = line;
smooth = 0;
x = 238;
y = 54;
},
{
segmentType = line;
smooth = 0;
x = 393;
y = 54;
},
{
segmentType = line;
smooth = 0;
x = 393;
y = 0;
},
{
segmentType = line;
smooth = 0;
x = 57;
y = 0;
}
);
}
);
lib = {
};
name = X;
unicodes = (
);
width = 1384;
};
};
com.typemytype.robofont.mark = (
1,
0.1703,
0.1669,
0.8287
);
};
},
{
glyphname = Y;
lastChange = "2018-07-15 19:02:34 +0000";
layers = (
{
layerId = "0331963E-C1C8-4E93-A463-84B984C1D75E";
paths = (
{
closed = 1;
nodes = (
"240 1402 LINE",
"689 647 LINE",
"715 597 LINE",
"716 599 LINE",
"742 647 LINE",
"1193 1402 LINE",
"1052 1402 LINE",
"1052 1456 LINE",
"1378 1456 LINE",
"1378 1402 LINE",
"1258 1402 LINE",
"744 553 LINE",
"744 54 LINE",
"907 54 LINE",
"907 0 LINE",
"526 0 LINE",
"526 54 LINE",
"689 54 LINE",
"689 553 LINE",
"174 1402 LINE",
"55 1402 LINE",
"55 1456 LINE",
"381 1456 LINE",
"381 1402 LINE"
);
}
);
width = 1429;
},
{
layerId = "ED9AC664-5073-455E-9B15-F6014C59BAEB";
paths = (
{
closed = 1;
nodes = (
"498 1263 LINE",
"735 804 LINE",
"759 753 LINE",
"765 753 LINE",
"792 790 LINE",
"1059 1263 LINE",
"899 1280 LINE",
"899 1456 LINE",
"1469 1456 LINE",
"1469 1280 LINE",
"1325 1260 LINE",
"899 522 LINE",
"899 205 LINE",
"1055 175 LINE",
"1055 0 LINE",
"452 0 LINE",
"452 175 LINE",
"608 205 LINE",
"608 499 LINE",
"176 1260 LINE",
"36 1280 LINE",
"36 1456 LINE",
"617 1456 LINE",
"617 1280 LINE"
);
}
);
width = 1508;
},
{
layerId = "B06AEEA2-953E-4FA5-BFB1-0445B6E4B274";
paths = (
{
closed = 1;
nodes = (
"401 1310 LINE",
"710 738 LINE",
"731 699 LINE",
"732 701 LINE",
"752 738 LINE",
"1076 1310 LINE",
"904 1329 LINE",
"904 1456 LINE",
"1396 1456 LINE",
"1396 1329 LINE",
"1269 1310 LINE",
"829 545 LINE",
"829 154 LINE",
"992 126 LINE",
"992 0 LINE",
"470 0 LINE",
"470 126 LINE",
"633 154 LINE",
"633 530 LINE",
"185 1310 LINE",
"65 1329 LINE",
"65 1456 LINE",
"567 1456 LINE",
"567 1329 LINE"
);
}
);
width = 1461;
},
{
layerId = "55372407-EEEC-4390-8B77-FB5958F23D2B";
paths = (
{
closed = 1;
nodes = (
"558 1234 LINE",
"751 845 LINE",
"776 787 LINE",
"785 785 LINE",
"817 822 LINE",
"1048 1234 LINE",
"896 1250 LINE",
"896 1456 LINE",
"1514 1456 LINE",
"1514 1250 LINE",
"1360 1229 LINE",
"942 508 LINE",
"942 237 LINE",
"1094 205 LINE",
"1094 0 LINE",
"441 0 LINE",
"441 205 LINE",
"592 237 LINE",
"592 480 LINE",
"170 1229 LINE",
"18 1250 LINE",
"18 1456 LINE",
"648 1456 LINE",
"648 1250 LINE"
);
}
);
width = 1537;
}
);
leftKerningGroup = Upsilon;
rightKerningGroup = Upsilon;
unicode = 0059;
userData = {
com.typemytype.robofont.mark = (
1,
0.1703,
0.1669,
0.8287
);
};
},
{
glyphname = Z;
lastChange = "2018-07-15 19:02:34 +0000";
layers = (
{
layerId = "0331963E-C1C8-4E93-A463-84B984C1D75E";
paths = (
{
closed = 1;
nodes = (
"1096 1418 LINE",
"166 54 LINE",
"1074 54 LINE",
"1074 293 LINE",
"1128 293 LINE",
"1128 0 LINE",
"92 0 LINE",
"92 44 LINE",
"1021 1403 LINE",
"186 1403 LINE",
"186 1163 LINE",
"132 1163 LINE",
"132 1456 LINE",
"1096 1456 LINE"
);
}
);
width = 1220;
},
{
layerId = "ED9AC664-5073-455E-9B15-F6014C59BAEB";
paths = (
{
closed = 1;
nodes = (
"1143 1270 LINE",
"430 224 LINE",
"937 224 LINE",
"961 410 LINE",
"1183 410 LINE",
"1165 0 LINE",
"74 0 LINE",
"74 192 LINE",
"784 1231 LINE",
"341 1231 LINE",
"318 1045 LINE",
"95 1045 LINE",
"107 1456 LINE",
"1143 1456 LINE"
);
}
);
width = 1226;
},
{
layerId = "B06AEEA2-953E-4FA5-BFB1-0445B6E4B274";
paths = (
{
closed = 1;
nodes = (
"1074 1311 LINE",
"313 153 LINE",
"932 153 LINE",
"950 360 LINE",
"1107 360 LINE",
"1107 0 LINE",
"90 0 LINE",
"90 149 LINE",
"847 1302 LINE",
"281 1302 LINE",
"263 1114 LINE",
"105 1114 LINE",
"105 1456 LINE",
"1074 1456 LINE"
);
}
);
width = 1197;
},
{
layerId = "55372407-EEEC-4390-8B77-FB5958F23D2B";
paths = (
{
closed = 1;
nodes = (
"1186 1245 LINE",
"503 268 LINE",
"940 268 LINE",
"968 441 LINE",
"1230 441 LINE",
"1201 0 LINE",
"64 0 LINE",
"64 219 LINE",
"745 1187 LINE",
"378 1187 LINE",
"352 1002 LINE",
"89 1002 LINE",
"108 1456 LINE",
"1186 1456 LINE"
);
}
);
width = 1244;
}
);
leftKerningGroup = Z;
rightKerningGroup = Z;
unicode = 005A;
},
{
glyphname = bracketleft;
lastChange = "2018-07-15 19:02:34 +0000";
layers = (
{
layerId = "0331963E-C1C8-4E93-A463-84B984C1D75E";
paths = (
{
closed = 1;
nodes = (
"211 1610 LINE",
"211 -258 LINE",
"440 -258 LINE",
"440 -312 LINE",
"157 -312 LINE",
"157 1664 LINE",
"440 1664 LINE",
"440 1610 LINE"
);
}
);
width = 527;
},
{
layerId = "ED9AC664-5073-455E-9B15-F6014C59BAEB";
paths = (
{
closed = 1;
nodes = (
"431 1475 LINE",
"431 -120 LINE",
"572 -120 LINE",
"572 -336 LINE",
"139 -336 LINE",
"139 1691 LINE",
"572 1691 LINE",
"572 1475 LINE"
);
}
);
width = 578;
},
{
layerId = "B06AEEA2-953E-4FA5-BFB1-0445B6E4B274";
paths = (
{
closed = 1;
nodes = (
"354 1509 LINE",
"354 -157 LINE",
"541 -157 LINE",
"541 -312 LINE",
"157 -312 LINE",
"157 1664 LINE",
"541 1664 LINE",
"541 1509 LINE"
);
}
);
width = 573;
},
{
layerId = "55372407-EEEC-4390-8B77-FB5958F23D2B";
paths = (
{
closed = 1;
nodes = (
"479 1454 LINE",
"479 -97 LINE",
"591 -97 LINE",
"591 -351 LINE",
"128 -351 LINE",
"128 1708 LINE",
"591 1708 LINE",
"591 1454 LINE"
);
}
);
width = 581;
}
);
unicode = 005B;
},
{
glyphname = backslash;
lastChange = "2018-07-15 19:02:34 +0000";
layers = (
{
layerId = "0331963E-C1C8-4E93-A463-84B984C1D75E";
paths = (
{
closed = 1;
nodes = (
"94 1456 LINE",
"702 -125 LINE",
"644 -125 LINE",
"36 1456 LINE"
);
}
);
width = 784;
},
{
layerId = "ED9AC664-5073-455E-9B15-F6014C59BAEB";
paths = (
{
closed = 1;
nodes = (
"300 1456 LINE",
"908 -125 LINE",
"620 -125 LINE",
"12 1456 LINE"
);
}
);
width = 854;
},
{
layerId = "B06AEEA2-953E-4FA5-BFB1-0445B6E4B274";
paths = (
{
closed = 1;
nodes = (
"222 1456 LINE",
"830 -125 LINE",
"644 -125 LINE",
"36 1456 LINE"
);
}
);
width = 841;
},
{
layerId = "55372407-EEEC-4390-8B77-FB5958F23D2B";
paths = (
{
closed = 1;
nodes = (
"348 1456 LINE",
"956 -125 LINE",
"605 -125 LINE",
"-3 1456 LINE"
);
}
);
width = 862;
}
);
unicode = 005C;
},
{
glyphname = bracketright;
lastChange = "2018-07-15 19:02:34 +0000";
layers = (
{
layerId = "0331963E-C1C8-4E93-A463-84B984C1D75E";
paths = (
{
closed = 1;
nodes = (
"306 1664 LINE",
"306 -312 LINE",
"23 -312 LINE",
"23 -258 LINE",
"251 -258 LINE",
"251 1610 LINE",
"23 1610 LINE",
"23 1664 LINE"
);
}
);
width = 505;
},
{
layerId = "ED9AC664-5073-455E-9B15-F6014C59BAEB";
paths = (
{
closed = 1;
nodes = (
"445 1691 LINE",
"445 -336 LINE",
"11 -336 LINE",
"11 -120 LINE",
"154 -120 LINE",
"154 1475 LINE",
"11 1475 LINE",
"11 1691 LINE"
);
}
);
width = 569;
},
{
layerId = "B06AEEA2-953E-4FA5-BFB1-0445B6E4B274";
paths = (
{
closed = 1;
nodes = (
"408 1664 LINE",
"408 -312 LINE",
"23 -312 LINE",
"23 -157 LINE",
"211 -157 LINE",
"211 1509 LINE",
"23 1509 LINE",
"23 1664 LINE"
);
}
);
width = 552;
},
{
layerId = "55372407-EEEC-4390-8B77-FB5958F23D2B";
paths = (
{
closed = 1;
nodes = (
"468 1708 LINE",
"468 -351 LINE",
"4 -351 LINE",
"4 -97 LINE",
"119 -97 LINE",
"119 1454 LINE",
"4 1454 LINE",
"4 1708 LINE"
);
}
);
width = 580;
}
);
unicode = 005D;
},
{
glyphname = asciicircum;
lastChange = "2018-07-15 19:02:34 +0000";
layers = (
{
layerId = "0331963E-C1C8-4E93-A463-84B984C1D75E";
paths = (
{
closed = 1;
nodes = (
"71 729 LINE",
"370 1456 LINE",
"422 1456 LINE",
"721 729 LINE",
"660 729 LINE",
"438 1272 LINE",
"398 1386 LINE",
"392 1386 LINE",
"349 1272 LINE",
"130 729 LINE"
);
}
);
width = 828;
},
{
layerId = "ED9AC664-5073-455E-9B15-F6014C59BAEB";
paths = (
{
closed = 1;
nodes = (
"45 729 LINE",
"344 1456 LINE",
"556 1456 LINE",
"855 729 LINE",
"624 729 LINE",
"459 1142 LINE",
"451 1176 LINE",
"445 1176 LINE",
"438 1142 LINE",
"276 729 LINE"
);
}
);
width = 884;
},
{
layerId = "B06AEEA2-953E-4FA5-BFB1-0445B6E4B274";
paths = (
{
closed = 1;
nodes = (
"71 729 LINE",
"370 1456 LINE",
"504 1456 LINE",
"802 729 LINE",
"620 729 LINE",
"454 1148 LINE",
"438 1218 LINE",
"432 1218 LINE",
"416 1148 LINE",
"253 729 LINE"
);
}
);
width = 864;
},
{
layerId = "55372407-EEEC-4390-8B77-FB5958F23D2B";
paths = (
{
closed = 1;
nodes = (
"29 729 LINE",
"328 1456 LINE",
"588 1456 LINE",
"888 729 LINE",
"626 729 LINE",
"462 1138 LINE",
"459 1150 LINE",
"453 1150 LINE",
"452 1138 LINE",
"290 729 LINE"
);
}
);
width = 896;
}
);
unicode = 005E;
},
{
glyphname = underscore;
lastChange = "2018-07-15 19:02:34 +0000";
layers = (
{
layerId = "0331963E-C1C8-4E93-A463-84B984C1D75E";
paths = (
{
closed = 1;
nodes = (
"119 -54 LINE",
"119 0 LINE",
"965 0 LINE",
"965 -54 LINE"
);
}
);
width = 1134;
},
{
layerId = "ED9AC664-5073-455E-9B15-F6014C59BAEB";
paths = (
{
closed = 1;
nodes = (
"92 -186 LINE",
"92 0 LINE",
"1002 0 LINE",
"1002 -186 LINE"
);
}
);
width = 1094;
},
{
layerId = "B06AEEA2-953E-4FA5-BFB1-0445B6E4B274";
paths = (
{
closed = 1;
nodes = (
"119 -154 LINE",
"119 0 LINE",
"1041 0 LINE",
"1041 -154 LINE"
);
}
);
width = 1168;
},
{
layerId = "55372407-EEEC-4390-8B77-FB5958F23D2B";
paths = (
{
closed = 1;
nodes = (
"75 -206 LINE",
"75 0 LINE",
"978 0 LINE",
"978 -206 LINE"
);
}
);
width = 1048;
}
);
unicode = 005F;
},
{
glyphname = grave;
lastChange = "2018-07-15 19:02:34 +0000";
layers = (
{
layerId = "0331963E-C1C8-4E93-A463-84B984C1D75E";
paths = (
{
closed = 1;
nodes = (
"382 1210 LINE",
"333 1210 LINE",
"96 1471 LINE",
"98 1476 LINE",
"163 1476 LINE",
"384 1215 LINE"
);
}
);
width = 546;
},
{
layerId = "ED9AC664-5073-455E-9B15-F6014C59BAEB";
paths = (
{
closed = 1;
nodes = (
"564 1212 LINE",
"336 1212 LINE",
"64 1472 LINE",
"66 1478 LINE",
"376 1478 LINE",
"572 1212 LINE"
);
}
);
width = 622;
},
{
layerId = "B06AEEA2-953E-4FA5-BFB1-0445B6E4B274";
paths = (
{
closed = 1;
nodes = (
"485 1211 LINE",
"333 1211 LINE",
"84 1471 LINE",
"87 1477 LINE",
"317 1477 LINE",
"492 1211 LINE"
);
}
);
width = 582;
},
{
layerId = "55372407-EEEC-4390-8B77-FB5958F23D2B";
paths = (
{
closed = 1;
nodes = (
"613 1213 LINE",
"338 1213 LINE",
"52 1473 LINE",
"53 1479 LINE",
"413 1479 LINE",
"622 1213 LINE"
);
}
);
width = 647;
}
);
unicode = 0060;
userData = {
com.typemytype.robofont.layerData = {
mask = {
anchors = (
);
components = (
);
contours = (
{
points = (
{
segmentType = line;
smooth = 0;
x = 395;
y = 1215;
},
{
segmentType = line;
smooth = 0;
x = 393;
y = 1210;
},
{
segmentType = line;
smooth = 0;
x = 318;
y = 1210;
},
{
segmentType = line;
smooth = 0;
x = 84;
y = 1471;
},
{
segmentType = line;
smooth = 0;
x = 86;
y = 1476;
},
{
segmentType = line;
smooth = 0;
x = 175;
y = 1476;
}
);
}
);
lib = {
};
name = grave;
unicodes = (
);
width = 546;
};
};
com.typemytype.robofont.mark = (
1,
0.1703,
0.1669,
0.8287
);
};
},
